<svg xmlns="http://www.w3.org/2000/svg" width="1760" height="1100" viewBox="0 0 1760 1100"><defs><style>.cls-1,.cls-8{fill:#fce588;}.cls-2{fill:#f0f;}.cls-3{fill:#a9a9a9;}.cls-10,.cls-4{fill:#fbb03b;}.cls-5{fill:#ff0;}.cls-6{fill:#ff7bac;}.cls-10,.cls-11,.cls-14,.cls-6,.cls-7,.cls-8,.cls-9{stroke:#fbb03b;}.cls-10,.cls-11,.cls-14,.cls-41,.cls-6,.cls-7,.cls-8,.cls-9{stroke-miterlimit:10;}.cls-7{fill:none;}.cls-12,.cls-9{fill:blue;}.cls-11{fill:#3fa9f5;}.cls-13{fill:#a9a9a8;}.cls-14{fill:#b03b3f;}.cls-15{fill:#ff1d25;}.cls-16,.cls-28,.cls-40{font-size:20px;}.cls-16,.cls-28,.cls-40,.cls-42,.cls-44,.cls-45,.cls-53,.cls-59{font-family:MyriadPro-Regular, Myriad Pro;}.cls-17{letter-spacing:0.01em;}.cls-18{letter-spacing:-0.01em;}.cls-19{letter-spacing:0em;}.cls-20{letter-spacing:0.01em;}.cls-21{letter-spacing:0em;}.cls-22{letter-spacing:-0.01em;}.cls-23{letter-spacing:-0.01em;}.cls-24{letter-spacing:0em;}.cls-25{letter-spacing:0em;}.cls-26{letter-spacing:-0.01em;}.cls-27{letter-spacing:0em;}.cls-28,.cls-29{letter-spacing:0em;}.cls-30{letter-spacing:-0.01em;}.cls-31{letter-spacing:-0.03em;}.cls-32{letter-spacing:0em;}.cls-33{letter-spacing:0.01em;}.cls-34{letter-spacing:-0.01em;}.cls-35{letter-spacing:0em;}.cls-36{letter-spacing:0em;}.cls-37{letter-spacing:0em;}.cls-38{letter-spacing:-0.01em;}.cls-39{letter-spacing:0.01em;}.cls-40{fill:#4d4d4d;}.cls-41{fill:#8cc63f;stroke:#009245;}.cls-42{font-size:12.24px;}.cls-43{letter-spacing:0.01em;}.cls-44{font-size:14px;}.cls-45{font-size:16.8px;}.cls-46{letter-spacing:0em;}.cls-47{letter-spacing:0em;}.cls-48{letter-spacing:0em;}.cls-49{letter-spacing:0em;}.cls-50{letter-spacing:-0.01em;}.cls-51{letter-spacing:0em;}.cls-52{letter-spacing:-0.01em;}.cls-53{font-size:11.2px;}.cls-54{letter-spacing:-0.01em;}.cls-55{letter-spacing:-0.01em;}.cls-56{letter-spacing:0em;}.cls-57{letter-spacing:0em;}.cls-58{letter-spacing:0em;}.cls-59{font-size:15px;}.cls-60{letter-spacing:0.01em;}</style></defs><g id="Colouring_in" data-name="Colouring in"><path class="cls-1" d="M396,563h37.8V453.8l156.8-1.4v315H550L548.6,822l40.6,33.6v26.6h35L627,696h60.2L690,570l49-1.4V542h47.6v29.4l51.8-2.8v-112h-21V486H718s1.4-84,2.8-82.6-30.8-14-30.8-14l-15.4-7V343.2H600.4V138.8H559.8l-23.24,35,.84,58.8H498.2l-12.6,21V290H463.2v53.2h-154V292.8h-21l-1.4-42-9.8-14-40.6-1.4,1.4-63-22.4-39.2h-42V323.6l14,15.4v50.4h25.2v64.4L335,454V438l51.2.4L396,448l1,38-11,2-1,53,12.4-.4"/><polygon class="cls-2" points="688.6 570 837 570 838.4 644.2 687.2 642.8 688.6 570"/><polyline class="cls-2" points="397 469 335 469 331.6 565.8 397.4 563 396 540.6 385 539 385 486 397 485"/><polygon class="cls-3" points="433.8 453.8 590.6 452.4 590.6 684.8 433.8 684.8 433.8 453.8"/><polyline class="cls-3" points="589.2 138.8 589.2 98.2 536.84 43.6 237.8 43.6 180.96 98.06 181.8 134.6 215.4 134.6 285.4 250.8 288.2 290 485.6 290 485.6 253.6 559.8 138.8"/><polyline class="cls-3" points="498.2 232.6 537.4 232.6 537.4 174.54 237.8 172.4 236.4 235.4 277 236.8"/><polygon class="cls-3" points="600.4 159.1 600.4 343.2 674.6 343.2 674.6 159.8 600.4 159.1"/><polygon class="cls-4" points="309.2 292.8 309.2 343.2 463.2 343.2 463.2 290 309.2 290 309.2 292.8"/><line class="cls-3" x1="335.8" y1="437" x2="334.4" y2="469.2"/><polygon class="cls-3" points="396 469 397 449 386.2 438.4 335 438 335 469 396 469"/><polygon class="cls-4" points="739 542.7 739 570 786.6 568.6 786.6 543.4 739 542.7"/><polygon class="cls-4" points="615.1 562.3 615.1 608.5 633.3 609.2 633.3 563.49 615.1 562.3"/><polygon class="cls-4" points="534.6 756.24 534.6 802.44 548.6 803.14 548.6 757.42 534.6 756.24"/><rect class="cls-4" x="534.6" y="684.8" width="54.6" height="81.2"/><rect class="cls-2" x="739" y="543.4" width="46.2" height="25.2"/><polygon class="cls-5" points="785.2 543.4 777.5 543.4 739 564.4 739 568.6 746.7 568.6 785.2 547.6 785.2 543.4"/><rect class="cls-6" x="266.5" y="426.5" width="67.2" height="28"/></g><g id="Tracing"><polyline class="cls-7" points="689.3 390.1 675.3 381.7 675.3 159.1 599.7 159.1 599.7 343.9 599.7 138.1 559.1 138.1 484.9 252.9 484.9 289.3 287.5 290.7 286.1 251.5 262.06 211.9 237.41 171.31 214.7 133.9 172.7 133.9 172.7 322.9 186.7 338.3 186.7 389.4 223.1 389.4"/><polyline class="cls-7" points="211.9 389.05 211.9 454.5 335.1 454.5 332.3 565.1 434.5 562.3 434.5 453.1 589.9 451.7 589.2 855.6 548.6 855.6 548.6 802.4 534.6 802.4 533.9 684.1 433.1 684.1 434.5 562.3 543.7 562.3"/><line class="cls-7" x1="396.7" y1="528.7" x2="396.7" y2="563"/><polyline class="cls-7" points="396.7 492.3 396.7 468.5 334.71 468.5"/><line class="cls-7" x1="385.5" y1="485.3" x2="385.5" y2="545.5"/><line class="cls-7" x1="333.56" y1="515.4" x2="385.5" y2="515.4"/><line class="cls-7" x1="236.71" y1="170.16" x2="237.1" y2="308.9"/><polyline class="cls-7" points="260.9 269.7 260.9 342.5 511.5 342.5 511.5 269.7"/><path class="cls-7" d="M536.7,310.3V172.76"/><line class="cls-7" x1="463.24" y1="289.45" x2="463.24" y2="342.5"/><line class="cls-7" x1="308.73" y1="342.5" x2="308.73" y2="290.55"/><polyline class="cls-7" points="181.6 133.9 181.1 97.5 237.1 42.9 536.7 42.9 588.5 97.5 588.5 138.1"/><line class="cls-7" x1="498.3" y1="232.16" x2="536.7" y2="232.16"/><line class="cls-7" x1="276.91" y1="236.37" x2="238.5" y2="236.37"/><polyline class="cls-7" points="752.3 643.5 752.3 605.7 785.9 605.7 785.9 542.7"/><polyline class="cls-7" points="738.3 542.7 738.3 570 688.6 570 687.2 695.3 626.3 695.3 623.5 882.2 588.5 882.2 588.5 833.9"/><line class="cls-7" x1="811.1" y1="542.7" x2="717.3" y2="542.7"/><polyline class="cls-7" points="717.3 459.4 717.3 486 817.4 486 817.4 455.9 837.7 455.9 837.7 569.3 689.3 570"/><polyline class="cls-7" points="687.66 643.5 837.7 643.5 837.7 569.3"/><line class="cls-7" x1="589.9" y1="609" x2="688.5" y2="609"/><polyline class="cls-7" points="639.2 563 615.1 563 615.1 668.7 657.1 668.7"/><line class="cls-7" x1="533.9" y1="684.1" x2="589.9" y2="684.1"/><polyline class="cls-7" points="549.3 803.1 549.3 766.7 589.9 766.7"/><polyline class="cls-7" points="335.1 454.5 335.1 437.7 385.5 437.7 397 448.9 396.5 468.5"/><polygon class="cls-3" points="239.2 166.8 237.8 173.8 275.45 236.37 281.2 234 239.2 166.8"/><polyline class="cls-3" points="502.4 231.2 491.2 231.2 536 161.2 536 182.2"/><rect class="cls-7" x="266.5" y="426.5" width="67.2" height="28"/></g><g id="Doors"><rect class="cls-8" x="648.7" y="639.3" width="18.2" height="4.2" transform="translate(16.4 1299.2) rotate(-90)"/><rect class="cls-8" x="605.3" y="639.3" width="18.2" height="4.2" transform="translate(-27 1255.8) rotate(-90)"/><rect class="cls-8" x="665.5" y="607.1" width="18.2" height="4.2"/><rect class="cls-8" x="591.3" y="607.1" width="18.2" height="4.2"/><rect class="cls-8" x="580.1" y="664.5" width="18.2" height="4.2" transform="translate(-77.4 1255.8) rotate(-90)"/><rect class="cls-8" x="580.1" y="777.9" width="18.2" height="4.2" transform="translate(-190.8 1369.2) rotate(-90)"/><rect class="cls-9" x="578.7" y="867.5" width="18.2" height="4.2" transform="translate(-281.8 1457.4) rotate(-90)"/><rect class="cls-9" x="202.1" y="398.5" width="18.2" height="4.2" transform="translate(-189.4 611.8) rotate(-90)"/><rect class="cls-9" x="202.1" y="422.3" width="18.2" height="4.2" transform="translate(-213.2 635.6) rotate(-90)"/><rect class="cls-8" x="465.3" y="287.9" width="18.2" height="4.2"/><rect class="cls-8" x="287.5" y="287.9" width="18.2" height="4.2"/><rect class="cls-8" x="514.3" y="230.5" width="18.2" height="4.2"/><rect class="cls-8" x="563.3" y="135.3" width="18.2" height="4.2"/><rect class="cls-8" x="237.1" y="233.3" width="18.2" height="4.2"/><rect class="cls-8" x="190.9" y="131.1" width="18.2" height="4.2"/><rect class="cls-8" x="718.7" y="566.5" width="18.2" height="4.2"/><rect class="cls-8" x="788.7" y="566.5" width="18.2" height="4.2"/><rect class="cls-8" x="580.1" y="464.3" width="18.2" height="4.2" transform="translate(122.8 1055.6) rotate(-90)"/><rect class="cls-8" x="424.7" y="464.3" width="18.2" height="4.2" transform="translate(-32.6 900.2) rotate(-90)"/><rect class="cls-8" x="385.5" y="485.3" width="12.6" height="4.2"/><rect class="cls-8" x="385.5" y="538.5" width="12.6" height="4.2"/><rect class="cls-8" x="729" y="554.5" width="18" height="3" transform="translate(182 1294) rotate(-90)"/><rect class="cls-10" x="735" y="554.5" width="6" height="3" transform="translate(182 1294) rotate(-90)"/><rect class="cls-8" x="389" y="456" width="18" height="3" transform="translate(-59.5 855.5) rotate(-90)"/><rect class="cls-10" x="395" y="456" width="6" height="3" transform="translate(-59.5 855.5) rotate(-90)"/><rect class="cls-8" x="257" y="439" width="18" height="3" transform="translate(-174.5 706.5) rotate(-90)"/><rect class="cls-10" x="263" y="439" width="6" height="3" transform="translate(-174.5 706.5) rotate(-90)"/></g><g id="Clickable"><rect class="cls-11" x="689.3" y="389.4" width="51.76" height="70"/><rect class="cls-12" x="713.48" y="417.66" width="2.1" height="20.3"/><polygon class="cls-12" points="714.53 410.84 710.34 418.11 718.74 418.11 714.53 410.84"/><rect class="cls-11" x="631.9" y="562.3" width="25.2" height="106.4"/><rect class="cls-12" x="642.4" y="604.53" width="2.8" height="27.07"/><polygon class="cls-12" points="643.8 595.43 638.2 605.13 649.4 605.13 643.8 595.43"/></g><g id="Legend"><rect class="cls-13" x="1400" y="165" width="30" height="30"/><rect class="cls-1" x="1100" y="165" width="30" height="30"/><rect class="cls-9" x="1100" y="58.5" width="30" height="3" transform="translate(1055 1175) rotate(-90)"/><rect class="cls-8" x="1100" y="98.5" width="30" height="3" transform="translate(1015 1215) rotate(-90)"/><rect class="cls-14" x="1400" y="125" width="30" height="30"/><rect class="cls-15" x="1413.73" y="130.55" width="1.55" height="14.97"/><polygon class="cls-15" points="1414.5 150.55 1411.4 145.19 1417.6 145.19 1414.5 150.55"/><rect class="cls-11" x="1400" y="85" width="30" height="30"/><rect class="cls-12" x="1414.76" y="95.32" width="1.55" height="14.97"/><polygon class="cls-12" points="1415.54 90.29 1412.44 95.66 1418.63 95.66 1415.54 90.29"/><text class="cls-16" transform="translate(1155 65.87)">E<tspan class="cls-17" x="9.84" y="0">x</tspan><tspan class="cls-18" x="19.36" y="0">t</tspan><tspan x="25.86" y="0">e</tspan><tspan class="cls-19" x="35.88" y="0">r</tspan><tspan x="42.5" y="0">nal </tspan><tspan class="cls-19" x="72.2" y="0">D</tspan><tspan x="85.6" y="0">oor</tspan></text><text class="cls-16" transform="translate(1155 105.87)"><tspan class="cls-20">I</tspan><tspan class="cls-21" x="4.98" y="0">n</tspan><tspan class="cls-22" x="16" y="0">t</tspan><tspan x="22.5" y="0">e</tspan><tspan class="cls-19" x="32.52" y="0">r</tspan><tspan x="39.14" y="0">nal </tspan><tspan class="cls-19" x="68.84" y="0">D</tspan><tspan x="82.24" y="0">oor</tspan></text><text class="cls-16" transform="translate(1155 185.87)"><tspan class="cls-23">C</tspan><tspan x="11.38" y="0">o</tspan><tspan class="cls-24" x="22.36" y="0">rr</tspan><tspan class="cls-25" x="35.6" y="0">idor</tspan></text><text class="cls-16" transform="translate(1455 185.87)">Class<tspan class="cls-26" x="41.8" y="0">r</tspan><tspan x="48.14" y="0">oom/offi</tspan><tspan class="cls-18" x="120.92" y="0">c</tspan><tspan class="cls-27" x="129.76" y="0">e </tspan></text><text class="cls-28" transform="translate(1455 105.87)">S<tspan class="cls-27" x="9.8" y="0">tairs up one floor</tspan></text><text class="cls-16" transform="translate(1455 145.87)"><tspan class="cls-29">S</tspan><tspan class="cls-27" x="9.8" y="0">tairs d</tspan><tspan class="cls-30" x="60.72" y="0">o</tspan><tspan x="71.56" y="0">wn one floor</tspan></text><rect class="cls-2" x="800" y="85" width="30" height="30"/><rect class="cls-2" x="800" y="125" width="30" height="30"/><rect class="cls-2" x="800" y="45" width="30" height="30"/><text class="cls-16" transform="translate(854.93 65.87)"><tspan class="cls-31">F</tspan><tspan x="9.12" y="0">emale B</tspan><tspan class="cls-32" x="75.28" y="0">a</tspan><tspan class="cls-27" x="84.84" y="0">th</tspan><tspan class="cls-26" x="102.56" y="0">r</tspan><tspan x="108.9" y="0">oom</tspan></text><text class="cls-16" transform="translate(854.68 105.87)"><tspan class="cls-33">M</tspan><tspan x="16.2" y="0">ale B</tspan><tspan class="cls-32" x="55.66" y="0">a</tspan><tspan x="65.22" y="0">th</tspan><tspan class="cls-34" x="82.94" y="0">r</tspan><tspan class="cls-27" x="89.28" y="0">oom</tspan></text><text class="cls-16" transform="translate(854.68 145.87)"><tspan class="cls-35">G</tspan><tspan x="13.02" y="0">ender Neut</tspan><tspan class="cls-36" x="107.04" y="0">r</tspan><tspan x="113.48" y="0">al B</tspan><tspan class="cls-37" x="142.92" y="0">a</tspan><tspan x="152.48" y="0">th</tspan><tspan class="cls-34" x="170.2" y="0">r</tspan><tspan x="176.54" y="0">oom</tspan></text><rect class="cls-2" x="800" y="165" width="30" height="30"/><text class="cls-16" transform="translate(854.68 185.87)"><tspan class="cls-38">A</tspan><tspan class="cls-18" x="12" y="0">cc</tspan><tspan x="29.68" y="0">essible B</tspan><tspan class="cls-37" x="101.42" y="0">a</tspan><tspan x="110.98" y="0">th</tspan><tspan class="cls-34" x="128.7" y="0">r</tspan><tspan x="135.04" y="0">oom</tspan></text><polygon class="cls-5" points="830 165 825 165 800 190 800 195 805 195 830 170 830 165"/><text class="cls-16" transform="translate(810.13 65.87)">F</text><text class="cls-16" transform="translate(806.96 105.87)">M</text><text class="cls-16" transform="translate(808.42 145.87)">N</text><text class="cls-16" transform="translate(1455 65.87)">Li<tspan class="cls-39" x="14.12" y="0">f</tspan><tspan class="cls-27" x="20.18" y="0">t</tspan></text><text class="cls-40" transform="translate(1155 145.87)"><tspan class="cls-22">U</tspan><tspan x="12.82" y="0">sually locked</tspan></text><rect class="cls-8" x="1100" y="138.5" width="30" height="3" transform="translate(975 1255) rotate(-90)"/><rect class="cls-10" x="1110" y="138.5" width="10" height="3" transform="translate(975 1255) rotate(-90)"/></g><g id="Labels"><rect class="cls-41" x="759.49" y="490.48" width="31.83" height="33.05" transform="translate(8.97 -13.46) rotate(1)"/><text class="cls-42" transform="translate(767.21 510.47) rotate(1)">Li<tspan class="cls-43" x="8.64" y="0">f</tspan><tspan x="12.35" y="0">t</tspan></text><rect class="cls-41" x="548.6" y="818.5" width="36.4" height="37.8"/><text class="cls-44" transform="translate(556.02 841.51)">Li<tspan class="cls-39" x="9.88" y="0">f</tspan><tspan x="14.13" y="0">t</tspan></text><text class="cls-45" transform="translate(481.96 605.17)"><tspan class="cls-46">S</tspan><tspan x="8.33" y="0">amuel</tspan><tspan class="cls-47" x="-0.23" y="20.16">B</tspan><tspan x="8.95" y="20.16">eckett</tspan><tspan class="cls-47" x="-0.83" y="40.32">R</tspan><tspan x="8.27" y="40.32">oom 2</tspan></text><text class="cls-45" transform="translate(480.28 491.77)"><tspan class="cls-46">S</tspan><tspan x="8.33" y="0">amuel</tspan><tspan class="cls-47" x="-0.23" y="20.16">B</tspan><tspan x="8.95" y="20.16">eckett</tspan><tspan class="cls-47" x="-0.83" y="40.32">R</tspan><tspan x="8.27" y="40.32">oom 1</tspan></text><text class="cls-45" transform="translate(355.37 543.35)">M</text><text class="cls-45" transform="translate(355.23 497.15)">F</text><text class="cls-45" transform="translate(354.23 152.63)"><tspan class="cls-48">E</tspan><tspan x="8.2" y="0">d Bu</tspan><tspan class="cls-49" x="39.6" y="0">r</tspan><tspan x="45.16" y="0">ke</tspan><tspan class="cls-50" x="4.07" y="20.16">T</tspan><tspan class="cls-51" x="12.31" y="20.16">he</tspan><tspan class="cls-48" x="30.05" y="20.16">a</tspan><tspan x="38.08" y="20.16">t</tspan><tspan class="cls-52" x="43.64" y="20.16">r</tspan><tspan class="cls-51" x="48.96" y="20.16">e</tspan></text><text class="cls-45" transform="translate(613.31 250.56)">Cloak<tspan class="cls-47" x="-1.33" y="20.16">R</tspan><tspan x="7.78" y="20.16">oom</tspan></text><text class="cls-45" transform="translate(716.89 608.95)">M</text><text class="cls-45" transform="translate(800.75 618.75)">F</text><text class="cls-45" transform="translate(755.76 563.06)">N</text><text class="cls-53" transform="translate(267.2 437.97)">B<tspan class="cls-54" x="6.07" y="0">r</tspan><tspan x="9.62" y="0">east</tspan><tspan class="cls-55" x="28.77" y="0">f</tspan><tspan class="cls-56" x="31.9" y="0">eeding</tspan><tspan class="cls-57" x="15.65" y="12.6">S</tspan><tspan x="21.13" y="12.6">t</tspan><tspan class="cls-58" x="24.84" y="12.6">a</tspan><tspan x="30.19" y="12.6">tion</tspan></text><polygon class="cls-41" points="1429.47 75 1400 74.5 1400.53 45 1430 45.5 1429.47 75"/><text class="cls-59" transform="matrix(1.04, 0.02, -0.02, 1, 1404.13, 64.71)">Li<tspan class="cls-60" x="10.59" y="0">f</tspan><tspan x="15.13" y="0">t</tspan></text></g></svg>