<svg xmlns="http://www.w3.org/2000/svg" width="1760" height="1100" viewBox="0 0 1760 1100"><defs><style>.cls-1{fill:#ffe594;}.cls-2{fill:#a9a9a8;}.cls-3{fill:#f0f;}.cls-14,.cls-15,.cls-16,.cls-4{fill:none;}.cls-10,.cls-18,.cls-19,.cls-4,.cls-5,.cls-6,.cls-7{stroke:#fbb03b;}.cls-10,.cls-14,.cls-15,.cls-16,.cls-18,.cls-19,.cls-4,.cls-5,.cls-6,.cls-7,.cls-9{stroke-miterlimit:10;}.cls-17,.cls-5{fill:#fce588;}.cls-6{fill:#b03b3f;}.cls-7{fill:#fbb03b;}.cls-8{fill:#ff1d25;}.cls-9{fill:#8cc63f;stroke:#009245;}.cls-10{fill:#c1272d;}.cls-11{fill:red;}.cls-12{font-size:16.8px;}.cls-12,.cls-29,.cls-30{font-family:Roboto-Regular, Roboto;}.cls-13{opacity:0.1;}.cls-14,.cls-15,.cls-16{stroke:#000;stroke-width:2.83px;}.cls-15{stroke-dasharray:5.65 14.13;}.cls-16{stroke-dasharray:5.71 14.29;}.cls-18,.cls-20{fill:blue;}.cls-19{fill:#3fa9f5;}.cls-21,.cls-26{font-size:20px;}.cls-21{font-family:Roboto-Medium, Roboto;font-weight:500;}.cls-22{letter-spacing:-0.02em;}.cls-23{letter-spacing:-0.01em;}.cls-24{letter-spacing:-0.01em;}.cls-25{fill:#ff0;}.cls-26,.cls-27{font-family:MyriadPro-Regular, Myriad Pro;}.cls-27{font-size:15px;}.cls-28{letter-spacing:0.01em;}.cls-29{font-size:14px;}.cls-30{font-size:14px;}</style></defs><g id="Colouring_in" data-name="Colouring in"><polygon class="cls-1" points="1217.2 891.8 1199 891.8 1199 852.6 1172.4 852.6 1171 723.8 1305.4 723.8 1305.4 701.4 1217.2 701.4 1217.2 603.4 1187.8 603.4 1110.8 606.2 1110.8 702.8 1015.6 702.8 1015.6 658 990.4 658 990.4 677.6 952.6 677.6 952.6 702.8 804.2 702.8 804.2 672 777.6 672 777.6 702.8 686.6 702.8 685.2 604.8 581.6 604.8 581.6 659.4 548 659.4 548 700 443 700 443 669.2 151.8 669.2 151.8 725.2 583 726.6 581.6 737.8 548 737.8 549.4 819 585.8 819 585.8 810.6 686.6 810.6 686.6 730.8 1110.8 730.8 1110.8 931 1215.8 931 1217.2 891.8"/><polyline class="cls-1" points="90.2 637.7 108.75 636.3 121.35 654.5 121.35 690.9 159.15 690.9 158.86 724.96 118.55 725.2 90.2 698.6 90.2 688.1"/><rect class="cls-2" x="151.8" y="670.6" width="348.6" height="54.6"/><rect class="cls-3" x="443" y="660.8" width="85.4" height="40.6"/><rect class="cls-3" x="686.6" y="659.4" width="64.4" height="43.4"/><rect class="cls-3" x="1014.2" y="660.8" width="96.6" height="42"/><rect class="cls-3" x="1217.2" y="660.8" width="88.2" height="40.6"/><polygon class="cls-2" points="153.2 604.8 151.8 669.2 443 669.2 443 660.8 529.8 660.8 528.4 701.4 549.4 700 549.4 659.4 583 659.4 583 604.8 153.2 604.8"/><polygon class="cls-2" points="686.6 604.8 1110.8 603.4 1110.8 660.8 1014.2 660.8 1015.6 659.4 990.4 659.4 990.4 677.6 951.2 677.6 951.2 702.8 804.2 702.8 802.8 672 777.6 672 777.6 700 751 702.8 751 659.4 686.6 659.4 686.6 604.8"/><rect class="cls-2" x="686.6" y="730.8" width="424.2" height="116.2"/><polygon class="cls-2" points="1217.2 603.4 1640 602 1640 729.4 1710 729.4 1710 849.8 1637.2 849.8 1637.2 931 1215.8 931 1215.8 854 1386.6 852.6 1388 725.2 1305.4 725.2 1305.4 660.8 1217.2 660.8 1217.2 603.4"/><polygon class="cls-1" points="1701.6 642.6 1679.2 665 1679.2 698.6 1640 698.6 1640 729.4 1710 728 1708.6 693 1701.6 642.6"/><polyline class="cls-1" points="837.8 730.8 837.8 761.6 685.2 761.6 686.6 781.2 843.4 779.8 843.4 847 951.2 847 951.2 782.6 1070.2 779.8 1070.2 760.2 990.4 761.6 990.4 730.8"/></g><g id="Tracing"><polyline class="cls-4" points="582.3 605.5 582.3 781.9 582.3 738.5 548.7 738.5 550.1 857.5 586.5 857.5 586.5 811.3 685.9 811.3 685.9 847.7 1110.1 847.7 1110.1 930.3 1636.5 930.3 1636.5 849.1 1709.3 849.1 1709.3 693.7 1700.9 643.3 1678.5 665.7 1678.5 699.3 1639.3 699.3 1639.3 602.7 151.8 605.5 151.8 725.2 582.3 725.9"/><line class="cls-4" x1="443.7" y1="669.9" x2="152.5" y2="669.9"/><polyline class="cls-4" points="196.06 605.42 196.06 669.37 235.23 669.9 235.23 606.2 275.7 606.2 275.7 669.37 314.2 669.37 314.2 604.8 352.08 604.8 352.08 669.37 422.7 669.37 422.7 604.99 499.7 604.99 499.7 661.5 443.7 661.5 443.7 700.7 548.7 700.7 548.7 660.1 582.3 660.1"/><line class="cls-4" x1="529.1" y1="660.1" x2="529.1" y2="700.7"/><line class="cls-4" x1="498.46" y1="661.5" x2="548.7" y2="660.1"/><polyline class="cls-4" points="989 730.1 1110.1 730.1 1110.1 847.7 1069.5 847.7 1069.5 730.1 989.7 730.1 989.7 760.9 1069.5 760.9 1084.9 760.9 1084.9 779.1"/><polyline class="cls-4" points="685.9 817.25 685.9 730.1 837.8 730.1"/><polyline class="cls-4" points="951.1 847.7 951.1 780.5 1069.5 780.5"/><line class="cls-4" x1="990.05" y1="847.7" x2="990.05" y2="780.5"/><line class="cls-4" x1="1030.29" y1="847.7" x2="1030.29" y2="780.5"/><polyline class="cls-4" points="843.67 847.7 844.1 780.5 685.9 780.5"/><polyline class="cls-4" points="685.9 760.9 837.1 760.9 837.67 730.1"/><line class="cls-4" x1="803.86" y1="847.7" x2="803.86" y2="780.5"/><line class="cls-4" x1="765" y1="847.7" x2="765" y2="780.5"/><line class="cls-4" x1="724.68" y1="847.7" x2="724.68" y2="780.5"/><line class="cls-4" x1="726.39" y1="760.9" x2="726.39" y2="730.1"/><line class="cls-4" x1="803.86" y1="760.9" x2="803.86" y2="730.1"/><polyline class="cls-4" points="1110.1 605.5 1110.1 702.1 1014.9 702.1 1014.9 659.4 989.7 659.4 989.89 677.6 952.6 677.6 952.6 702.1 803.5 702.1 803.5 672 776.9 672 776.9 702.1 685.9 702.1 685.9 604.8"/><line class="cls-4" x1="844.1" y1="604.2" x2="844.1" y2="702.1"/><line class="cls-4" x1="803.5" y1="676" x2="803.5" y2="603.4"/><polyline class="cls-4" points="776.9 677.72 776.9 658.7 685.9 658.7"/><line class="cls-4" x1="765" y1="605.14" x2="765" y2="658.7"/><line class="cls-4" x1="951.1" y1="702.1" x2="951.1" y2="604.2"/><line class="cls-4" x1="989.7" y1="604.8" x2="989.7" y2="658.7"/><line class="cls-4" x1="1030.3" y1="642.6" x2="1030.3" y2="603.4"/><line class="cls-4" x1="1069.5" y1="642.6" x2="1069.5" y2="604.2"/><line class="cls-4" x1="1014.9" y1="661.45" x2="1110.1" y2="661.45"/><polygon class="cls-4" points="1170.3 724.5 1387.3 724.5 1387.3 853.3 1216.5 853.3 1216.5 892.5 1198.3 892.5 1198.3 851.9 1173.1 851.9 1170.3 724.5"/><line class="cls-4" x1="1216.05" y1="930.3" x2="1216.5" y2="892.5"/><line class="cls-4" x1="1372.71" y1="930.3" x2="1372.71" y2="853.3"/><polyline class="cls-4" points="1479.29 930.3 1479.7 864.5 1559.5 864.5 1559.5 930.3"/><line class="cls-4" x1="1519.39" y1="930.3" x2="1519.39" y2="864.5"/><line class="cls-4" x1="1678.5" y1="699.3" x2="1709.3" y2="699.3"/><polyline class="cls-4" points="1639.3 699.3 1639.3 728.7 1623.9 728.7 1623.9 849.1 1639.3 849.1"/><line class="cls-4" x1="1709.3" y1="806.55" x2="1623.9" y2="806.55"/><line class="cls-4" x1="1709.3" y1="768.46" x2="1623.9" y2="768.46"/><line class="cls-4" x1="1639.3" y1="728.7" x2="1709.3" y2="728.7"/><polyline class="cls-4" points="1519.39 602.93 1518.9 668.5 1373.3 668.5 1373.3 602.7"/><line class="cls-4" x1="1411.66" y1="603.13" x2="1411.66" y2="668.5"/><line class="cls-4" x1="1481" y1="603.13" x2="1481" y2="668.5"/><line class="cls-4" x1="1305.94" y1="724.5" x2="1305.94" y2="604.2"/><polyline class="cls-4" points="1216.5 603.35 1216.5 661.45 1216.5 702.1 1305.93 702.1"/><line class="cls-4" x1="1305.94" y1="661.45" x2="1216.5" y2="661.5"/><line class="cls-4" x1="865.1" y1="730.1" x2="946.3" y2="730.1"/><polyline class="cls-4" points="151.8 690.94 120.65 691.6 120.65 655.2 108.05 637 90.2 637 90.2 698.6 117.85 725.2 159.15 725.2"/></g><g id="Doors"><rect class="cls-5" x="762.2" y="714" width="28" height="4.2" transform="translate(60.1 1492.3) rotate(-90)"/><rect class="cls-5" x="486.4" y="711.2" width="28" height="4.2" transform="translate(-212.9 1213.7) rotate(-90)"/><rect class="cls-5" x="1056.2" y="714" width="28" height="4.2" transform="translate(354.1 1786.3) rotate(-90)"/><rect class="cls-5" x="1292.1" y="711.9" width="23.8" height="4.2" transform="translate(590 2018) rotate(-90)"/><rect class="cls-5" x="1203.9" y="905.1" width="23.8" height="4.2" transform="translate(308.6 2123) rotate(-90)"/><rect class="cls-5" x="1626.7" y="711.9" width="23.8" height="4.2" transform="translate(924.6 2352.6) rotate(-90)"/><rect class="cls-5" x="1681.3" y="696.5" width="23.8" height="4.2"/><rect class="cls-5" x="1616.2" y="737.8" width="14" height="4.2" transform="translate(883.3 2363.1) rotate(-90)"/><rect class="cls-5" x="1617.6" y="775.6" width="14" height="4.2" transform="translate(846.9 2402.3) rotate(-90)"/><rect class="cls-5" x="1617.6" y="814.8" width="14" height="4.2" transform="translate(807.7 2441.5) rotate(-90)"/><rect class="cls-5" x="1365.6" y="908.6" width="14" height="4.2" transform="translate(461.9 2283.3) rotate(-90)"/><rect class="cls-5" x="1298.4" y="613.2" width="14" height="4.2" transform="translate(690.1 1920.7) rotate(-90)"/><rect class="cls-5" x="1391.5" y="665.7" width="14" height="4.2"/><rect class="cls-5" x="1461.5" y="665.7" width="14" height="4.2"/><rect class="cls-5" x="1485.3" y="667.1" width="14" height="4.2"/><rect class="cls-5" x="1500.7" y="863.1" width="14" height="4.2"/><rect class="cls-5" x="1525.9" y="863.1" width="14" height="4.2"/><rect class="cls-5" x="1208.8" y="690.2" width="14" height="4.2" transform="matrix(0, -1, 1, 0, 523.5, 1908.1)"/><rect class="cls-5" x="1102.4" y="690.2" width="14" height="4.2" transform="matrix(0, -1, 1, 0, 417.1, 1801.7)"/><rect class="cls-5" x="678.2" y="691.6" width="14" height="4.2" transform="matrix(0, -1, 1, 0, -8.5, 1378.9)"/><rect class="cls-5" x="567.6" y="711.2" width="28" height="4.2" transform="translate(-131.7 1294.9) rotate(-90)"/><rect class="cls-5" x="711.1" y="758.1" width="14" height="4.2"/><rect class="cls-5" x="789.5" y="758.1" width="14" height="4.2"/><rect class="cls-5" x="811.9" y="758.1" width="14" height="4.2"/><rect class="cls-5" x="730.7" y="777.7" width="14" height="4.2"/><rect class="cls-5" x="706.9" y="777.7" width="14" height="4.2"/><rect class="cls-5" x="785.3" y="777.7" width="14" height="4.2"/><rect class="cls-5" x="809.1" y="777.7" width="14" height="4.2"/><rect class="cls-5" x="160.9" y="667.1" width="14" height="4.2"/><rect class="cls-5" x="219.7" y="667.1" width="14" height="4.2"/><rect class="cls-5" x="236.5" y="667.1" width="14" height="4.2"/><rect class="cls-5" x="298.1" y="667.1" width="14" height="4.2"/><rect class="cls-5" x="316.3" y="667.1" width="14" height="4.2"/><rect class="cls-5" x="405.9" y="665.7" width="14" height="4.2"/><rect class="cls-5" x="425.5" y="665.7" width="14" height="4.2"/><rect class="cls-5" x="554.3" y="658.7" width="14" height="4.2"/><rect class="cls-5" x="531.9" y="658.7" width="14" height="4.2"/><rect class="cls-5" x="789.5" y="669.9" width="14" height="4.2"/><rect class="cls-5" x="916.9" y="697.9" width="14" height="4.2"/><rect class="cls-5" x="995.3" y="654.5" width="14" height="4.2"/><rect class="cls-5" x="795.8" y="691.6" width="14" height="4.2" transform="translate(109.1 1496.5) rotate(-90)"/><rect class="cls-5" x="758" y="646.8" width="14" height="4.2" transform="translate(116.1 1413.9) rotate(-90)"/><rect class="cls-5" x="982" y="667.8" width="14" height="4.2" transform="translate(319.1 1658.9) rotate(-90)"/><rect class="cls-5" x="1061.8" y="767.2" width="14" height="4.2" transform="translate(299.5 1838.1) rotate(-90)"/><rect class="cls-5" x="991.1" y="758.1" width="14" height="4.2"/><rect class="cls-5" x="1090.5" y="725.9" width="14" height="4.2"/><rect class="cls-5" x="995.3" y="777.7" width="14" height="4.2"/><rect class="cls-5" x="970.1" y="777.7" width="14" height="4.2"/><rect class="cls-5" x="1048.5" y="777.7" width="14" height="4.2"/><rect class="cls-5" x="678.2" y="768.6" width="14" height="4.2" transform="translate(-85.5 1455.9) rotate(-90)"/><rect class="cls-5" x="510.9" y="697.9" width="14" height="4.2"/><rect class="cls-5" x="137.8" y="706.3" width="28" height="4.2" transform="translate(-556.6 860.2) rotate(-90)"/></g><g id="Clickable"><rect class="cls-6" x="607.5" y="562.97" width="25.2" height="106.4" transform="translate(1240.2 1232.35) rotate(180)"/><rect class="cls-7" x="632.7" y="562.97" width="25.2" height="106.4" transform="translate(1290.6 1232.35) rotate(180)"/><rect class="cls-8" x="619.4" y="600.07" width="2.8" height="27.07" transform="translate(1241.6 1227.21) rotate(180)"/><polygon class="cls-8" points="620.8 636.24 626.4 626.54 615.2 626.54 620.8 636.24"/><rect class="cls-6" x="1161.95" y="562.8" width="25.2" height="106.4"/><rect class="cls-7" x="1136.7" y="562.97" width="25.2" height="106.4"/><rect class="cls-8" x="1172.45" y="599.9" width="2.8" height="27.07"/><polygon class="cls-8" points="1173.85 636.07 1168.25 626.37 1179.45 626.37 1173.85 636.07"/><rect class="cls-7" x="1701.6" y="668.06" width="47.6" height="25.2"/><rect class="cls-9" x="549.4" y="819.17" width="36.4" height="37.8"/><rect class="cls-10" x="1701.6" y="642.6" width="47.6" height="25.2"/><rect class="cls-11" x="1724.94" y="646.92" width="1.4" height="13.53"/><polygon class="cls-11" points="1725.64 665 1722.84 660.15 1728.44 660.15 1725.64 665"/><text class="cls-12" transform="translate(554.58 843.65)">Lift</text><rect class="cls-10" x="41.87" y="637.09" width="47.6" height="25.2"/><rect class="cls-11" x="65.21" y="641.4" width="1.4" height="13.53"/><polygon class="cls-11" points="65.91 659.49 63.11 654.64 68.71 654.64 65.91 659.49"/><g class="cls-13"><polyline class="cls-14" points="1760.5 1097.66 1760.5 1100.5 1757.66 1100.5"/><line class="cls-15" x1="1743.54" y1="1100.5" x2="10.4" y2="1100.5"/><polyline class="cls-14" points="3.33 1100.5 0.5 1100.5 0.5 1097.66"/><line class="cls-16" x1="0.5" y1="1083.38" x2="0.5" y2="10.48"/><polyline class="cls-14" points="0.5 3.33 0.5 0.5 3.33 0.5"/><line class="cls-15" x1="17.46" y1="0.5" x2="1750.6" y2="0.5"/><polyline class="cls-14" points="1757.66 0.5 1760.5 0.5 1760.5 3.33"/><line class="cls-16" x1="1760.5" y1="17.62" x2="1760.5" y2="1090.52"/></g></g><g id="Legend"><rect class="cls-2" x="1102" y="125" width="30" height="30"/><rect class="cls-17" x="1100" y="165" width="30" height="30"/><rect class="cls-18" x="1100" y="58.5" width="30" height="3" transform="translate(1055 1175) rotate(-90)"/><rect class="cls-5" x="1100" y="98.5" width="30" height="3" transform="translate(1015 1215) rotate(-90)"/><rect class="cls-6" x="1400" y="125" width="30" height="30"/><rect class="cls-8" x="1413.73" y="130.55" width="1.55" height="14.97"/><polygon class="cls-8" points="1414.5 150.55 1411.4 145.19 1417.6 145.19 1414.5 150.55"/><rect class="cls-19" x="1400" y="85" width="30" height="30"/><rect class="cls-20" x="1414.76" y="95.32" width="1.55" height="14.97"/><polygon class="cls-20" points="1415.54 90.29 1412.44 95.66 1418.63 95.66 1415.54 90.29"/><text class="cls-21" transform="translate(1155 65.87)">External Door</text><text class="cls-21" transform="translate(1155 105.87)">Internal Door</text><text class="cls-21" transform="translate(1155 185.87)">Corridor</text><text class="cls-21" transform="translate(1157 145.87)">Class<tspan class="cls-22" x="49.63" y="0">r</tspan><tspan x="56.31" y="0">oom/office </tspan></text><text class="cls-21" transform="translate(1455 105.87)">Stairs up one floor</text><text class="cls-21" transform="translate(1455 145.87)">Stairs down one floor</text><rect class="cls-3" x="800" y="85" width="30" height="30"/><rect class="cls-3" x="800" y="125" width="30" height="30"/><rect class="cls-3" x="800" y="45" width="30" height="30"/><text class="cls-21" transform="translate(854.93 65.87)"><tspan class="cls-23">F</tspan><tspan x="10.78" y="0">emale Bath</tspan><tspan class="cls-22" x="111.75" y="0">r</tspan><tspan x="118.43" y="0">oom</tspan></text><text class="cls-21" transform="translate(853.68 105.87)">Male Bath<tspan class="cls-22" x="90.34" y="0">r</tspan><tspan x="97.02" y="0">oom</tspan></text><text class="cls-21" transform="translate(854.68 145.87)">Gender Neut<tspan class="cls-24" x="112.2" y="0">r</tspan><tspan x="118.94" y="0">al Bath</tspan><tspan class="cls-22" x="181.04" y="0">r</tspan><tspan x="187.71" y="0">oom</tspan></text><rect class="cls-3" x="800" y="165" width="30" height="30"/><text class="cls-21" transform="translate(854.68 185.87)">Accessible Bath<tspan class="cls-22" x="144" y="0">r</tspan><tspan x="150.68" y="0">oom</tspan></text><polygon class="cls-25" points="830 165 825 165 800 190 800 195 805 195 830 170 830 165"/><text class="cls-26" transform="translate(810.13 65.87)">F</text><text class="cls-26" transform="translate(806.96 105.87)">M</text><text class="cls-26" transform="translate(808.42 145.87)">N</text><text class="cls-21" transform="translate(1455 65.87)">Lift</text><polygon class="cls-9" points="1429.47 75 1400 74.5 1400.53 45 1430 45.5 1429.47 75"/><text class="cls-27" transform="matrix(1.04, 0.02, -0.02, 1, 1404.13, 64.71)">Li<tspan class="cls-28" x="10.59" y="0">f</tspan><tspan x="15.13" y="0">t</tspan></text></g><g id="Labels"><text class="cls-29" transform="translate(167.63 655.26) rotate(-60)">A6.002</text><text class="cls-29" transform="translate(206.98 655.41) rotate(-60)">A6.003</text><text class="cls-29" transform="translate(247.58 655.41) rotate(-60)">A6.004</text><text class="cls-29" transform="translate(288.18 655.41) rotate(-60)">A6.005</text><text class="cls-29" transform="translate(327.38 655.41) rotate(-60)">A6.006</text><text class="cls-29" transform="translate(384.14 655.41) rotate(-60)">A6.007</text><text class="cls-29" transform="translate(454.14 651.21) rotate(-60)">A6.008</text><text class="cls-29" transform="translate(533.94 648.41) rotate(-60)">A6.009</text><text class="cls-29" transform="translate(716.91 648.41) rotate(-60)">B6.003</text><text class="cls-29" transform="translate(779.9 651.2) rotate(-60)">B6.004</text><text class="cls-29" transform="translate(819.11 658.21) rotate(-60)">B6.005</text><text/><text class="cls-29" transform="translate(960.51 654.01) rotate(-60)">B6.006</text><text class="cls-29" transform="translate(1005.36 647.01) rotate(-60)">B6.007</text><text class="cls-29" transform="translate(1044.56 651.21) rotate(-60)">B6.008</text><text class="cls-29" transform="translate(1080.96 651.2) rotate(-60)">B6.009</text><text class="cls-30" transform="translate(686.2 748.61)">B6.003</text><text class="cls-30" transform="translate(740.22 750.79)">B6.003</text><text class="cls-30" transform="translate(877.42 777.39)">B6.022</text><text class="cls-29" transform="translate(818.06 828.7) rotate(-60)">B6.013</text><text class="cls-29" transform="translate(780.26 828.7) rotate(-60)">B6.012</text><text class="cls-29" transform="translate(737.44 829.33) rotate(-60)">B6.011</text><text class="cls-29" transform="translate(702.44 829.33) rotate(-60)">B6.010</text><text class="cls-30" transform="translate(1009.79 750.79)">B6.018</text><text class="cls-29" transform="translate(963.6 830.73) rotate(-60)">B6.014</text><text class="cls-29" transform="translate(1005.6 830.73) rotate(-60)">B6.015</text><text class="cls-29" transform="translate(1044.8 829.33) rotate(-60)">B6.016</text><text class="cls-29" transform="translate(1082.6 819.53) rotate(-60)">B6.017</text><text class="cls-30" transform="translate(872.59 651.39)">B6.001</text><text class="cls-30" transform="translate(1236.74 641.59)">C6.011</text><text class="cls-30" transform="translate(1495.59 774.59)">C6.001</text><text class="cls-30" transform="translate(1315.71 693.39)">T6.006</text><text class="cls-29" transform="translate(1386.69 655.33) rotate(-60)">C6.004</text><text class="cls-29" transform="translate(1439.06 655.96) rotate(-60)">C6.010</text><text class="cls-29" transform="translate(1495.06 654.55) rotate(-60)">C6.003</text><text class="cls-30" transform="translate(1270.69 885.5)">C6.002<tspan x="-44.2" y="16.8">TRISS Seminar Room</tspan></text><text class="cls-30" transform="translate(1646.11 752.95)">C6.005</text><text class="cls-30" transform="translate(1646.15 792.15)">C6.006</text><text class="cls-30" transform="translate(1646.15 832.75)">C6.007</text><text/><text class="cls-29" transform="translate(1495.11 915.67) rotate(-60)">C6.009</text><text class="cls-29" transform="translate(1532.91 915) rotate(-60)">C6.008</text><text class="cls-30" transform="translate(1033.26 695.1)">(Staff only)</text><text class="cls-30" transform="translate(1232.06 695.1)">(Staff only)</text><text class="cls-30" transform="translate(397.12 710.5)">T6.007</text><text class="cls-30" transform="translate(310.9 703.5)">A6.001</text><text class="cls-12" transform="translate(484.52 687.3)">F</text><text class="cls-12" transform="translate(1059.22 680.4)">F</text><text class="cls-12" transform="translate(1258.02 680.4)">M</text><text class="cls-12" transform="translate(712.16 685.9)">M</text></g></svg>