<svg xmlns="http://www.w3.org/2000/svg" xmlns:xlink="http://www.w3.org/1999/xlink" width="1760" height="1100" viewBox="0 0 1760 1100"><defs><style>.cls-1{fill:#ffe594;}.cls-2{fill:#ffe5c2;}.cls-3{fill:url(#linear-gradient);}.cls-4{fill:#a9a9a8;}.cls-14,.cls-5{fill:#fbb03b;}.cls-11,.cls-6{fill:#fce588;}.cls-7{fill:#f0f;}.cls-8{fill:#ff0;}.cls-9{font-size:28px;}.cls-31,.cls-43,.cls-44,.cls-9{font-family:Roboto-Regular, Roboto;}.cls-10,.cls-12,.cls-21,.cls-22,.cls-23{fill:none;}.cls-10,.cls-11,.cls-12,.cls-13,.cls-14,.cls-15,.cls-16{stroke:#fbb03b;}.cls-10,.cls-11,.cls-12,.cls-13,.cls-14,.cls-15,.cls-16,.cls-19,.cls-21,.cls-22,.cls-23{stroke-miterlimit:10;}.cls-12{opacity:0.4;}.cls-13,.cls-17{fill:blue;}.cls-15{fill:#b03b3f;}.cls-16{fill:#3fa9f5;}.cls-18{fill:#ff1d25;}.cls-19{fill:#8cc63f;stroke:#009245;}.cls-20{opacity:0.1;}.cls-21,.cls-22,.cls-23{stroke:#000;stroke-width:2.83px;}.cls-22{stroke-dasharray:5.65 14.13;}.cls-23{stroke-dasharray:5.71 14.29;}.cls-24,.cls-28{font-size:20px;}.cls-24{font-family:Roboto-Medium, Roboto;font-weight:500;}.cls-25{letter-spacing:-0.02em;}.cls-26{letter-spacing:-0.01em;}.cls-27{letter-spacing:-0.01em;}.cls-28,.cls-29{font-family:MyriadPro-Regular, Myriad Pro;}.cls-29{font-size:15px;}.cls-30{letter-spacing:0.01em;}.cls-31{font-size:16.8px;}.cls-32{letter-spacing:-0.01em;}.cls-33{letter-spacing:-0.01em;}.cls-34{letter-spacing:-0.01em;}.cls-35{letter-spacing:0.01em;}.cls-36{letter-spacing:-0.01em;}.cls-37{letter-spacing:-0.01em;}.cls-38{letter-spacing:-0.01em;}.cls-39{letter-spacing:-0.02em;}.cls-40{letter-spacing:-0.01em;}.cls-41{letter-spacing:-0.05em;}.cls-42{letter-spacing:0.02em;}.cls-43{font-size:14px;}.cls-44{font-size:12.24px;}</style><linearGradient id="linear-gradient" x1="873.6" y1="-1.5" x2="925.4" y2="-1.5" gradientTransform="translate(0 488)" gradientUnits="userSpaceOnUse"><stop offset="0" stop-color="#ffe5c2"/><stop offset="1" stop-color="#ffe594"/></linearGradient></defs><g id="Colouring_In" data-name="Colouring In"><polygon class="cls-1" points="581 456.4 579.6 819 621.6 819 621.6 784 658 784 670.6 763 670.6 726.6 691.6 726.6 691.6 669.2 842.8 669.2 842.8 726.6 863.8 726.6 863.8 763 875 782.6 887.6 782.6 887.6 799.4 935.2 799.4 935.2 779.8 957.6 781.2 957.6 726.6 1107.4 726.6 1107.4 782.6 1128.4 782.6 1128.4 827.4 1142.4 848.4 1220.8 848.4 1220.8 785.4 1370.6 785.4 1370.6 849.8 1450.4 852.6 1465.8 827.4 1465.8 781.2 1486.8 782.6 1486.8 726.6 1635.2 726.6 1635.2 781.2 1657.6 781.2 1657.6 830.2 1680 862.4 1706.6 862.4 1706.6 852.6 1733.2 852.6 1733.2 693 1687 693 1687 670.6 1656.2 670.6 1656.2 700 1597.4 700 1597.4 667.8 1488.2 666.4 1486.8 642.6 1373.4 642.6 1373.4 666.4 1243.2 667.8 1219.4 644 1219.4 631.4 1213.8 631.4 1213.8 618.8 1111.6 618.8 1111.6 645.4 995.4 645.4 995.4 562.8 950.6 518 952 513.8 847 513.8 847 520.8 735 522.2 674.8 462 674.8 456.4 581 456.4"/><polygon class="cls-2" points="845.6 462 952 462 953.4 378 856.8 379.4 855.4 334.6 673.4 334.6 673.4 390.6 743.4 389.2 721 459.2 721 488.6 795.2 488.6 795.2 457.8 847 457.8 845.6 462"/><rect class="cls-3" x="873.6" y="434" width="51.8" height="105" transform="translate(1386 -413) rotate(90)"/><polygon class="cls-1" points="369.6 511 368.2 453.6 407.4 453.6 393.4 439.6 394.8 393.4 407.4 393.4 407.4 368.2 527.8 368.2 536.2 379.4 536.2 429.8 579.6 386.4 579.6 343 513.8 343 513.8 291.2 490 291.2 490 343 249.2 343 249.2 296.8 224 296.8 224 368.2 344.4 366.8 344.4 511 369.6 511"/><polygon class="cls-4" points="621.6 819 621.6 784 659.4 784 709.8 708.4 823.2 708.4 887.6 799.4 954.8 799.4 975.8 771.4 1086.4 771.4 1142.4 848.4 1229.2 848.4 1240.4 833 1240.4 812 1351 812 1351 837.2 1383.2 879.2 1383.2 852.6 1446.97 852.61 1505 771.4 1505 749 1618.4 749 1618.4 772.8 1680 862.4 1706.6 862.4 1706.6 903 1670.2 938 1502.2 940.8 1478.4 922.6 1454.6 925.4 1454.6 968.8 1402.8 1016.4 1188.6 1016.4 1138.2 968.8 1138.2 938 921.2 938 875 889 875 865.2 659.4 865.2 621.6 819"/><polygon class="cls-4" points="316.4 439.6 344.4 439.6 344.4 511 369.6 511 369.6 536.2 316.4 536.2 316.4 456.4 158.2 457.8 158.2 214.2 315 214.2 315 341.6 249.2 341.6 249.2 296.8 224 296.8 224 368.2 315.7 367.5 316.4 439.6"/><polygon class="cls-4" points="425.6 343 490 343 490 291.2 513.8 291.2 516.6 343 579.6 343 579.6 214.2 425.6 214.2 425.6 343"/><polygon class="cls-4" points="407.4 368.2 407.4 393.4 394.8 393.4 394.8 440.16 407.4 453.6 513.8 453.6 537.6 428.4 537.6 379.4 527.8 368.2 407.4 368.2"/><polygon class="cls-4" points="1373.4 666.4 1295.21 667.1 1296.4 574 1559.6 574 1559.6 617.4 1639.4 617.4 1639.4 667.8 1488.2 666.4 1486.8 642.6 1373.4 642.6 1373.4 666.4"/><rect class="cls-1" x="550.2" y="788.2" width="30.8" height="29.4"/><polyline class="cls-4" points="576.8 765.8 576.8 788.2 550.2 788.2 550.2 824.6 541.8 826 501.2 793.8 501.2 630 513.8 630 513.8 595 529.2 593.6 529.2 548.8 581 497 581 749 543.2 749 543.2 765.8 576.8 765.8"/><polyline class="cls-5" points="658 784 709.8 708.4 823.2 708.4 863.1 765.8 863.8 726.6 842.8 726.6 842.8 669.2 691.6 669.2 691.6 726.6 670.6 726.6 670.6 763"/><polyline class="cls-5" points="887.6 782.6 887.6 799.4 875 782.6"/><polyline class="cls-5" points="935.2 779.8 935.2 799.4 954.02 799.4 975.8 771.4 1086.91 772.1 1127 827.4 1128.4 782.6 1107.4 782.6 1106.7 726.6 957.6 726.6 957.6 779.8 935.2 779.8"/><polygon class="cls-5" points="1220.8 848.4 1229.2 848.4 1240.4 833 1240.4 812 1351 812 1351 837.2 1382.5 878.29 1383.2 852.6 1369.2 845.6 1370.6 785.4 1220.8 784 1220.8 848.4"/><polygon class="cls-5" points="1465.8 827.4 1505 771.4 1505 749 1618.4 749 1618.4 772.8 1657.6 830.2 1657.6 781.2 1635.2 781.2 1635.2 726.6 1486.8 726.6 1485.4 778.4 1464.4 778.4 1465.8 827.4"/><polygon class="cls-5" points="1597.4 667.8 1656.2 669.2 1656.2 700 1597.4 700 1597.4 667.8"/><polygon class="cls-5" points="316.4 367.5 343 368.2 343 441 316.4 439.6 316.4 367.5"/><rect class="cls-1" x="1656.2" y="669.2" width="46.2" height="35"/><rect class="cls-6" x="543.2" y="749.1" width="42" height="16"/></g><g id="Points_of_Interest" data-name="Points of Interest"><rect class="cls-7" x="500.8" y="719.8" width="42.4" height="46.44"/><polygon class="cls-8" points="543.2 720.8 535.97 720.8 499.8 758.3 499.8 765.8 507.03 765.8 543.2 728.3 543.2 720.8"/><text class="cls-9" transform="translate(514.23 751)">N</text></g><g id="Tracing"><polyline class="cls-10" points="581 214.9 569.1 214.9 157.5 213.5 157.5 455.7 139.3 455.7 139.3 672.7 157.5 689.5 157.5 730.1 342.3 737.1 450.1 812.7 447.3 695.1 424.9 695.1 422.1 563.5 368.9 563.5 368.9 454.3 513.8 453.6 579.6 387.8 579.6 215.45 579.6 148.4"/><polyline class="cls-10" points="1214.5 618.1 1186.5 618.8 1187.9 562.1 1140.3 562.1 1140.3 618.1 1112.3 618.1 1112.3 644.7 996.1 644.7 996.1 562.1 951.3 517.3 954.1 377.3 857.5 378.7 856.1 333.9 674.1 333.9 674.1 389.9 744.1 389.9"/><line class="cls-10" x1="1559.95" y1="574.7" x2="1295" y2="572.6"/><line class="cls-10" x1="1559.95" y1="574.7" x2="1295" y2="574"/><line class="cls-10" x1="1559.95" y1="572.6" x2="1295" y2="573.3"/><line class="cls-10" x1="1559.95" y1="574.7" x2="1295" y2="574"/><line class="cls-10" x1="1559.95" y1="574.7" x2="1295" y2="572.6"/><polyline class="cls-10" points="674.1 210 674.1 455.7 580.3 455.7 580.3 497.7 528.5 549.5 528.5 594.3 513.1 594.3 513.1 630.7 500.5 630.7 500.5 794.5 541.1 825.3 550.9 825.3 550.9 856.1 587.3 856.1 587.3 818.3 622.3 818.3 658.7 864.5 874.3 864.5 874.3 889.7 920.5 938.7 1138.9 938.7 1138.9 969.5 1189.3 1015.7 1403.5 1015.7 1453.9 968.1 1453.9 924.7 1477.7 923.3 1501.5 940.1 1624.7 938.7 1669.5 938.7 1707.3 902.3 1707.3 853.3 1732.5 853.3 1732.5 692.3 1749.3 692.3 1749.3 666.4"/><polyline class="cls-10" points="720.3 457.1 720.3 489.3 795.9 489.3 795.9 457.1 846.3 457.1 846.3 521.5 734.3 521.5 672 459.2 672.7 455.7"/><path class="cls-10" d="M580.3,342.3H248.5V296.1H223.3v71.4H343.7V510.3h25.2l-1.4-81.2"/><polyline class="cls-10" points="363.3 367.5 527.1 367.5 536.9 378.7 536.9 428.77"/><polyline class="cls-10" points="408.1 367.5 408.1 392.7 394.1 392.7 394.1 440.3 408 454.2"/><polyline class="cls-10" points="248.5 308.33 276.5 308.7 276.5 282.1 314.3 282.1 314.3 214.03 314.3 342.3 424.61 342.3 424.61 213.5 463.56 213.5 464.1 283.5 489.3 283.5 489.3 342.3 514.5 342.3 514.5 293.3 489.3 293.3 501.9 293.3 501.9 214.67"/><line class="cls-10" x1="424.9" y1="283.5" x2="464.1" y2="283.5"/><polyline class="cls-10" points="514.5 308.76 539.7 308.7 539.7 283.5 579.6 283.5"/><line class="cls-10" x1="236.71" y1="296.1" x2="236.71" y2="213.77"/><polyline class="cls-10" points="223.3 308.76 199.5 308.7 199.5 283.5 157.5 283.5"/><line class="cls-10" x1="157.5" y1="340" x2="223.3" y2="340"/><polyline class="cls-10" points="157.5 414.91 263.9 415.1 263.9 457.1 157.5 457.1 315.7 457.1 315.7 367.5 264.53 367.5 263.9 415.1"/><polyline class="cls-10" points="368.9 536.04 315.7 535.5 315.7 457.1"/><polyline class="cls-10" points="343.7 440.16 315.7 440.16 315.7 473.55 343.7 473.55 343.7 510.3 315.7 510.3"/><polyline class="cls-10" points="580.3 766 580.3 817.6 587.3 817.6 550.2 817.6 550.2 788.2 580.3 788.2 580.3 765.8 500.5 765.8 500.5 720 580.3 720 580.3 679 500.5 679 500.5 630 580.3 630 580.3 592.2 528.5 592.2 528.5 548.8 580.3 547.4"/><line class="cls-10" x1="549.5" y1="818.3" x2="549.5" y2="825.3"/><polyline class="cls-10" points="620.9 818.3 620.9 783.3 658.7 783.3 646.1 800.1 709.1 707.7 822.5 707.7 886.9 798.7 956.9 800.1 909.3 860.3 975.1 770.7 1087.1 772.1 1141.7 847.7 1231.3 847.7 1176.7 924.7 1239.7 832.3 1239.7 811.3 1351.7 811.3 1351.7 836.5 1416.1 924.7 1382.5 878.5 1382.5 851.9 1449.7 851.9 1438.5 864.5 1504.3 772.1 1504.3 748.3 1617.7 748.3 1617.7 772.1 1680.7 861.7 1707.3 861.7"/><polyline class="cls-10" points="1658.3 829.5 1658.3 780.5 1635.9 780.5 1635.9 725.9 1486.1 725.9 1486.1 781.9 1465.1 780.5 1465.1 827.15"/><path class="cls-10" d="M1390.9,844.9v0Z"/><polyline class="cls-10" points="1127.29 827.75 1127.7 781.9 1106.7 781.9 1106.7 725.9 956.9 725.9 956.9 780.5 934.5 779.1 934.5 799.65"/><polyline class="cls-10" points="1137.5 938.7 1137.5 919.1 1176.7 882.7 1176.7 847.7"/><polyline class="cls-10" points="874.3 864.5 874.3 854.7 910.7 818.3 910.7 799.18"/><polyline class="cls-10" points="1453.9 924.7 1416.1 884.1 1416.1 851.9"/><line class="cls-10" x1="1295.7" y1="1015.7" x2="1295.7" y2="811.3"/><polyline class="cls-10" points="670.96 763.64 671.3 725.9 690.9 725.9 690.9 668.5 842.1 668.5 842.1 725.9 863.1 725.9 863.1 763.64"/><polyline class="cls-10" points="886.9 798.7 886.9 781.9 875.01 781.9"/><polyline class="cls-10" points="1295.7 630.7 1295.7 668.5 1245.3 668.5 1218.7 643.3 1218.7 630.7"/><polyline class="cls-10" points="1214.5 618.1 1214.5 630.7 1219.4 630.7"/><line class="cls-10" x1="1376.9" y1="667.1" x2="1295.7" y2="667.1"/><line class="cls-10" x1="1295.7" y1="572.39" x2="1295.7" y2="630.7"/><line class="cls-10" x1="1373.11" y1="572.85" x2="1373.11" y2="667.1"/><line class="cls-10" x1="1427.3" y1="641.9" x2="1427.3" y2="573.17"/><line class="cls-10" x1="1486.1" y1="641.9" x2="1486.1" y2="573.53"/><line class="cls-10" x1="1559.73" y1="573.53" x2="1559.73" y2="667.1"/><polyline class="cls-10" points="1596.7 667.1 1686.3 669.2 1684.2 669.2"/><line class="cls-10" x1="1677.9" y1="689.5" x2="1734.8" y2="689.5"/><polyline class="cls-10" points="1655.5 668.94 1655.5 699.3 1596.7 699.3 1596.7 667.1 1486.1 667.1 1486.1 641.9 1373.12 641.9"/><polyline class="cls-10" points="951.38 513.37 846.3 513.1 846.3 461.99 953.4 461.3"/><rect class="cls-11" x="1131.21" y="616.07" width="22.4" height="4.2" transform="translate(524.24 1760.58) rotate(-90)"/><polyline class="cls-10" points="1382.5 851.9 1369.9 844.9 1369.9 784.7 1221.5 784.7 1221.5 847.7"/><rect class="cls-1" x="490" y="337.4" width="23.8" height="9.8"/><rect class="cls-2" x="849.8" y="456.4" width="99.4" height="7"/><rect class="cls-1" x="849.8" y="511" width="99.4" height="5.6"/><line class="cls-12" x1="852.6" y1="468.9" x2="945" y2="469.1"/><line class="cls-12" x1="852.6" y1="505.3" x2="945" y2="505.5"/><line class="cls-12" x1="852.6" y1="496.9" x2="945" y2="497.1"/><line class="cls-12" x1="852.6" y1="489.9" x2="945" y2="490.1"/><line class="cls-12" x1="852.6" y1="482.9" x2="945" y2="483.1"/><line class="cls-12" x1="852.6" y1="475.9" x2="945" y2="476.1"/><line class="cls-12" x1="852.6" y1="461.9" x2="945" y2="462.1"/><line class="cls-12" x1="852.6" y1="512.3" x2="945" y2="512.5"/><line class="cls-10" x1="543" y1="766.5" x2="543" y2="679.7"/><polyline class="cls-10" points="580.3 494.12 581 749 542.5 749"/><polyline class="cls-10" points="1638.7 668.5 1638.7 618.1 1560.3 618.1"/></g><g id="Doors"><rect class="cls-13" x="872.9" y="376.6" width="50.4" height="4.2"/><rect class="cls-13" x="608.3" y="452.9" width="50.4" height="4.2"/><rect class="cls-13" x="568.4" y="483.7" width="25.2" height="4.2" transform="translate(95.2 1066.8) rotate(-90)"/><rect class="cls-11" x="646.8" y="653.8" width="25.2" height="4.2" transform="translate(3.5 1315.3) rotate(-90)"/><rect class="cls-11" x="592.2" y="652.4" width="25.2" height="4.2" transform="translate(-49.7 1259.3) rotate(-90)"/><rect class="cls-11" x="626.5" y="780.5" width="21" height="4.2"/><rect class="cls-11" x="886.9" y="795.9" width="22.4" height="4.2"/><rect class="cls-11" x="912.8" y="795.2" width="22.4" height="4.2"/><rect class="cls-11" x="1152.9" y="843.5" width="22.4" height="4.2"/><rect class="cls-11" x="1176.7" y="843.5" width="22.4" height="4.2"/><rect class="cls-11" x="1390.9" y="847.7" width="22.4" height="4.2"/><rect class="cls-11" x="1417.5" y="847.7" width="22.4" height="4.2"/><rect class="cls-11" x="1683.5" y="857.5" width="22.4" height="4.2"/><rect class="cls-13" x="1722" y="705.6" width="22.4" height="4.2" transform="translate(1025.5 2440.9) rotate(-90)"/><rect class="cls-11" x="1666" y="677.6" width="22.4" height="4.2" transform="translate(997.5 2356.9) rotate(-90)"/><rect class="cls-11" x="1362.2" y="653.8" width="22.4" height="4.2" transform="translate(717.5 2029.3) rotate(-90)"/><rect class="cls-11" x="1474.2" y="652.4" width="22.4" height="4.2" transform="translate(830.9 2139.9) rotate(-90)"/><rect class="cls-11" x="1456.7" y="640.5" width="22.4" height="4.2"/><rect class="cls-11" x="1379.7" y="640.5" width="22.4" height="4.2"/><rect class="cls-11" x="1177.4" y="653.8" width="22.4" height="4.2" transform="translate(532.7 1844.5) rotate(-90)"/><rect class="cls-11" x="1124.2" y="653.8" width="22.4" height="4.2" transform="translate(479.5 1791.3) rotate(-90)"/><rect class="cls-11" x="569.1" y="774.9" width="21" height="4.2" transform="translate(-197.4 1356.6) rotate(-90)"/><rect class="cls-11" x="515.2" y="678.3" width="11.2" height="4.2"/><rect class="cls-11" x="569.1" y="800.1" width="21" height="4.2" transform="translate(-222.6 1381.8) rotate(-90)"/><rect class="cls-13" x="971.6" y="603.4" width="47.6" height="4.2" transform="translate(389.9 1600.9) rotate(-90)"/><rect class="cls-11" x="573.3" y="583.1" width="15.4" height="4.2" transform="translate(-4.2 1166.2) rotate(-90)"/><rect class="cls-11" x="573.3" y="619.5" width="15.4" height="4.2" transform="translate(-40.6 1202.6) rotate(-90)"/><rect class="cls-11" x="571.9" y="683.9" width="15.4" height="4.2" transform="translate(-106.4 1265.6) rotate(-90)"/><rect class="cls-11" x="571.9" y="702.1" width="15.4" height="4.2" transform="translate(-124.6 1283.8) rotate(-90)"/><rect class="cls-11" x="335.3" y="462.7" width="15.4" height="4.2" transform="translate(-121.8 807.8) rotate(-90)"/><rect class="cls-11" x="335.3" y="479.5" width="15.4" height="4.2" transform="translate(-138.6 824.6) rotate(-90)"/><rect class="cls-11" x="399.7" y="377.3" width="15.4" height="4.2" transform="translate(28 786.8) rotate(-90)"/><rect class="cls-11" x="480.9" y="314.3" width="15.4" height="4.2" transform="translate(172.2 805) rotate(-90)"/><rect class="cls-11" x="506.1" y="314.3" width="15.4" height="4.2" transform="translate(197.4 830.2) rotate(-90)"/><rect class="cls-11" x="489.3" y="290.5" width="12.6" height="4.2"/><rect class="cls-11" x="501.9" y="290.5" width="12.6" height="4.2"/><rect class="cls-11" x="235.9" y="294" width="12.6" height="4.2"/><rect class="cls-11" x="223.3" y="293.3" width="12.6" height="4.2"/><rect class="cls-11" x="245" y="365.4" width="12.6" height="4.2"/><rect class="cls-11" x="211.4" y="351.4" width="23.8" height="4.2" transform="matrix(0, -1, 1, 0, -130.2, 576.8)"/><rect class="cls-11" x="229.6" y="413" width="12.6" height="4.2"/><rect class="cls-11" x="257.6" y="420" width="12.6" height="4.2" transform="matrix(0, -1, 1, 0, -158.2, 686)"/><rect class="cls-11" x="287.7" y="364.7" width="12.6" height="4.2"/><rect class="cls-11" x="300.3" y="279.3" width="12.6" height="4.2"/><rect class="cls-11" x="186.9" y="413.7" width="12.6" height="4.2"/><rect class="cls-11" x="216.3" y="314.3" width="12.6" height="4.2" transform="matrix(0, -1, 1, 0, -93.8, 539)"/><rect class="cls-11" x="241.5" y="312.9" width="12.6" height="4.2" transform="matrix(0, -1, 1, 0, -67.2, 562.8)"/><rect class="cls-11" x="192.5" y="287.7" width="12.6" height="4.2" transform="matrix(0, -1, 1, 0, -91, 488.6)"/><rect class="cls-11" x="343.7" y="508.9" width="12.6" height="4.2"/><rect class="cls-13" x="368.9" y="451.5" width="23.8" height="4.2"/><rect class="cls-11" x="394.1" y="560.7" width="23.8" height="4.2"/><rect class="cls-13" x="1682.8" y="667.8" width="22.4" height="4.2"/><rect class="cls-11" x="1548.4" y="628.6" width="22.4" height="4.2" transform="translate(928.9 2190.3) rotate(-90)"/><rect class="cls-11" x="536" y="756" width="15" height="3" transform="translate(-214 1301) rotate(-90)"/><rect class="cls-14" x="541" y="756" width="5" height="3" transform="translate(-214 1301) rotate(-90)"/><rect class="cls-11" x="547" y="748" width="15" height="3"/><rect class="cls-14" x="552" y="748" width="5" height="3"/></g><g id="Clickable"><rect class="cls-15" x="608.3" y="562.1" width="25.2" height="106.4" transform="translate(1241.8 1230.6) rotate(180)"/><rect class="cls-16" x="633.5" y="562.1" width="25.2" height="106.4" transform="translate(1292.2 1230.6) rotate(180)"/><rect class="cls-17" x="644" y="606.9" width="2.8" height="27.07" transform="translate(1290.8 1240.87) rotate(180)"/><polygon class="cls-17" points="645.4 597.8 651 607.5 639.8 607.5 645.4 597.8"/><rect class="cls-18" x="620.2" y="599.2" width="2.8" height="27.07" transform="translate(1243.2 1225.47) rotate(180)"/><polygon class="cls-18" points="621.6 635.37 627.2 625.67 616 625.67 621.6 635.37"/><rect class="cls-15" x="1162.75" y="561.93" width="25.2" height="106.4"/><rect class="cls-16" x="1137.5" y="562.1" width="25.2" height="106.4"/><rect class="cls-17" x="1149.45" y="606.73" width="2.8" height="27.07"/><polygon class="cls-17" points="1150.85 597.63 1145.25 607.33 1156.45 607.33 1150.85 597.63"/><rect class="cls-18" x="1173.25" y="599.03" width="2.8" height="27.07"/><polygon class="cls-18" points="1174.65 635.19 1169.05 625.49 1180.25 625.49 1174.65 635.19"/><rect class="cls-16" x="1702.4" y="667.19" width="47.6" height="25.2"/><rect class="cls-17" x="1725.74" y="674.54" width="1.4" height="13.53"/><polygon class="cls-17" points="1726.44 669.99 1723.64 674.84 1729.24 674.84 1726.44 669.99"/><rect class="cls-15" x="690.92" y="389.2" width="51.76" height="70"/><rect class="cls-18" x="715.1" y="407.02" width="2.1" height="20.3"/><polygon class="cls-18" points="716.15 434.15 711.95 426.87 720.35 426.87 716.15 434.15"/><rect class="cls-19" x="550.2" y="818.3" width="36.4" height="37.8"/><rect x="1011.94" y="594.65" width="2.1" height="20.3" transform="translate(1617.79 -408.19) rotate(90)"/><polygon points="1029.96 604.8 1022.69 600.6 1022.69 609 1029.96 604.8"/><g class="cls-20"><polyline class="cls-21" points="1760.5 1097.66 1760.5 1100.5 1757.66 1100.5"/><line class="cls-22" x1="1743.54" y1="1100.5" x2="10.4" y2="1100.5"/><polyline class="cls-21" points="3.33 1100.5 0.5 1100.5 0.5 1097.66"/><line class="cls-23" x1="0.5" y1="1083.38" x2="0.5" y2="10.48"/><polyline class="cls-21" points="0.5 3.33 0.5 0.5 3.33 0.5"/><line class="cls-22" x1="17.46" y1="0.5" x2="1750.6" y2="0.5"/><polyline class="cls-21" points="1757.66 0.5 1760.5 0.5 1760.5 3.33"/><line class="cls-23" x1="1760.5" y1="17.62" x2="1760.5" y2="1090.52"/></g></g><g id="Legend"><rect class="cls-4" x="1102" y="125" width="30" height="30"/><rect class="cls-6" x="1100" y="165" width="30" height="30"/><rect class="cls-13" x="1100" y="58.5" width="30" height="3" transform="translate(1055 1175) rotate(-90)"/><rect class="cls-11" x="1100" y="98.5" width="30" height="3" transform="translate(1015 1215) rotate(-90)"/><rect class="cls-15" x="1400" y="125" width="30" height="30"/><rect class="cls-18" x="1413.73" y="130.55" width="1.55" height="14.97"/><polygon class="cls-18" points="1414.5 150.55 1411.4 145.19 1417.6 145.19 1414.5 150.55"/><rect class="cls-16" x="1400" y="85" width="30" height="30"/><rect class="cls-17" x="1414.76" y="95.32" width="1.55" height="14.97"/><polygon class="cls-17" points="1415.54 90.29 1412.44 95.66 1418.63 95.66 1415.54 90.29"/><text class="cls-24" transform="translate(1155 65.87)">External Door</text><text class="cls-24" transform="translate(1155 105.87)">Internal Door</text><text class="cls-24" transform="translate(1155 185.87)">Corridor</text><text class="cls-24" transform="translate(1157 145.87)">Class<tspan class="cls-25" x="49.63" y="0">r</tspan><tspan x="56.31" y="0">oom/office </tspan></text><text class="cls-24" transform="translate(1455 105.87)">Stairs up one floor</text><text class="cls-24" transform="translate(1455 145.87)">Stairs down one floor</text><rect class="cls-7" x="800" y="85" width="30" height="30"/><rect class="cls-7" x="800" y="125" width="30" height="30"/><rect class="cls-7" x="800" y="45" width="30" height="30"/><text class="cls-24" transform="translate(854.93 65.87)"><tspan class="cls-26">F</tspan><tspan x="10.78" y="0">emale Bath</tspan><tspan class="cls-25" x="111.75" y="0">r</tspan><tspan x="118.43" y="0">oom</tspan></text><text class="cls-24" transform="translate(853.68 105.87)">Male Bath<tspan class="cls-25" x="90.34" y="0">r</tspan><tspan x="97.02" y="0">oom</tspan></text><text class="cls-24" transform="translate(854.68 145.87)">Gender Neut<tspan class="cls-27" x="112.2" y="0">r</tspan><tspan x="118.94" y="0">al Bath</tspan><tspan class="cls-25" x="181.04" y="0">r</tspan><tspan x="187.71" y="0">oom</tspan></text><rect class="cls-7" x="800" y="165" width="30" height="30"/><text class="cls-24" transform="translate(854.68 185.87)">Accessible Bath<tspan class="cls-25" x="144" y="0">r</tspan><tspan x="150.68" y="0">oom</tspan></text><polygon class="cls-8" points="830 165 825 165 800 190 800 195 805 195 830 170 830 165"/><text class="cls-28" transform="translate(810.13 65.87)">F</text><text class="cls-28" transform="translate(806.96 105.87)">M</text><text class="cls-28" transform="translate(808.42 145.87)">N</text><text class="cls-24" transform="translate(1455 65.87)">Lift</text><polygon class="cls-19" points="1429.47 75 1400 74.5 1400.53 45 1430 45.5 1429.47 75"/><text class="cls-29" transform="matrix(1.04, 0.02, -0.02, 1, 1404.13, 64.71)">Li<tspan class="cls-30" x="10.59" y="0">f</tspan><tspan x="15.13" y="0">t</tspan></text></g><g id="Labels"><text class="cls-31" transform="translate(255.76 247.98)">2016</text><text class="cls-31" transform="translate(270.45 324.02)">2018</text><text class="cls-31" transform="translate(185.05 248.42)">2014</text><text class="cls-31" transform="translate(169.65 328.22)">2013</text><text class="cls-31" transform="translate(432.85 324.02)">2019</text><text class="cls-31" transform="translate(532.25 328.22)">2024</text><text class="cls-31" transform="translate(427.25 248.42)">2020</text><text class="cls-31" transform="translate(469.25 248.42)">2021</text><text class="cls-31" transform="translate(523.85 248.42)">2022</text><text class="cls-31" transform="translate(434.54 397.66)">2026<tspan x="0" y="20.16">Con</tspan><tspan class="cls-32" x="29.79" y="20.16">f</tspan><tspan x="35.42" y="20.16">e</tspan><tspan class="cls-33" x="44.32" y="20.16">r</tspan><tspan x="49.85" y="20.16">ence</tspan><tspan x="0" y="40.32">Room</tspan></text><text class="cls-31" transform="translate(276.05 411.77)">2011</text><text class="cls-31" transform="translate(169.65 389.37)">2011A</text><text class="cls-31" transform="translate(164.05 443.97)">2012A</text><text class="cls-31" transform="translate(235.96 625.93)">Douglas H<tspan class="cls-34" x="77.3" y="0">y</tspan><tspan x="85.14" y="0">de</tspan><tspan x="26.05" y="20.16">Galle</tspan><tspan class="cls-35" x="63.69" y="20.16">r</tspan><tspan x="69.52" y="20.16">y</tspan></text><text class="cls-31" transform="translate(721.02 366.86)">The <tspan class="cls-36" x="32.34" y="0">P</tspan><tspan x="42.83" y="0">e</tspan><tspan class="cls-37" x="51.73" y="0">r</tspan><tspan x="57.26" y="0">ch Ca</tspan><tspan class="cls-38" x="99.54" y="0">f</tspan><tspan x="105.17" y="0">e</tspan></text><text class="cls-31" transform="translate(1033.92 599.65)">Lecky<tspan x="0" y="20.16">Lib</tspan><tspan class="cls-39" x="22.54" y="20.16">r</tspan><tspan x="27.9" y="20.16">a</tspan><tspan class="cls-35" x="37.04" y="20.16">r</tspan><tspan x="42.87" y="20.16">y</tspan></text><text class="cls-31" transform="translate(1315.33 626.08)">2051</text><text class="cls-31" transform="translate(1382.53 617.68)">2052</text><text class="cls-31" transform="translate(1439.93 617.68)">2053</text><text class="cls-31" transform="translate(1508.53 620.48)">2054</text><text class="cls-31" transform="translate(1586.93 647.08)">2056</text><text class="cls-31" transform="translate(1512.85 852.66)">Thomas D<tspan class="cls-40" x="76.56" y="0">a</tspan><tspan x="85.58" y="0">vis</tspan><tspan x="24.61" y="20.16">Theat</tspan><tspan class="cls-33" x="67.41" y="20.16">r</tspan><tspan x="72.94" y="20.16">e</tspan></text><text class="cls-31" transform="translate(1337.54 938.01)"><tspan class="cls-41">T</tspan><tspan x="9.21" y="0">eatar</tspan><tspan x="-32.68" y="20.16">M. Ui Chadhain</tspan></text><text class="cls-31" transform="translate(1180.1 938)">Jonathan Swift<tspan x="27.66" y="20.16">Theat</tspan><tspan class="cls-33" x="70.46" y="20.16">r</tspan><tspan x="75.99" y="20.16">e</tspan></text><text class="cls-31" transform="translate(987.28 852.6)">J. M. Synge<tspan x="14.69" y="20.16">Theat</tspan><tspan class="cls-33" x="57.49" y="20.16">r</tspan><tspan x="63.02" y="20.16">e</tspan></text><text class="cls-31" transform="translate(723.19 784)">Robe<tspan class="cls-42" x="38.25" y="0">r</tspan><tspan x="44.35" y="0">t Emmet</tspan><tspan x="25.07" y="20.16">Theat</tspan><tspan class="cls-33" x="67.88" y="20.16">r</tspan><tspan x="73.41" y="20.16">e</tspan></text><text class="cls-31" transform="translate(536.31 615.98)">2028</text><text class="cls-31" transform="translate(526.51 657.98)">2029</text><text class="cls-31" transform="translate(502.71 704.18)">2030</text><text class="cls-31" transform="translate(543.31 712.58)">2031</text><text class="cls-43" transform="translate(543.31 740.5)">2032B</text><text class="cls-31" transform="translate(511.11 783.98)">2032</text><text class="cls-43" transform="translate(556.82 841.31)">Lift</text><rect class="cls-19" x="761.09" y="490.28" width="31.83" height="33.05" transform="translate(8.96 -13.48) rotate(1)"/><text class="cls-44" transform="translate(768.1 509.85) rotate(1)">Lift</text></g></svg>