<svg xmlns="http://www.w3.org/2000/svg" width="1760" height="1100" viewBox="0 0 1760 1100"><defs><style>.cls-1{fill:#00aeef;}.cls-2{fill:#ffe594;}.cls-3{fill:#fbb03b;}.cls-4{fill:#f0f;}.cls-5{fill:#a9a9a8;}.cls-6{fill:#ff0;}.cls-30,.cls-31,.cls-32,.cls-7{fill:none;}.cls-10,.cls-14,.cls-17,.cls-7,.cls-8,.cls-9{stroke:#fbb03b;}.cls-10,.cls-13,.cls-14,.cls-17,.cls-30,.cls-31,.cls-32,.cls-7,.cls-8,.cls-9{stroke-miterlimit:10;}.cls-16,.cls-8{fill:#fce588;}.cls-9{fill:#b03b3f;}.cls-10{fill:#3fa9f5;}.cls-11,.cls-17{fill:blue;}.cls-12{fill:#ff1d25;}.cls-13{fill:#8cc63f;stroke:#009245;}.cls-14{fill:#c1272d;}.cls-15{fill:red;}.cls-18,.cls-22{font-size:20px;}.cls-18{font-family:Roboto-Medium, Roboto;font-weight:500;}.cls-19{letter-spacing:-0.02em;}.cls-20{letter-spacing:-0.01em;}.cls-21{letter-spacing:-0.01em;}.cls-22,.cls-23{font-family:MyriadPro-Regular, Myriad Pro;}.cls-23{font-size:15px;}.cls-24{letter-spacing:0.01em;}.cls-25,.cls-26{font-size:16.8px;font-family:Roboto-Regular, Roboto;}.cls-26{fill:#fff;}.cls-27{letter-spacing:-0.01em;}.cls-28{letter-spacing:0em;}.cls-29{opacity:0.1;}.cls-30,.cls-31,.cls-32{stroke:#000;stroke-width:2.83px;}.cls-31{stroke-dasharray:5.65 14.13;}.cls-32{stroke-dasharray:5.71 14.29;}</style></defs><g id="Colouring_in" data-name="Colouring in"><polygon class="cls-1" points="417 721.2 579.4 721.2 579.4 781.4 548.6 781.4 548.6 815 530.4 815 498.2 784.2 498.2 810.8 440.8 810.8 415.6 789.8 415.6 782.8 417 782.8 417 721.2"/><polygon class="cls-2" points="1712 721.2 1674.2 722.6 1674.2 854.2 1416.6 854.2 1416.6 830.4 1636.4 830.4 1636.4 724 1636.4 715.6 1712 715.6 1712 721.2"/><polygon class="cls-2" points="1416.6 915.8 1416.6 830.4 1476.8 830.4 1476.8 724 1712 724 1712 693.9 1702.2 693.9 1702.2 642.8 1686.8 642.8 1677 651.2 1675.6 693.2 1567.8 693.2 1567.8 451 1542.6 451 1542.6 570 1537 571.4 1537 693.2 1314.4 694.6 1314.4 568.6 1308.8 568.6 1308.8 452.4 1285 452.4 1285 614.8 1278 614.8 1278 694.6 1212.2 694.6 1212.2 607.8 1112.8 607.8 1112.8 694.6 1047 694.6 1047 614.8 1042.8 614.8 1042.8 451 1019 451 1019 568.6 1013.4 568.6 1013.4 694.6 782.4 694.6 782.4 568.6 776.8 568.6 776.8 451 753 451 753 613.4 746 613.4 746 664.5 718.7 664.78 718.56 693.2 680.2 693.2 678.8 605 583.6 607.8 583.6 693.2 519.2 693.2 519.2 616.2 512.2 616.2 512.2 451 489.8 451 489.8 568.6 482.8 568.6 482.8 693.2 258.8 693.2 258.8 588.2 253.2 588.2 253.2 451 229.4 451 229.4 694.6 159.4 694.6 159.4 732.4 212.6 732.4 235 759 235 729.6 340 731 384.8 784.2 415.6 782.8 415.6 721.2 579.4 721.2 579.4 781.4 550 781.4 547.2 782.8 547.2 855.6 579.4 855.6 579.4 812.2 629.8 812.2 664.8 847.2 680.2 848.6 678.8 742.2 659.2 740.8 659.2 721.2 862.2 722.6 862.2 740.8 844 740.8 844 789.8 895.8 789.8 908.4 801 908.4 855.6 949 855.6 950.4 805.2 937.8 805.2 936.4 752 953.2 752 954.6 721.2 1108.6 722.6 1110 749.2 1122.6 749.2 1122.6 824.8 1138 826.2 1138 893.4 1213.6 893.4 1213.6 722.6 1373.2 722.6 1373.2 915.8 1416.6 915.8"/><rect class="cls-3" x="937.8" y="752" width="15.4" height="29.4"/><rect class="cls-3" x="1108.6" y="749.2" width="14" height="54.6"/><rect class="cls-3" x="657.8" y="722.6" width="22.4" height="18.2"/><rect class="cls-3" x="1374.6" y="914.4" width="15.4" height="18.2"/><polygon class="cls-4" points="519.2 693.2 519.2 642.8 583.6 642.8 582.2 693.2 519.2 693.2"/><rect class="cls-4" x="1048.4" y="642.8" width="64.4" height="50.4"/><rect class="cls-4" x="1212.2" y="641.4" width="64.4" height="51.8"/><polygon class="cls-5" points="159.4 451 159.4 693.2 229.4 694.6 229.4 451 159.4 451"/><polygon class="cls-5" points="253.2 451 324.6 451 326 563 415.6 563 415.6 451 489.8 451 489.8 568.6 480 568.6 482.8 693.2 258.8 693.2 257.4 588.2 253.2 588.2 253.2 451"/><polygon class="cls-5" points="512.2 451 586.4 451 587.1 607.7 583.6 607.8 583.6 642.8 519.2 642.8 519.2 616.2 512.2 616.2 512.2 451"/><polyline class="cls-5" points="678.8 451 680.2 451 751.6 451 753 613.4 744.6 613.4 744.6 642.8 680.2 644.2"/><polyline class="cls-5" points="775.4 451.7 776.8 568.6 782.4 568.6 782.4 694.6 836.3 694.6 1013.4 694.6 1013.4 568.6 1019 568.6 1019 451 949 451 950.4 564.4 846.8 563 846.8 451 775.4 451.7"/><polygon class="cls-5" points="1042.8 451 1111.4 451 1112.8 642.8 1048.4 642.8 1048.4 614.42 1042.8 614.8 1042.8 451"/><polygon class="cls-5" points="1213.6 451 1285 451 1285 614.8 1276.6 614.8 1276.6 641.4 1212.2 641.4 1213.6 451"/><polygon class="cls-5" points="1308.8 452.4 1381.6 451 1381.6 564.4 1474 564.4 1474 451 1542.6 451 1542.6 570 1538.4 570 1537 694 1314.4 694.6 1313 568.6 1308.8 568.6 1308.8 452.4"/><polygon class="cls-5" points="1567.8 451 1639.2 451 1639.9 693.2 1567.8 693.2 1567.8 451"/><polygon class="cls-5" points="1476.8 724 1636.4 724 1636.4 828.3 1476.8 830.4 1476.8 724"/><polygon class="cls-5" points="1674.2 722.6 1712 722.6 1712 740.8 1723.2 753.4 1723.2 854.2 1699.4 854.2 1699.4 901.8 1668.6 927 1635 927 1635 963.4 1581.8 963.4 1559.4 935.4 1559.4 963.4 1502 963.4 1476.8 935.4 1451.6 935.4 1451.6 963.4 1411 1006.8 1373.2 1006.8 1373.2 1037.6 1314.4 1037.6 1292 1008.2 1292 1039 1233.2 1039 1209.4 1009.6 1209.4 969 1195.4 969 1166 934 1108.6 934 1108.6 959.2 974.2 959.2 950.4 934 950.4 925.6 918.2 925.6 876.2 883.6 876.2 857 838.4 857 838.4 885 790.8 885 767 859.8 768.4 887.8 708.2 887.8 677.4 862.6 676.7 848.28 680.2 848.6 680.2 722.6 845.4 722.6 844 791.2 897.2 791.2 908.4 801 908.4 857 949 857 950.4 805.2 953.2 805.2 953.2 752 954.6 722.6 1108.6 722.6 1110 749.2 1122.6 749.2 1122.6 824.8 1136.6 826.2 1138 893.4 1213.6 893.4 1213.6 722.6 1373.2 722.6 1373.2 915.8 1416.6 915.8 1416.6 854.2 1674.2 854.2 1674.2 722.6"/><rect class="cls-3" x="844" y="722.6" width="18.2" height="18.2"/><rect class="cls-5" x="937.8" y="781.4" width="15.4" height="22.4"/><polyline class="cls-2" points="42.15 637.9 109.35 636.5 121.95 654.7 121.95 691.1 159.75 691.1 159.46 725.16 119.15 724.7 89.75 699.5 89.75 688.3 42.15 688.3"/><rect class="cls-5" x="719.4" y="642.8" width="25.2" height="22.4"/><rect class="cls-4" x="678.8" y="642.8" width="40.6" height="51.8"/><polygon class="cls-6" points="719.4 642.8 712.63 642.8 678.8 685.97 678.8 694.6 685.57 694.6 719.4 651.43 719.4 642.8"/></g><g id="Tracing"><polygon class="cls-7" points="160.1 733.1 160.1 451.7 325.3 451.7 325.3 563.7 416.3 563.7 416.3 451.7 587.1 451.7 587.1 605.7 679.5 605.7 679.5 451.7 847.5 451.7 847.5 563.7 949.7 563.7 949.7 451.7 1112.1 451.7 1112.1 608.5 1212.9 608.5 1212.9 451.7 1380.9 451.7 1380.9 563.7 1473.3 563.7 1473.3 451.7 1639.9 451.7 1639.9 693.9 1676.3 693.9 1676.3 651.9 1686.1 642.1 1749.1 642.1 1749.1 693.9 1711.88 693.46 1711.3 741.5 1723.9 752.7 1723.9 853.5 1698.7 853.5 1698.7 902.5 1667.9 927.7 1634.3 927.7 1634.3 964.1 1581.1 964.1 1558.7 934.7 1558.7 962.7 1501.3 962.7 1477.5 934.7 1450.9 934.7 1450.9 964.1 1410.3 1007.5 1372.5 1007.5 1372.5 1038.3 1313.7 1038.3 1291.3 1008.9 1291.3 1039.7 1232.5 1039.7 1210.1 1010.3 1210.1 969.7 1194.7 969.7 1165.3 933.3 1109.3 933.3 1109.3 959.9 974.9 959.9 949.7 934.7 949.7 926.3 918.9 926.3 876.9 884.3 876.9 857.7 839.1 857.7 839.1 885.7 791.5 885.7 767.7 860.5 767.7 887.1 708.9 887.1 676.7 860.5 676.7 847.9 664.1 847.9 629.1 811.5 578.7 811.5 578.7 854.9 547.9 854.9 547.9 815.7 529.7 815.7 498.9 783.5 498.9 811.5 440.1 811.5 414.9 790.5 414.9 783.5 382.7 783.5 340.7 730.3 234.3 730.3 234.3 758.3 211.9 731.7 160.1 733.1"/><polyline class="cls-7" points="608.1 607.1 582.9 607.1 582.9 693.9 518.5 693.9 518.5 616.9 511.69 616.9 511.69 451.7 489.1 451.7 489.1 569.3 482.1 569.3 482.1 693.9 258.1 693.9 258.1 588.9 252.5 588.9 252.74 451.7 228.7 451.7 228.7 693.9 160.1 693.9"/><polyline class="cls-7" points="745.3 644.2 745.3 614.1 752.3 614.1 752.3 451.7 776.21 451.7 776.21 569.3 781.7 569.3 781.7 693.9 1014.1 693.9 1014.1 569.3 1019.7 569.3 1019.7 451.7 1042.8 451.7 1042.8 614.1 1047.7 614.1 1047.7 693.9 1113.5 693.9 1113.5 608.5"/><polyline class="cls-7" points="1212.9 608.5 1212.9 693.9 1277.3 693.9 1277.3 614.1 1284.3 614.1 1284.3 451.7 1308.25 451.7 1308.25 569.3 1313.7 569.3 1313.7 693.9 1537.7 693.9 1537.7 570.7 1543.3 570.7 1543.3 451.7 1567.63 451.7 1567.63 693.9 1639.9 693.9"/><polyline class="cls-7" points="1711.53 721.99 1673.5 721.9 1673.5 854.9 1415.9 853.5 1415.9 915.1 1372.5 915.1 1372.5 721.9 1212.9 721.9 1212.9 892.7 1137.3 892.7 1137.3 825.5 1121.9 825.5 1121.9 748.5 1109.3 748.5 1109.3 721.9 953.9 721.9 953.9 751.3 937.1 751.3 937.1 804.5 949.7 804.5 949.7 856.3 909.1 856.3 909.1 801.7 896.5 790.5 844.7 790.5 844.7 741.5 861.5 741.5 861.5 721.9 658.5 721.9 658.5 741.5 679.5 741.5 679.5 847.9 673.49 847.9"/><polyline class="cls-7" points="417 721.2 417 782.8 414.9 783.5 416.3 783.5 416.3 721.9 578.7 721.9 578.7 782.1 547.9 782.1 547.9 815.7"/><polygon class="cls-7" points="1477.5 723.3 1477.5 829.7 1635.7 828.3 1635.7 723.3 1477.5 723.3"/><line class="cls-7" x1="1555.9" y1="829.7" x2="1555.9" y2="723.3"/><line class="cls-7" x1="1477.5" y1="763.52" x2="1555.9" y2="763.52"/><line class="cls-7" x1="1555.9" y1="790.5" x2="1634.3" y2="790.5"/><line class="cls-7" x1="1673.5" y1="792.63" x2="1723.9" y2="792.63"/><line class="cls-7" x1="1698.7" y1="853.5" x2="1673.5" y2="853.5"/><line class="cls-7" x1="1634.3" y1="927.7" x2="1634.3" y2="854.69"/><line class="cls-7" x1="1558.7" y1="935.8" x2="1558.7" y2="854.69"/><line class="cls-7" x1="1477.5" y1="936.1" x2="1477.5" y2="853.83"/><polyline class="cls-7" points="1450.9 935.8 1450.9 913.7 1415.9 913.7"/><polyline class="cls-7" points="1210.87 892.7 1210.87 933.3 1389.3 933.3 1389.3 915.1 1374.16 915.1 1373.9 933.3"/><polyline class="cls-7" points="1210.1 971.11 1210.1 955.7 1238.1 955.7 1238.1 982.3 1373.9 980.9 1373.9 1007.5"/><line class="cls-7" x1="1292" y1="933.3" x2="1292" y2="981.74"/><line class="cls-7" x1="1238.26" y1="933.3" x2="1238.1" y2="955.7"/><line class="cls-7" x1="1212.9" y1="839.07" x2="1372.5" y2="839.07"/><line class="cls-7" x1="1292" y1="721.9" x2="1292" y2="839.07"/><line class="cls-7" x1="1136.29" y1="933.3" x2="1135.9" y2="892.7"/><line class="cls-7" x1="1121.9" y1="805.04" x2="949.7" y2="804.5"/><line class="cls-7" x1="949.7" y1="926.3" x2="949.7" y2="856.3"/><line class="cls-7" x1="909.1" y1="856.3" x2="876.9" y2="857.7"/><line class="cls-7" x1="845.12" y1="857.7" x2="844.7" y2="790.5"/><line class="cls-7" x1="767.7" y1="862.5" x2="767.7" y2="721.9"/><line class="cls-7" x1="844.7" y1="768.12" x2="767.7" y2="768.12"/><line class="cls-7" x1="160.1" y1="655.12" x2="228.7" y2="655.12"/><line class="cls-7" x1="228.7" y1="615.96" x2="160.1" y2="615.96"/><line class="cls-7" x1="228.7" y1="568.45" x2="160.1" y2="568.45"/><line class="cls-7" x1="228.7" y1="531.85" x2="160.1" y2="531.85"/><line class="cls-7" x1="228.7" y1="493.33" x2="160.1" y2="493.33"/><line class="cls-7" x1="252.66" y1="493.33" x2="325.3" y2="493.33"/><line class="cls-7" x1="325.3" y1="531.85" x2="252.66" y2="531.85"/><polyline class="cls-7" points="252.66 568.45 325.3 567.9 325.3 560.42"/><line class="cls-7" x1="316.73" y1="693.9" x2="316.73" y2="568.45"/><line class="cls-7" x1="258.1" y1="626.55" x2="316.73" y2="626.55"/><line class="cls-7" x1="371.3" y1="693.9" x2="370.1" y2="565.1"/><polyline class="cls-7" points="316.73 639.39 424.7 639.3 423.3 565.1 414.9 563.7"/><line class="cls-7" x1="424.7" y1="693.9" x2="424.7" y2="639.3"/><line class="cls-7" x1="482.1" y1="627.34" x2="424.7" y2="627.34"/><line class="cls-7" x1="482.1" y1="567.9" x2="423.36" y2="568.45"/><line class="cls-7" x1="489.1" y1="531.85" x2="416.3" y2="531.85"/><line class="cls-7" x1="489.1" y1="493.33" x2="416.3" y2="493.33"/><line class="cls-7" x1="511.69" y1="493.33" x2="587.1" y2="493.33"/><line class="cls-7" x1="511.69" y1="531.85" x2="587.1" y2="531.5"/><line class="cls-7" x1="511.69" y1="568.45" x2="587.1" y2="568.45"/><line class="cls-7" x1="518.5" y1="616.9" x2="582.9" y2="616.37"/><line class="cls-7" x1="518.5" y1="643.25" x2="582.9" y2="643.25"/><line class="cls-7" x1="543.37" y1="616.7" x2="543.37" y2="643.25"/><polyline class="cls-7" points="679.5 643.25 720.57 643.25 745.3 643.25 745.3 614.1 720.57 613.99 679.5 613.81"/><line class="cls-7" x1="752.3" y1="568.45" x2="679.5" y2="568.45"/><line class="cls-7" x1="720.1" y1="643.5" x2="720.1" y2="614.1"/><line class="cls-7" x1="679.5" y1="531.85" x2="752.3" y2="531.5"/><polyline class="cls-7" points="752.3 493.33 679.5 493.33 776.21 493.33 847.5 493.33"/><line class="cls-7" x1="776.21" y1="531.85" x2="847.5" y2="531.85"/><polyline class="cls-7" points="781.7 567.9 847.5 567.9 847.5 561.07"/><polyline class="cls-7" points="781.7 627.34 836.3 626.7 836.3 693.9 836.3 568.45"/><line class="cls-7" x1="898.2" y1="693.9" x2="898.2" y2="564.48"/><polyline class="cls-7" points="952.56 693.9 952.5 563.7 949.7 563.7"/><line class="cls-7" x1="1014.1" y1="567.9" x2="952.5" y2="568.45"/><line class="cls-7" x1="951.1" y1="640.7" x2="836.3" y2="640.7"/><line class="cls-7" x1="1014.1" y1="627.17" x2="952.5" y2="627.34"/><line class="cls-7" x1="1019.7" y1="531.85" x2="949.7" y2="531.85"/><line class="cls-7" x1="1019.7" y1="493.33" x2="949.7" y2="493.33"/><line class="cls-7" x1="1042.8" y1="494.72" x2="1112.1" y2="493.33"/><line class="cls-7" x1="1042.8" y1="531.5" x2="1112.1" y2="531.5"/><line class="cls-7" x1="1042.8" y1="568.45" x2="1113.5" y2="567.9"/><line class="cls-7" x1="1047.7" y1="614.1" x2="1113.5" y2="613.63"/><line class="cls-7" x1="1047.7" y1="643.25" x2="1113.5" y2="643.25"/><line class="cls-7" x1="1072.9" y1="614.1" x2="1072.9" y2="643.5"/><line class="cls-7" x1="1277.3" y1="640.7" x2="1212.9" y2="640.7"/><line class="cls-7" x1="1277.3" y1="614.1" x2="1212.9" y2="614.1"/><line class="cls-7" x1="1253.03" y1="640.7" x2="1253.03" y2="614.1"/><line class="cls-7" x1="1284.3" y1="568.45" x2="1212.9" y2="568.45"/><line class="cls-7" x1="1284.3" y1="531.85" x2="1212.9" y2="531.85"/><line class="cls-7" x1="1284.3" y1="494.03" x2="1212.9" y2="494.03"/><line class="cls-7" x1="1308.25" y1="493.33" x2="1380.9" y2="493.33"/><line class="cls-7" x1="1308.25" y1="531.85" x2="1380.9" y2="531.85"/><polyline class="cls-7" points="1313.7 567.9 1380.9 567.9 1380.9 561.07"/><line class="cls-7" x1="1371.17" y1="693.9" x2="1371.17" y2="568.45"/><line class="cls-7" x1="1313.7" y1="627.17" x2="1371.17" y2="626.57"/><line class="cls-7" x1="1426.4" y1="693.9" x2="1426.4" y2="564.48"/><line class="cls-7" x1="1473.3" y1="563.7" x2="1543.3" y2="563.7"/><line class="cls-7" x1="1479.89" y1="693.9" x2="1479.89" y2="564.48"/><line class="cls-7" x1="1537.7" y1="626.87" x2="1479.89" y2="626.57"/><line class="cls-7" x1="1479.89" y1="640.7" x2="1371.17" y2="640.7"/><line class="cls-7" x1="1543.3" y1="531.5" x2="1473.3" y2="531.85"/><line class="cls-7" x1="1543.3" y1="494.03" x2="1473.3" y2="493.33"/><line class="cls-7" x1="1567.63" y1="493.33" x2="1639.9" y2="493.33"/><line class="cls-7" x1="1567.63" y1="531.85" x2="1639.9" y2="531.85"/><line class="cls-7" x1="1567.63" y1="568.45" x2="1639.9" y2="568.45"/><line class="cls-7" x1="1567.63" y1="616.37" x2="1639.9" y2="616.2"/><line class="cls-7" x1="1567.63" y1="655.23" x2="1639.9" y2="655.23"/><polyline class="cls-7" points="159.75 691.14 121.25 691.8 121.25 655.4 108.65 637.2 42.85 637.2 42.85 687.6 90.45 687.6 90.45 698.8 118.45 725.4 159.75 725.4"/><polyline class="cls-7" points="679.5 693.9 679.5 644.2 679.5 605.7"/><polyline class="cls-7" points="745.3 643.5 745.3 677.1 734.1 693.9"/><polyline class="cls-7" points="679.5 693.9 718.7 693.9 718.7 643.36"/><line class="cls-7" x1="745.3" y1="664.5" x2="718.7" y2="664.5"/></g><g id="Doors"><rect class="cls-8" x="1665.8" y="766" width="14" height="4.2" transform="translate(904.7 2440.9) rotate(-90)"/><rect class="cls-8" x="1469.8" y="735.2" width="14" height="4.2" transform="translate(739.5 2214.1) rotate(-90)"/><rect class="cls-8" x="1540.5" y="828.3" width="14" height="4.2"/><rect class="cls-8" x="1665.8" y="834.6" width="14" height="4.2" transform="translate(836.1 2509.5) rotate(-90)"/><rect class="cls-8" x="1616.1" y="826.9" width="14" height="4.2"/><rect class="cls-8" x="1599.3" y="787.7" width="14" height="4.2"/><rect class="cls-8" x="1648.3" y="853.5" width="14" height="4.2"/><rect class="cls-8" x="1613.3" y="852.1" width="14" height="4.2"/><rect class="cls-8" x="1543.3" y="852.1" width="14" height="4.2"/><rect class="cls-8" x="1396.3" y="912.3" width="14" height="4.2"/><rect class="cls-8" x="1364.8" y="903.2" width="14" height="4.2" transform="translate(466.5 2277.1) rotate(-90)"/><rect class="cls-8" x="1444.6" y="921.4" width="14" height="4.2" transform="translate(528.1 2375.1) rotate(-90)"/><rect class="cls-8" x="1366.2" y="824.8" width="14" height="4.2" transform="translate(546.3 2200.1) rotate(-90)"/><rect class="cls-8" x="1352.9" y="979.5" width="14" height="4.2"/><rect class="cls-8" x="1221.3" y="952.9" width="14" height="4.2"/><rect class="cls-8" x="1159.7" y="889.9" width="14" height="4.2"/><rect class="cls-8" x="1206.6" y="873.8" width="14" height="4.2" transform="translate(337.7 2089.5) rotate(-90)"/><rect class="cls-8" x="1205.2" y="824.8" width="14" height="4.2" transform="translate(385.3 2039.1) rotate(-90)"/><rect class="cls-8" x="1114.2" y="813.6" width="14" height="4.2" transform="translate(305.5 1936.9) rotate(-90)"/><rect class="cls-8" x="943.4" y="813.6" width="14" height="4.2" transform="translate(134.7 1766.1) rotate(-90)"/><rect class="cls-8" x="928" y="788.4" width="14" height="4.2" transform="translate(144.5 1725.5) rotate(-90)"/><rect class="cls-8" x="1114.2" y="788.4" width="14" height="4.2" transform="translate(330.7 1911.7) rotate(-90)"/><rect class="cls-8" x="902.8" y="843" width="14" height="4.2" transform="translate(64.7 1754.9) rotate(-90)"/><rect class="cls-8" x="838.4" y="775.8" width="14" height="4.2" transform="translate(67.5 1623.3) rotate(-90)"/><rect class="cls-8" x="838.4" y="752" width="14" height="4.2" transform="translate(91.3 1599.5) rotate(-90)"/><rect class="cls-8" x="671.8" y="775.8" width="14" height="4.2" transform="translate(-99.1 1456.7) rotate(-90)"/><rect class="cls-8" x="886.7" y="852.1" width="14" height="4.2"/><rect class="cls-8" x="868.5" y="691.1" width="14" height="4.2"/><rect class="cls-8" x="911.9" y="691.1" width="14" height="4.2"/><rect class="cls-8" x="935.7" y="637.9" width="14" height="4.2"/><rect class="cls-8" x="846.1" y="637.9" width="14" height="4.2"/><rect class="cls-8" x="774" y="635.8" width="14" height="4.2" transform="matrix(0, -1, 1, 0, 143.1, 1418.9)"/><rect class="cls-8" x="774" y="578.4" width="14" height="4.2" transform="matrix(0, -1, 1, 0, 200.5, 1361.5)"/><rect class="cls-8" x="768.4" y="537.8" width="14" height="4.2" transform="matrix(0, -1, 1, 0, 235.5, 1315.3)"/><rect class="cls-8" x="768.4" y="521" width="14" height="4.2" transform="matrix(0, -1, 1, 0, 252.3, 1298.5)"/><rect class="cls-8" x="768.4" y="456.6" width="14" height="4.2" transform="matrix(0, -1, 1, 0, 316.7, 1234.1)"/><rect class="cls-8" x="744.6" y="456.6" width="14" height="4.2" transform="matrix(0, -1, 1, 0, 292.9, 1210.3)"/><rect class="cls-8" x="744.6" y="521" width="14" height="4.2" transform="matrix(0, -1, 1, 0, 228.5, 1274.7)"/><rect class="cls-8" x="744.6" y="537.8" width="14" height="4.2" transform="matrix(0, -1, 1, 0, 211.7, 1291.5)"/><rect class="cls-8" x="746" y="578.4" width="14" height="4.2" transform="matrix(0, -1, 1, 0, 172.5, 1333.5)"/><rect class="cls-8" x="737.6" y="619" width="14" height="4.2" transform="matrix(0, -1, 1, 0, 123.5, 1365.7)"/><rect class="cls-8" x="671.8" y="633" width="14" height="4.2" transform="matrix(0, -1, 1, 0, 43.7, 1313.9)"/><rect class="cls-8" x="1006.4" y="637.2" width="14" height="4.2" transform="matrix(0, -1, 1, 0, 374.1, 1652.7)"/><rect class="cls-8" x="1006.34" y="579.1" width="14" height="4.2" transform="matrix(0, -1, 1, 0, 432.14, 1594.54)"/><rect class="cls-8" x="1036.5" y="579.1" width="14" height="4.2" transform="matrix(0, -1, 1, 0, 462.3, 1624.7)"/><rect class="cls-8" x="1041.4" y="619" width="14" height="4.2" transform="matrix(0, -1, 1, 0, 427.3, 1669.5)"/><rect class="cls-8" x="1105.8" y="633" width="14" height="4.2" transform="matrix(0, -1, 1, 0, 477.7, 1747.9)"/><rect class="cls-8" x="1105.8" y="682" width="14" height="4.2" transform="matrix(0, -1, 1, 0, 428.7, 1796.9)"/><rect class="cls-8" x="1013.4" y="537.8" width="14" height="4.2" transform="matrix(0, -1, 1, 0, 480.5, 1560.3)"/><rect class="cls-8" x="1035.8" y="537.8" width="14" height="4.2" transform="matrix(0, -1, 1, 0, 502.9, 1582.7)"/><rect class="cls-8" x="1013.4" y="521" width="14" height="4.2" transform="matrix(0, -1, 1, 0, 497.3, 1543.5)"/><rect class="cls-8" x="1035.8" y="521" width="14" height="4.2" transform="matrix(0, -1, 1, 0, 519.7, 1565.9)"/><rect class="cls-8" x="1012" y="458" width="14" height="4.2" transform="matrix(0, -1, 1, 0, 558.9, 1479.1)"/><rect class="cls-8" x="1035.8" y="458" width="14" height="4.2" transform="matrix(0, -1, 1, 0, 582.7, 1502.9)"/><rect class="cls-8" x="1206.6" y="630.2" width="14" height="4.2" transform="matrix(0, -1, 1, 0, 581.3, 1845.9)"/><rect class="cls-8" x="1205.2" y="683.4" width="14" height="4.2" transform="matrix(0, -1, 1, 0, 526.7, 1897.7)"/><rect class="cls-8" x="1269.6" y="621.8" width="14" height="4.2" transform="matrix(0, -1, 1, 0, 652.7, 1900.5)"/><rect class="cls-8" x="1306" y="637.2" width="14" height="4.2" transform="matrix(0, -1, 1, 0, 673.7, 1952.3)"/><rect class="cls-8" x="1306" y="579.8" width="14" height="4.2" transform="matrix(0, -1, 1, 0, 731.1, 1894.9)"/><rect class="cls-8" x="1276.6" y="579.8" width="14" height="4.2" transform="matrix(0, -1, 1, 0, 701.7, 1865.5)"/><rect class="cls-8" x="1276.6" y="537.8" width="14" height="4.2" transform="matrix(0, -1, 1, 0, 743.7, 1823.5)"/><rect class="cls-8" x="1301.8" y="537.8" width="14" height="4.2" transform="matrix(0, -1, 1, 0, 768.9, 1848.7)"/><rect class="cls-8" x="1276.6" y="519.6" width="14" height="4.2" transform="matrix(0, -1, 1, 0, 761.9, 1805.3)"/><rect class="cls-8" x="1301.8" y="521" width="14" height="4.2" transform="matrix(0, -1, 1, 0, 785.7, 1831.9)"/><rect class="cls-8" x="1276.6" y="458" width="14" height="4.2" transform="matrix(0, -1, 1, 0, 823.5, 1743.7)"/><rect class="cls-8" x="1301.8" y="458" width="14" height="4.2" transform="matrix(0, -1, 1, 0, 848.7, 1768.9)"/><rect class="cls-8" x="1530" y="635.8" width="14" height="4.2" transform="matrix(0, -1, 1, 0, 899.1, 2174.9)"/><rect class="cls-8" x="1531.4" y="579.8" width="14" height="4.2" transform="matrix(0, -1, 1, 0, 956.5, 2120.3)"/><rect class="cls-8" x="1535.6" y="537.8" width="14" height="4.2" transform="matrix(0, -1, 1, 0, 1002.7, 2082.5)"/><rect class="cls-8" x="1535.6" y="519.6" width="14" height="4.2" transform="matrix(0, -1, 1, 0, 1020.9, 2064.3)"/><rect class="cls-8" x="1535.6" y="458" width="14" height="4.2" transform="matrix(0, -1, 1, 0, 1082.5, 2002.7)"/><rect class="cls-8" x="1560.8" y="458" width="14" height="4.2" transform="matrix(0, -1, 1, 0, 1107.7, 2027.9)"/><rect class="cls-8" x="1560.8" y="519.6" width="14" height="4.2" transform="matrix(0, -1, 1, 0, 1046.1, 2089.5)"/><rect class="cls-8" x="1560.8" y="537.8" width="14" height="4.2" transform="matrix(0, -1, 1, 0, 1027.9, 2107.7)"/><rect class="cls-8" x="1560.8" y="579.8" width="14" height="4.2" transform="matrix(0, -1, 1, 0, 985.9, 2149.7)"/><rect class="cls-8" x="1560.8" y="644.2" width="14" height="4.2" transform="matrix(0, -1, 1, 0, 921.5, 2214.1)"/><rect class="cls-8" x="1560.8" y="677.8" width="14" height="4.2" transform="matrix(0, -1, 1, 0, 887.9, 2247.7)"/><rect class="cls-8" x="1435.5" y="691.1" width="14" height="4.2"/><rect class="cls-8" x="1399.1" y="691.1" width="14" height="4.2"/><rect class="cls-8" x="1379.5" y="637.9" width="14" height="4.2"/><rect class="cls-8" x="1457.9" y="637.9" width="14" height="4.2"/><rect class="cls-8" x="323.9" y="637.9" width="14" height="4.2"/><rect class="cls-8" x="405.1" y="637.9" width="14" height="4.2"/><rect class="cls-8" x="346.3" y="692.5" width="14" height="4.2"/><rect class="cls-8" x="382.7" y="692.5" width="14" height="4.2"/><rect class="cls-8" x="250.4" y="635.8" width="14" height="4.2" transform="translate(-380.5 895.3) rotate(-90)"/><rect class="cls-8" x="222.4" y="642.8" width="14" height="4.2" transform="translate(-415.5 874.3) rotate(-90)"/><rect class="cls-8" x="221" y="680.6" width="14" height="4.2" transform="translate(-454.7 910.7) rotate(-90)"/><rect class="cls-8" x="221" y="579.8" width="14" height="4.2" transform="translate(-353.9 809.9) rotate(-90)"/><rect class="cls-8" x="246.2" y="579.8" width="14" height="4.2" transform="translate(-328.7 835.1) rotate(-90)"/><rect class="cls-8" x="246.2" y="539.2" width="14" height="4.2" transform="translate(-288.1 794.5) rotate(-90)"/><rect class="cls-8" x="246.2" y="518.9" width="14" height="4.2" transform="translate(-267.8 774.2) rotate(-90)"/><rect class="cls-8" x="221" y="539.2" width="14" height="4.2" transform="translate(-313.3 769.3) rotate(-90)"/><rect class="cls-8" x="221" y="518.9" width="14" height="4.2" transform="translate(-293 749) rotate(-90)"/><rect class="cls-8" x="246.2" y="456.6" width="14" height="4.2" transform="translate(-205.5 711.9) rotate(-90)"/><rect class="cls-8" x="221" y="458" width="14" height="4.2" transform="translate(-232.1 688.1) rotate(-90)"/><rect class="cls-8" x="482.8" y="456.6" width="14" height="4.2" transform="translate(31.1 948.5) rotate(-90)"/><rect class="cls-8" x="481.4" y="519.6" width="14" height="4.2" transform="translate(-33.3 1010.1) rotate(-90)"/><rect class="cls-8" x="481.4" y="539.2" width="14" height="4.2" transform="translate(-52.9 1029.7) rotate(-90)"/><rect class="cls-8" x="475.8" y="635.8" width="14" height="4.2" transform="translate(-155.1 1120.7) rotate(-90)"/><rect class="cls-8" x="475.8" y="579.8" width="14" height="4.2" transform="translate(-99.1 1064.7) rotate(-90)"/><rect class="cls-8" x="505.2" y="579.8" width="14" height="4.2" transform="translate(-69.7 1094.1) rotate(-90)"/><rect class="cls-8" x="505.2" y="539.2" width="14" height="4.2" transform="translate(-29.1 1053.5) rotate(-90)"/><rect class="cls-8" x="505.2" y="519.6" width="14" height="4.2" transform="translate(-9.5 1033.9) rotate(-90)"/><rect class="cls-8" x="505.2" y="456.6" width="14" height="4.2" transform="translate(53.5 970.9) rotate(-90)"/><rect class="cls-8" x="512.2" y="621.8" width="14" height="4.2" transform="translate(-104.7 1143.1) rotate(-90)"/><rect class="cls-8" x="576.6" y="633" width="14" height="4.2" transform="translate(-51.5 1218.7) rotate(-90)"/><rect class="cls-8" x="575.2" y="683.4" width="14" height="4.2" transform="translate(-103.3 1267.7) rotate(-90)"/><rect class="cls-8" x="410" y="766" width="14" height="4.2" transform="translate(-351.1 1185.1) rotate(-90)"/><rect class="cls-8" x="571" y="766" width="14" height="4.2" transform="translate(-190.1 1346.1) rotate(-90)"/><rect class="cls-8" x="145.75" y="708.6" width="28" height="4.2" transform="translate(-550.95 870.45) rotate(-90)"/><rect class="cls-8" x="711" y="676.4" width="14" height="4.2" transform="matrix(0, -1, 1, 0, 39.5, 1396.5)"/><rect class="cls-8" x="720.8" y="662.68" width="14" height="4.2"/></g><g id="Clickable"><rect class="cls-9" x="608.1" y="563.17" width="25.2" height="106.4" transform="translate(1241.4 1232.75) rotate(180)"/><rect class="cls-10" x="633.3" y="563.17" width="25.2" height="106.4" transform="translate(1291.8 1232.75) rotate(180)"/><rect class="cls-11" x="643.8" y="607.97" width="2.8" height="27.07" transform="translate(1290.4 1243.01) rotate(180)"/><polygon class="cls-11" points="645.2 598.87 650.8 608.57 639.6 608.57 645.2 598.87"/><rect class="cls-12" x="620" y="600.27" width="2.8" height="27.07" transform="translate(1242.8 1227.61) rotate(180)"/><polygon class="cls-12" points="621.4 636.44 627 626.74 615.8 626.74 621.4 636.44"/><rect class="cls-9" x="1162.55" y="563" width="25.2" height="106.4"/><rect class="cls-10" x="1137.3" y="563.17" width="25.2" height="106.4"/><rect class="cls-11" x="1149.25" y="607.8" width="2.8" height="27.07"/><polygon class="cls-11" points="1150.65 598.7 1145.05 608.4 1156.25 608.4 1150.65 598.7"/><rect class="cls-12" x="1173.05" y="600.1" width="2.8" height="27.07"/><polygon class="cls-12" points="1174.45 636.27 1168.85 626.57 1180.05 626.57 1174.45 636.27"/><rect class="cls-10" x="1702.2" y="668.26" width="47.6" height="25.2"/><rect class="cls-11" x="1725.54" y="675.61" width="1.4" height="13.53"/><polygon class="cls-11" points="1726.24 671.06 1723.44 675.91 1729.04 675.91 1726.24 671.06"/><rect class="cls-13" x="550" y="819.37" width="36.4" height="37.8"/><rect class="cls-14" x="1702.2" y="642.8" width="47.6" height="25.2"/><rect class="cls-15" x="1725.54" y="647.12" width="1.4" height="13.53"/><polygon class="cls-15" points="1726.24 665.2 1723.44 660.35 1729.04 660.35 1726.24 665.2"/><rect class="cls-10" x="42.47" y="662.75" width="47.6" height="25.2"/><rect class="cls-11" x="65.81" y="670.1" width="1.4" height="13.53"/><polygon class="cls-11" points="66.51 665.55 63.71 670.4 69.31 670.4 66.51 665.55"/><rect class="cls-14" x="42.47" y="637.29" width="47.6" height="25.2"/><rect class="cls-15" x="65.81" y="641.6" width="1.4" height="13.53"/><polygon class="cls-15" points="66.51 659.69 63.71 654.84 69.31 654.84 66.51 659.69"/></g><g id="Legend"><rect class="cls-5" x="1102" y="125" width="30" height="30"/><rect class="cls-16" x="1100" y="165" width="30" height="30"/><rect class="cls-17" x="1100" y="58.5" width="30" height="3" transform="translate(1055 1175) rotate(-90)"/><rect class="cls-8" x="1100" y="98.5" width="30" height="3" transform="translate(1015 1215) rotate(-90)"/><rect class="cls-9" x="1400" y="125" width="30" height="30"/><rect class="cls-12" x="1413.73" y="130.55" width="1.55" height="14.97"/><polygon class="cls-12" points="1414.5 150.55 1411.4 145.19 1417.6 145.19 1414.5 150.55"/><rect class="cls-10" x="1400" y="85" width="30" height="30"/><rect class="cls-11" x="1414.76" y="95.32" width="1.55" height="14.97"/><polygon class="cls-11" points="1415.54 90.29 1412.44 95.66 1418.63 95.66 1415.54 90.29"/><text class="cls-18" transform="translate(1155 65.87)">External Door</text><text class="cls-18" transform="translate(1155 105.87)">Internal Door</text><text class="cls-18" transform="translate(1155 185.87)">Corridor</text><text class="cls-18" transform="translate(1157 145.87)">Class<tspan class="cls-19" x="49.63" y="0">r</tspan><tspan x="56.31" y="0">oom/office </tspan></text><text class="cls-18" transform="translate(1455 105.87)">Stairs up one floor</text><text class="cls-18" transform="translate(1455 145.87)">Stairs down one floor</text><rect class="cls-4" x="800" y="85" width="30" height="30"/><rect class="cls-4" x="800" y="125" width="30" height="30"/><rect class="cls-4" x="800" y="45" width="30" height="30"/><text class="cls-18" transform="translate(854.93 65.87)"><tspan class="cls-20">F</tspan><tspan x="10.78" y="0">emale Bath</tspan><tspan class="cls-19" x="111.75" y="0">r</tspan><tspan x="118.43" y="0">oom</tspan></text><text class="cls-18" transform="translate(853.68 105.87)">Male Bath<tspan class="cls-19" x="90.34" y="0">r</tspan><tspan x="97.02" y="0">oom</tspan></text><text class="cls-18" transform="translate(854.68 145.87)">Gender Neut<tspan class="cls-21" x="112.2" y="0">r</tspan><tspan x="118.94" y="0">al Bath</tspan><tspan class="cls-19" x="181.04" y="0">r</tspan><tspan x="187.71" y="0">oom</tspan></text><rect class="cls-4" x="800" y="165" width="30" height="30"/><text class="cls-18" transform="translate(854.68 185.87)">Accessible Bath<tspan class="cls-19" x="144" y="0">r</tspan><tspan x="150.68" y="0">oom</tspan></text><polygon class="cls-6" points="830 165 825 165 800 190 800 195 805 195 830 170 830 165"/><text class="cls-22" transform="translate(810.13 65.87)">F</text><text class="cls-22" transform="translate(806.96 105.87)">M</text><text class="cls-22" transform="translate(808.42 145.87)">N</text><text class="cls-18" transform="translate(1455 65.87)">Lift</text><polygon class="cls-13" points="1429.47 75 1400 74.5 1400.53 45 1430 45.5 1429.47 75"/><text class="cls-23" transform="matrix(1.04, 0.02, -0.02, 1, 1404.13, 64.71)">Li<tspan class="cls-24" x="10.59" y="0">f</tspan><tspan x="15.13" y="0">t</tspan></text></g><g id="Labels"><text class="cls-25" transform="translate(554.2 843.06)">Lift</text><text class="cls-26" transform="translate(447.8 743.8)"><tspan class="cls-27">T<tspan class="cls-28" x="9.79" y="0">CDSU</tspan></tspan><tspan x="0" y="20.16">Student Space</tspan></text><text class="cls-25" transform="translate(708.22 812.45)">4035</text><text class="cls-25" transform="translate(789.04 840.45)">4047</text><text class="cls-25" transform="translate(794.64 753.65)">4046</text><text class="cls-25" transform="translate(857.64 818.05)">4048</text><text class="cls-25" transform="translate(900.66 887.12)">4049</text><text class="cls-25" transform="translate(1015.62 880.12)">4050</text><text class="cls-25" transform="translate(968.02 768.12)">4051</text><text class="cls-25" transform="translate(1038.02 768.12)">4066</text><text class="cls-25" transform="translate(1154.22 920.72)">4074A</text><text class="cls-25" transform="translate(1283.13 889.92)">4074</text><text class="cls-25" transform="translate(1241.13 765.32)">4072</text><text class="cls-25" transform="translate(1308.33 765.32)">4073</text><text class="cls-25" transform="translate(1248.13 1017.32)">4075</text><text class="cls-25" transform="translate(1392.33 959.92)">4091</text><text class="cls-25" transform="translate(1431.53 895.52)">4092</text><text class="cls-25" transform="translate(1503.98 910.92)">4096</text><text class="cls-25" transform="translate(1572.58 920.72)">4097</text><text class="cls-25" transform="translate(1655.25 878.72)">4112</text><text class="cls-25" transform="translate(1686.05 834.36)">4113</text><text class="cls-25" transform="translate(1679.05 768.56)">4114</text><text class="cls-25" transform="translate(1572.65 758.76)">4098a</text><text class="cls-25" transform="translate(1578.25 814.76)">4098b</text><text class="cls-25" transform="translate(1499.85 818.96)">4095</text><text class="cls-25" transform="translate(1498.45 753.16)">4094</text><text class="cls-25" transform="translate(1578.25 677.47)">4111</text><text class="cls-25" transform="translate(1578.25 641.07)">4110</text><text class="cls-25" transform="translate(1578.25 597.67)">4109</text><text class="cls-25" transform="translate(1578.25 555.67)">4108</text><text class="cls-25" transform="translate(1578.25 516.87)">4107</text><text class="cls-25" transform="translate(1578.25 480.47)">4106</text><text class="cls-25" transform="translate(1499.85 480.47)">4105</text><text class="cls-25" transform="translate(1498.45 516.87)">4104</text><text class="cls-25" transform="translate(1498.45 550.47)">4103</text><text class="cls-25" transform="translate(1492.85 602.27)">4102</text><text class="cls-25" transform="translate(1492.85 665.27)">4101</text><text class="cls-25" transform="translate(1438.25 668.07)">4089</text><text class="cls-25" transform="translate(1435.45 602.27)">4090</text><text class="cls-25" transform="translate(1380.85 602.27)">4088</text><text class="cls-25" transform="translate(1380.85 668.07)">4087</text><text class="cls-25" transform="translate(1321.96 668.07)">4085</text><text class="cls-25" transform="translate(1321.96 602.27)">4084</text><text class="cls-25" transform="translate(1321.96 557.47)">4083</text><text class="cls-25" transform="translate(1321.96 519.67)">4082</text><text class="cls-25" transform="translate(1321.96 480.47)">4081</text><text class="cls-25" transform="translate(1235.16 480.47)">4080</text><text class="cls-25" transform="translate(1235.16 516.87)">4079</text><text class="cls-25" transform="translate(1235.16 551.87)">4078</text><text class="cls-25" transform="translate(1235.16 602.29)">4077</text><text class="cls-25" transform="translate(906.22 614.42)">4056</text><text class="cls-25" transform="translate(906.22 673.22)">4055</text><text class="cls-25" transform="translate(847.42 614.42)">4054</text><text class="cls-25" transform="translate(847.42 673.22)">4053</text><text class="cls-25" transform="translate(963.62 673.22)">4057</text><text class="cls-25" transform="translate(965.02 607.42)">4058</text><text class="cls-25" transform="translate(963.62 555.62)">4059</text><text class="cls-25" transform="translate(963.62 519.22)">4060</text><text class="cls-25" transform="translate(963.62 477.22)">4061</text><text class="cls-25" transform="translate(1060.22 477.22)">4062</text><text class="cls-25" transform="translate(1060.22 516.42)">4063</text><text class="cls-25" transform="translate(1060.22 554.22)">4064</text><text class="cls-25" transform="translate(1060.22 594.82)">4065</text><text class="cls-25" transform="translate(792.81 673.22)">4045</text><text class="cls-25" transform="translate(792.81 614.42)">4044</text><text class="cls-25" transform="translate(792.81 557.02)">4043</text><text class="cls-25" transform="translate(792.81 516.42)">4042</text><text class="cls-25" transform="translate(792.81 480.02)">4041</text><text class="cls-25" transform="translate(700.42 480.02)">4040</text><text class="cls-25" transform="translate(700.42 516.42)">4039</text><text class="cls-25" transform="translate(700.42 557.02)">4038</text><text class="cls-25" transform="translate(700.42 594.82)">4037</text><text class="cls-25" transform="translate(528.22 597.62)">4026</text><text class="cls-25" transform="translate(528.47 554.22)">4025</text><text class="cls-25" transform="translate(528.47 516.42)">4024</text><text class="cls-25" transform="translate(528.47 480.02)">4023</text><text class="cls-25" transform="translate(433.27 480.02)">4022</text><text class="cls-25" transform="translate(433.27 516.42)">4021</text><text class="cls-25" transform="translate(433.27 551.42)">4020</text><text class="cls-25" transform="translate(433.27 601.82)">4019</text><text class="cls-25" transform="translate(433.27 660.62)">4018</text><text class="cls-25" transform="translate(380.07 673.22)">4015</text><text class="cls-25" transform="translate(380.07 606.02)">4016</text><text class="cls-25" transform="translate(328.27 607.42)">4014</text><text class="cls-25" transform="translate(328.27 673.22)">4013</text><text class="cls-25" transform="translate(269.77 673.22)">4012</text><text class="cls-25" transform="translate(269.77 607.42)">4011</text><text class="cls-25" transform="translate(269.77 557.02)">4010</text><text class="cls-25" transform="translate(269.77 519.22)">4009</text><text class="cls-25" transform="translate(269.77 480.02)">4008</text><text class="cls-25" transform="translate(180.17 481.42)">4007</text><text class="cls-25" transform="translate(180.17 519.22)">4006</text><text class="cls-25" transform="translate(180.17 557.02)">4005</text><text class="cls-25" transform="translate(180.17 601.82)">4004</text><text class="cls-25" transform="translate(180.17 641.02)">4003</text><text class="cls-25" transform="translate(180.17 677.42)">4002</text><text class="cls-25" transform="translate(547.2 674.02)">F</text><text class="cls-25" transform="translate(1239.42 669.82)">M</text><text class="cls-25" transform="translate(1076.4 674.02)">F</text><text class="cls-25" transform="translate(694.27 673.76)">N</text><g class="cls-29"><polyline class="cls-30" points="1760.5 1097.66 1760.5 1100.5 1757.66 1100.5"/><line class="cls-31" x1="1743.54" y1="1100.5" x2="10.4" y2="1100.5"/><polyline class="cls-30" points="3.33 1100.5 0.5 1100.5 0.5 1097.66"/><line class="cls-32" x1="0.5" y1="1083.38" x2="0.5" y2="10.48"/><polyline class="cls-30" points="0.5 3.33 0.5 0.5 3.33 0.5"/><line class="cls-31" x1="17.46" y1="0.5" x2="1750.6" y2="0.5"/><polyline class="cls-30" points="1757.66 0.5 1760.5 0.5 1760.5 3.33"/><line class="cls-32" x1="1760.5" y1="17.62" x2="1760.5" y2="1090.52"/></g></g></svg>