<?xml version="1.0" encoding="utf-8"?>
<!-- Generator: Adobe Illustrator 28.0.0, SVG Export Plug-In . SVG Version: 6.00 Build 0)  -->
<svg version="1.1" id="Layer_2_00000042720777523635729240000015434677169603486879_"
	 xmlns="http://www.w3.org/2000/svg" xmlns:xlink="http://www.w3.org/1999/xlink" x="0px" y="0px" viewBox="0 0 1199.1 1199.1"
	 style="enable-background:new 0 0 1199.1 1199.1;" xml:space="preserve">
<style type="text/css">
	.st0{fill:none;stroke:#000000;stroke-width:5.67;stroke-miterlimit:10;}
	.st1{fill:none;stroke:#000000;stroke-width:2.83;stroke-miterlimit:10;}
	.st2{opacity:2.000000e-02;}
</style>
<g id="Layer_1-2">
	<rect x="99.5" y="99.5" class="st0" width="80" height="80"/>
	<line class="st0" x1="99.5" y1="99.5" x2="179.5" y2="179.5"/>
	<line class="st0" x1="179.5" y1="99.5" x2="99.5" y2="179.5"/>
	<rect x="114.5" y="114.5" class="st1" width="50" height="50"/>
	<rect x="1019.5" y="1019.5" class="st0" width="80" height="80"/>
	<line class="st0" x1="1019.5" y1="1019.5" x2="1099.5" y2="1099.5"/>
	<line class="st0" x1="1099.5" y1="1019.5" x2="1019.5" y2="1099.5"/>
	<rect x="1034.5" y="1034.5" class="st1" width="50" height="50"/>
	<g class="st2">
		<path d="M1199,1v1198H1V1H1199 M1200,0H0v1200h1200V0L1200,0z"/>
	</g>
</g>
<g>
	<path d="M1196.1,3v1193.1H3V3H1196.1 M1199.1,0H0v1199.1h1199.1V0L1199.1,0z"/>
</g>
</svg>
