<svg xmlns="http://www.w3.org/2000/svg" width="1760" height="1100" viewBox="0 0 1760 1100"><defs><style>.cls-1{fill:#a9a9a8;}.cls-2{fill:#ffe594;}.cls-3{fill:#f0f;}.cls-4{fill:#ff0;}.cls-16,.cls-5{font-size:16.8px;}.cls-27,.cls-28,.cls-5{font-family:MyriadPro-Regular, Myriad Pro;}.cls-18,.cls-19,.cls-20,.cls-6{fill:none;}.cls-10,.cls-14,.cls-22,.cls-6,.cls-7,.cls-8,.cls-9{stroke:#fbb03b;}.cls-10,.cls-13,.cls-14,.cls-18,.cls-19,.cls-20,.cls-22,.cls-6,.cls-7,.cls-8,.cls-9{stroke-miterlimit:10;}.cls-7{fill:#fbb03b;}.cls-21,.cls-8{fill:#fce588;}.cls-9{fill:#b03b3f;}.cls-10{fill:#3fa9f5;}.cls-11,.cls-22{fill:blue;}.cls-12{fill:#ff1d25;}.cls-13{fill:#8cc63f;stroke:#009245;}.cls-14{fill:#c1272d;}.cls-15{fill:red;}.cls-16,.cls-30,.cls-31{font-family:Roboto-Regular, Roboto;}.cls-17{opacity:0.1;}.cls-18,.cls-19,.cls-20{stroke:#000;stroke-width:2.83px;}.cls-19{stroke-dasharray:5.65 14.13;}.cls-20{stroke-dasharray:5.71 14.29;}.cls-23,.cls-27{font-size:20px;}.cls-23{font-family:Roboto-Medium, Roboto;font-weight:500;}.cls-24{letter-spacing:-0.02em;}.cls-25{letter-spacing:-0.01em;}.cls-26{letter-spacing:-0.01em;}.cls-28{font-size:15px;}.cls-29{letter-spacing:0.01em;}.cls-30{font-size:16.8px;}.cls-31{font-size:11.2px;}</style></defs><g id="Colouring_in" data-name="Colouring in"><polygon class="cls-1" points="946.91 723.83 1112.11 723.83 1112.11 802.05 946.91 803.63 946.91 723.83"/><polygon class="cls-2" points="1711.6 639.8 1711.6 723.8 1673.8 723.8 1673.8 854 1636 854 1636 828.8 1630.4 828.8 1630.4 723.8 1480.6 723.8 1479.2 849.8 1431.6 851.2 1417.6 865.2 1381.2 865.2 1381.2 837.2 1374.2 838.6 1374.2 693 1482 694.4 1482 637 1571.6 635.6 1571.6 694.4 1676.6 694.4 1676.6 649.6 1686.4 639.8 1711.6 639.8"/><polygon class="cls-2" points="1213.2 970.2 1213.2 933.8 1273.4 984.2 1291.6 984.2 1417.6 933.8 1417.6 865.2 1381.2 865.2 1381.2 904.4 1209 904.4 1209 837.2 1218.8 838.6 1218.8 726.6 1374.2 726.6 1374.2 693 1370 694.4 1370 637 1270.6 637 1270.6 659.4 1293 660.8 1294.4 686 1288.8 694.4 1224.4 694.4 1224.4 607.6 1188 607.6 1188 669.2 1137.6 669.2 1137.6 607.6 1112.4 609 1112.4 694.4 1038.2 694.4 1034 686 1034 663.6 1057.8 663.6 1057.8 637 957 637 957 694.4 842.2 694.4 842.2 637 737.2 637 737.2 663.6 762.4 663.6 762.4 688.8 758.2 694.4 685.4 694.4 685.4 609 658.8 609 658.8 669.2 608.4 609 579 609 579 694.4 511.8 694.4 506.2 687.4 506.2 663.6 531.4 663.6 531.4 634.2 429.2 634.2 429.2 694.4 318.6 694.4 318.6 638.4 229 638.4 229 694.4 159 694.4 159 733.6 216.4 733.6 238.8 757.4 237.4 732.2 318.6 732.2 318.6 721 341 722.4 390 784 418 782.6 418 721 577.6 722.4 579 782.6 549.6 782.6 549.6 827.4 586 824.6 586 810.6 630.8 810.6 667.2 848.4 678.4 848.4 679.8 740.6 692.4 723.8 847.8 723.8 866 740.6 878.6 740.6 878.6 791 899.6 791 913.6 803.6 913.6 852.6 952.8 852.6 951.4 828.8 947.2 803.6 948.6 722.4 1112.4 723.8 1112.4 802.2 941.6 803.6 941.6 828.8 1167 828.8 1168.4 932.4 1197.8 968.8 1213.2 970.2"/><polygon class="cls-1" points="679.8 861 679.8 723.8 866 723.8 866 740.6 878.6 740.6 878.6 791 899.6 791 912.2 803.6 913.6 852.6 952.8 852.6 952.8 828.8 1168.4 827.4 1168.4 932.4 1111 932.4 1111 959 1057.8 959 1032.6 931 1034 959 975.2 959 952.8 935.2 951.4 924 916.4 924 877.2 886.2 877.2 856.8 843.6 856.8 845 887.6 794.6 887.6 770.8 861 772.2 887.6 709.2 887.6 679.8 861"/><polygon class="cls-1" points="418 721 579 722.4 579 782.6 549.6 782.6 549.6 816.2 534.2 816.2 502 782.6 503.4 810.6 447.4 810.6 418 784 418 721"/><polygon class="cls-1" points="229 693 159 693 159 564.2 579 562.8 579 693 511.8 693 506.2 687.4 504.8 663.6 531.4 663.6 531.4 634.2 429.2 634.2 429.2 693 318.6 693 318.6 637 229 637 229 693"/><polyline class="cls-1" points="762.4 662.2 762.4 663.6 762.4 688.8 758.2 693 685.4 693 685.4 562.8 1113.8 562.8 1112.4 693 1038.2 693 1034 686 1034 662.2 1059.2 662.2 1059.2 635.6 957 635.6 957 693 842.2 693 842.2 635.6 737.2 635.6 737.2 662.2"/><polygon class="cls-1" points="1293 659.4 1293 687.4 1288.8 694.4 1223 694.4 1223 564.2 1638.8 564.2 1637.4 693 1570.2 694.4 1571.6 635.6 1482 637 1480.6 694.4 1368.6 694.4 1370 637 1270.6 637 1270.6 659.4 1293 659.4"/><rect class="cls-1" x="1207.6" y="838.6" width="173.6" height="65.8"/><polygon class="cls-1" points="1213.2 933.8 1213.2 970.2 1211.1 970.2 1211.8 1010.8 1232.8 1038.8 1291.6 1038.8 1291.6 1009.4 1316.8 1038.8 1374.2 1038.8 1374.2 1005.2 1410.6 1005.2 1452.6 961.8 1452.6 933.8 1479.2 932.4 1508.6 963.2 1559 963.2 1559 936.6 1582.8 961.8 1636 963.2 1636 925.4 1669.6 925.4 1699 898.8 1699 854 1725.6 854 1725.6 754.6 1711.6 742 1711.6 723.8 1673.8 723.8 1673.8 854 1636 854 1636 828.8 1630.4 828.8 1630.4 723.8 1480.6 723.8 1480.6 849.8 1431.6 851.2 1417.6 865.2 1417.6 933.8 1293 933.8 1293 984.2 1273.4 984.2 1273.4 933.8 1213.2 933.8"/><rect class="cls-3" x="530" y="648.2" width="47.6" height="44.8"/><rect class="cls-3" x="685.4" y="649.6" width="50.4" height="44.8"/><rect class="cls-3" x="1057.8" y="648.2" width="53.2" height="44.8"/><rect class="cls-3" x="1223" y="648.2" width="47.6" height="44.8"/><polyline class="cls-2" points="41.75 637.7 108.95 636.3 121.55 654.5 121.55 690.9 159.35 690.9 159.06 724.96 118.75 724.5 89.35 699.3 89.35 688.1 41.75 688.1"/><rect class="cls-3" x="555.2" y="625.8" width="22.96" height="22.96"/><polygon class="cls-4" points="578.16 625.8 574.33 625.8 555.2 644.93 555.2 648.76 559.03 648.76 578.16 629.63 578.16 625.8"/><text class="cls-5" transform="translate(560.87 644)">N</text></g><g id="Tracing"><polyline class="cls-6" points="1369.3 636.3 1570.9 636.3 1570.9 693.7 1675.9 693.7 1675.9 650.3 1685.7 639.1 1710.9 639.1 1710.9 741.3 1724.9 753.9 1724.9 853.3 1698.3 853.3 1698.3 898.1 1668.9 924.7 1635.3 924.7 1635.3 962.5 1583.5 962.5 1559.7 935.9 1559.7 962.5 1507.9 962.5 1478.5 931.7 1451.9 931.7 1451.9 961.1 1409.9 1004.5 1374.9 1004.5 1374.9 1038.1 1316.1 1038.1 1290.9 1008.7 1290.9 1038.1 1232.1 1038.1 1211.1 1010.1 1211.1 969.5 1197.1 969.5 1166.3 933.1 1110.3 933.1 1110.3 959.7 1057.1 959.7 1033.3 931.7 1033.3 959.7 974.5 959.7 952.1 935.9 952.1 924.7 915.7 924.7 877.9 886.9 877.9 857.5 844.3 857.5 844.3 886.9 793.9 886.9 771.5 860.3 771.5 886.9 708.5 886.9 679.1 860.3 679.1 847.7 666.5 847.7 630.1 809.9 585.3 809.9 585.3 857.5 548.9 857.5 548.9 815.5 533.5 815.5 502.7 783.3 502.7 809.9 446.7 809.9 417.3 783.3 389.3 783.3 340.3 721.7 319.3 721.7 319.3 732.9 238.1 732.9 238.1 756.7 216.4 733.6 159 733.6 159 564.2 578.3 563.5 578.3 608.3"/><polyline class="cls-6" points="159 693.7 228.3 693.7 228.3 637.7 317.9 637.7 317.9 693.7 428.5 693.7 428.5 634.9 530.7 634.9 530.7 662.9 505.5 662.9 505.5 686.7 511.1 693.7 578.3 693.7 578.3 608.3 684.7 608.3 684.7 693.7 757.5 693.7 763.1 688.1 763.1 662.9 736.5 662.9 736.5 636.3 841.5 636.3 841.5 693.7 956.3 693.7 956.3 636.3 1058.5 636.3 1058.5 662.9 1033.3 662.9 1033.3 685.3 1038.9 693.7 1111.7 693.7 1111.7 608.3 1223.7 608.3 1223.7 693.7 1288.1 693.7 1293.7 686.7 1293.7 660.1 1269.9 660.1 1269.9 636.3 1369.3 636.3 1369.3 693.7 1481.3 693.7 1481.3 637 1481.3 563.5"/><line class="cls-6" x1="1426.7" y1="563.5" x2="1426.7" y2="693.26"/><polyline class="cls-6" points="684.7 608.3 684.7 563.5 1113.1 563.5 1113.1 608.3"/><polyline class="cls-6" points="1223.7 608.3 1223.7 563.5 1638.1 563.5 1638.1 648.9 1638.1 693.26"/><line class="cls-6" x1="1570.9" y1="648.9" x2="1638.1" y2="648.9"/><polyline class="cls-6" points="1570.9 636.3 1596.1 636.3 1596.1 563.5"/><line class="cls-6" x1="1558.67" y1="563.5" x2="1558.67" y2="636.3"/><line class="cls-6" x1="1522.29" y1="636.3" x2="1521.9" y2="563.5"/><line class="cls-6" x1="1369.3" y1="563.5" x2="1369.3" y2="636.3"/><line class="cls-6" x1="1330.53" y1="636.3" x2="1330.53" y2="563.5"/><line class="cls-6" x1="1291.58" y1="636.3" x2="1291.58" y2="563.5"/><polyline class="cls-6" points="1269.9 636.3 1254.5 636.3 1254.5 563.5"/><line class="cls-6" x1="1223.7" y1="648.9" x2="1269.9" y2="648.9"/><line class="cls-6" x1="1269.9" y1="693.7" x2="1269.9" y2="660.1"/><line class="cls-6" x1="1058.5" y1="662.9" x2="1058.5" y2="693.26"/><line class="cls-6" x1="1111.7" y1="648.9" x2="1058.5" y2="648.9"/><polyline class="cls-6" points="1058.5 636.3 1072.5 636.3 1072.5 563.5 1034.34 563.5 1034.34 636.07 996.25 636.3 996.25 563.5 957.72 563.5 957.7 636.3 841.5 636.3 841.5 563.5 898.9 563.5 898.9 693.26"/><polyline class="cls-6" points="798.5 636.3 798.5 563.5 761.69 563.5 761.7 634.9 725.3 634.9 725.3 563.5"/><line class="cls-6" x1="736.5" y1="648.9" x2="684.7" y2="648.9"/><line class="cls-6" x1="736.5" y1="693.7" x2="736.5" y2="662.9"/><polyline class="cls-6" points="578.3 625.5 554.5 625.1 554.5 648.9 578.3 648.9 530.7 648.9 530.7 693.7"/><polyline class="cls-6" points="530.7 634.9 541.9 634.9 541.9 563.56 506.9 563.5 506.9 634.84 468.92 634.84 468.92 563.5 428.68 563.75 428.5 634.9 317.9 636.3 317.9 563.93 373.9 563.5 373.9 693.7"/><line class="cls-6" x1="277.16" y1="637.7" x2="277.16" y2="564"/><polyline class="cls-6" points="240.78 564.06 240.9 637.7 203.97 637.05 203.97 564.13"/><line class="cls-6" x1="228.3" y1="650.75" x2="159" y2="650.75"/><polyline class="cls-6" points="417.3 783.3 417.3 720.3 578.3 721.7 578.3 781.9 550.3 781.9 550.3 816.9"/><line class="cls-6" x1="502.7" y1="786.09" x2="502.7" y2="721.04"/><polyline class="cls-6" points="553.67 781.9 553.1 735.7 578.3 735.7"/><polyline class="cls-6" points="679.1 850.1 679.1 741.3 691.7 741.3 691.7 723.1 660.9 723.1 660.9 739.9 679.1 739.9"/><polyline class="cls-6" points="771.5 861.98 771.5 723.1 691.7 723.1 865.3 723.1 865.3 739.9 877.9 739.9 877.9 790.3 900.3 790.3 912.9 802.9 912.9 851.9 877.9 851.9 877.9 857.5"/><polyline class="cls-6" points="847.61 857.5 847.1 791.7 879.72 790.3"/><line class="cls-6" x1="679.1" y1="766" x2="771.5" y2="766"/><polyline class="cls-6" points="847.1 723.1 847.1 739.9 865.3 739.9"/><polyline class="cls-6" points="912.9 851.9 952.1 851.9 952.1 828.1 1167.7 828.1 1167.7 934.75"/><line class="cls-6" x1="1136.85" y1="933.1" x2="1136.85" y2="828.1"/><line class="cls-6" x1="1033.3" y1="933.1" x2="1033.3" y2="828.1"/><line class="cls-6" x1="952.1" y1="926.51" x2="952.1" y2="849.78"/><polygon class="cls-6" points="1124.3 802.9 1124.3 751.1 1111.7 751.1 1111.7 723.1 947.9 723.1 947.9 776.3 938.1 776.3 938.1 802.9 1124.3 802.9"/><rect class="cls-7" x="1104.7" y="751.1" width="19.6" height="51.8"/><rect class="cls-7" x="938.1" y="776.3" width="16.8" height="26.6"/><line class="cls-6" x1="1033.3" y1="723.1" x2="1033.3" y2="802.9"/><polyline class="cls-6" points="1009.5 802.9 1009.5 750.4 1033.3 750.4"/><rect class="cls-7" x="1201.3" y="836.5" width="16.8" height="26.6"/><rect class="cls-7" x="1373.5" y="837.9" width="16.8" height="26.6"/><rect class="cls-7" x="1463.1" y="779.1" width="16.8" height="26.6"/><rect class="cls-7" x="1629.7" y="779.1" width="16.8" height="26.6"/><rect class="cls-6" x="1218.8" y="725.9" width="155.4" height="113.4"/><rect class="cls-6" x="1208.3" y="837.9" width="172.2" height="67.2"/><rect class="cls-6" x="1254.5" y="839.3" width="37.8" height="65.8"/><rect class="cls-6" x="1292.3" y="839.3" width="37.8" height="65.8"/><rect class="cls-6" x="1479.9" y="723.1" width="149.8" height="105"/><rect class="cls-6" x="1558.3" y="723.1" width="71.4" height="57.4"/><rect class="cls-6" x="1479.9" y="780.5" width="78.4" height="47.6"/><rect class="cls-6" x="1673.1" y="791.7" width="51.8" height="61.6"/><polyline class="cls-6" points="1275.32 933.1 1212.5 933.1 1212.5 969.5"/><polyline class="cls-6" points="1479.9 828.1 1479.9 849.1 1430.9 851.9 1416.9 864.5 1416.9 933.1 1291.37 933.1"/><line class="cls-6" x1="1292.3" y1="1008.7" x2="1292.3" y2="933.1"/><line class="cls-6" x1="1211.1" y1="983.75" x2="1292.3" y2="983.75"/><line class="cls-6" x1="1273.4" y1="933.1" x2="1273.4" y2="983.75"/><line class="cls-6" x1="1212.5" y1="966.63" x2="1273.4" y2="966.63"/><line class="cls-6" x1="1242.95" y1="983.75" x2="1242.95" y2="966.63"/><line class="cls-6" x1="1479.9" y1="931.7" x2="1479.9" y2="849.1"/><line class="cls-6" x1="1416.9" y1="913.99" x2="1479.9" y2="913.99"/><polyline class="cls-6" points="1635.3 933.1 1635.3 828.1 1629.7 828.1"/><line class="cls-6" x1="1673.1" y1="853.3" x2="1635.3" y2="853.3"/><polyline class="cls-6" points="1673.1 791.7 1673.1 723.1 1710.9 723.1"/><rect class="cls-7" x="847.8" y="722.4" width="16.8" height="16.8"/><rect class="cls-7" x="660.9" y="721.7" width="30.8" height="21"/><polyline class="cls-6" points="159.35 690.94 120.85 691.6 120.85 655.2 108.25 637 42.45 637 42.45 687.4 90.05 687.4 90.05 698.6 118.05 725.2 159.35 725.2"/></g><g id="Doors"><rect class="cls-8" x="671.4" y="777" width="14" height="4.2" transform="translate(-100.7 1457.5) rotate(-90)"/><rect class="cls-8" x="671.4" y="751.8" width="14" height="4.2" transform="translate(-75.5 1432.3) rotate(-90)"/><rect class="cls-8" x="906.6" y="841.4" width="14" height="4.2" transform="translate(70.1 1757.1) rotate(-90)"/><rect class="cls-8" x="870.2" y="744.8" width="14" height="4.2" transform="translate(130.3 1624.1) rotate(-90)"/><rect class="cls-8" x="941.6" y="736.4" width="14" height="4.2" transform="translate(210.1 1687.1) rotate(-90)"/><rect class="cls-8" x="1105.4" y="733.6" width="14" height="4.2" transform="translate(376.7 1848.1) rotate(-90)"/><rect class="cls-8" x="950" y="641.2" width="14" height="4.2" transform="translate(313.7 1600.3) rotate(-90)"/><rect class="cls-8" x="1052.2" y="641.2" width="14" height="4.2" transform="translate(415.9 1702.5) rotate(-90)"/><rect class="cls-8" x="1105.4" y="681.8" width="14" height="4.2" transform="translate(428.5 1796.3) rotate(-90)"/><rect class="cls-8" x="833.8" y="642.6" width="14" height="4.2" transform="translate(196.1 1485.5) rotate(-90)"/><rect class="cls-8" x="938.1" y="633.5" width="14" height="4.2"/><rect class="cls-8" x="959.1" y="633.5" width="14" height="4.2"/><rect class="cls-8" x="1019.3" y="633.5" width="14" height="4.2"/><rect class="cls-8" x="1037.5" y="633.5" width="14" height="4.2"/><rect class="cls-8" x="1044.5" y="692.3" width="14" height="4.2"/><rect class="cls-8" x="1009.5" y="748.3" width="14" height="4.2"/><rect class="cls-8" x="887.7" y="849.1" width="14" height="4.2"/><rect class="cls-8" x="938.1" y="850.5" width="14" height="4.2"/><rect class="cls-8" x="1061.3" y="825.3" width="14" height="4.2"/><rect class="cls-8" x="987.1" y="825.3" width="14" height="4.2"/><rect class="cls-8" x="1237.7" y="903.7" width="14" height="4.2"/><rect class="cls-8" x="1276.9" y="903.7" width="14" height="4.2"/><rect class="cls-8" x="1295.1" y="902.3" width="14" height="4.2"/><rect class="cls-8" x="1332.9" y="902.3" width="14" height="4.2"/><rect class="cls-8" x="1276.9" y="982.1" width="14" height="4.2"/><rect class="cls-8" x="1227.9" y="982.1" width="14" height="4.2"/><rect class="cls-8" x="1397.3" y="931.7" width="14" height="4.2"/><rect class="cls-8" x="1410.6" y="901.6" width="14" height="4.2" transform="matrix(0, -1, 1, 0, 513.9, 2321.3)"/><rect class="cls-8" x="1266.4" y="973" width="14" height="4.2" transform="matrix(0, -1, 1, 0, 298.3, 2248.5)"/><rect class="cls-8" x="1266.4" y="956.2" width="14" height="4.2" transform="matrix(0, -1, 1, 0, 315.1, 2231.7)"/><rect class="cls-8" x="1472.2" y="837.2" width="14" height="4.2" transform="matrix(0, -1, 1, 0, 639.9, 2318.5)"/><rect class="cls-8" x="1627.6" y="838.6" width="14" height="4.2" transform="matrix(0, -1, 1, 0, 793.9, 2475.3)"/><rect class="cls-8" x="1622" y="816.2" width="14" height="4.2" transform="matrix(0, -1, 1, 0, 810.7, 2447.3)"/><rect class="cls-8" x="1472.2" y="814.8" width="14" height="4.2" transform="matrix(0, -1, 1, 0, 662.3, 2296.1)"/><rect class="cls-8" x="1472.2" y="733.6" width="14" height="4.2" transform="matrix(0, -1, 1, 0, 743.5, 2214.9)"/><rect class="cls-8" x="1622" y="736.4" width="14" height="4.2" transform="matrix(0, -1, 1, 0, 890.5, 2367.5)"/><rect class="cls-8" x="1665.4" y="830.2" width="14" height="4.2" transform="matrix(0, -1, 1, 0, 840.1, 2504.7)"/><rect class="cls-8" x="1665.4" y="767.2" width="14" height="4.2" transform="matrix(0, -1, 1, 0, 903.1, 2441.7)"/><rect class="cls-8" x="1649.3" y="851.9" width="14" height="4.2"/><rect class="cls-8" x="1556.9" y="633.5" width="14" height="4.2"/><rect class="cls-8" x="1544.3" y="633.5" width="14" height="4.2"/><rect class="cls-8" x="1481.3" y="633.5" width="14" height="4.2"/><rect class="cls-8" x="1460.3" y="633.5" width="14" height="4.2"/><rect class="cls-8" x="1376.3" y="633.5" width="14" height="4.2"/><rect class="cls-8" x="1353.9" y="633.5" width="14" height="4.2"/><rect class="cls-8" x="1564.6" y="641.2" width="14" height="4.2" transform="matrix(0, -1, 1, 0, 928.3, 2214.9)"/><rect class="cls-8" x="1564.6" y="653.8" width="14" height="4.2" transform="matrix(0, -1, 1, 0, 915.7, 2227.5)"/><rect class="cls-8" x="1473.6" y="641.2" width="14" height="4.2" transform="matrix(0, -1, 1, 0, 837.3, 2123.9)"/><rect class="cls-8" x="1363" y="641.2" width="14" height="4.2" transform="matrix(0, -1, 1, 0, 726.7, 2013.3)"/><rect class="cls-8" x="1217.4" y="681.8" width="14" height="4.2" transform="matrix(0, -1, 1, 0, 540.5, 1908.3)"/><rect class="cls-8" x="1263.6" y="641.2" width="14" height="4.2" transform="matrix(0, -1, 1, 0, 627.3, 1913.9)"/><rect class="cls-8" x="1268.5" y="690.9" width="14" height="4.2"/><rect class="cls-8" x="1276.9" y="633.5" width="14" height="4.2"/><rect class="cls-8" x="1292.3" y="633.5" width="14" height="4.2"/><rect class="cls-8" x="1161.4" y="841.4" width="14" height="4.2" transform="matrix(0, -1, 1, 0, 324.9, 2011.9)"/><rect class="cls-8" x="845.7" y="633.5" width="14" height="4.2"/><rect class="cls-8" x="821.9" y="633.5" width="14" height="4.2"/><rect class="cls-8" x="761.7" y="633.5" width="14" height="4.2"/><rect class="cls-8" x="747.7" y="633.5" width="14" height="4.2"/><rect class="cls-8" x="736.5" y="690.9" width="14" height="4.2"/><rect class="cls-8" x="730.2" y="639.8" width="14" height="4.2" transform="translate(95.3 1379.1) rotate(-90)"/><rect class="cls-8" x="678.4" y="683.2" width="14" height="4.2" transform="translate(0.1 1370.7) rotate(-90)"/><rect class="cls-8" x="572" y="683.2" width="14" height="4.2" transform="translate(-106.3 1264.3) rotate(-90)"/><rect class="cls-8" x="411" y="758.8" width="14" height="4.2" transform="translate(-342.9 1178.9) rotate(-90)"/><rect class="cls-8" x="572" y="726.6" width="14" height="4.2" transform="translate(-149.7 1307.7) rotate(-90)"/><rect class="cls-8" x="310.2" y="641.2" width="14" height="4.2" transform="translate(-326.1 960.5) rotate(-90)"/><rect class="cls-8" x="220.6" y="655.2" width="14" height="4.2" transform="translate(-429.7 884.9) rotate(-90)"/><rect class="cls-8" x="220.6" y="641.2" width="14" height="4.2" transform="translate(-415.7 870.9) rotate(-90)"/><rect class="cls-8" x="508.3" y="633.5" width="14" height="4.2"/><rect class="cls-8" x="490.1" y="633.5" width="14" height="4.2"/><rect class="cls-8" x="431.3" y="633.5" width="14" height="4.2"/><rect class="cls-8" x="515.3" y="690.9" width="14" height="4.2"/><rect class="cls-8" x="408.9" y="633.5" width="14" height="4.2"/><rect class="cls-8" x="323.5" y="633.5" width="14" height="4.2"/><rect class="cls-8" x="302.5" y="634.9" width="14" height="4.2"/><rect class="cls-8" x="226.9" y="634.9" width="14" height="4.2"/><rect class="cls-8" x="240.9" y="634.9" width="14" height="4.2"/><rect class="cls-8" x="523" y="639.8" width="14" height="4.2" transform="translate(-111.9 1171.9) rotate(-90)"/><rect class="cls-8" x="420.8" y="641.2" width="14" height="4.2" transform="translate(-215.5 1071.1) rotate(-90)"/><rect class="cls-8" x="145.35" y="708.4" width="28" height="4.2" transform="translate(-551.15 869.85) rotate(-90)"/><rect class="cls-8" x="1659.8" y="705.6" width="28" height="4.2" transform="translate(966.1 2381.5) rotate(-90)"/></g><g id="Clickable"><rect class="cls-9" x="607.7" y="562.97" width="25.2" height="106.4" transform="translate(1240.6 1232.35) rotate(180)"/><rect class="cls-10" x="632.9" y="562.97" width="25.2" height="106.4" transform="translate(1291 1232.35) rotate(180)"/><rect class="cls-11" x="643.4" y="607.77" width="2.8" height="27.07" transform="translate(1289.6 1242.61) rotate(180)"/><polygon class="cls-11" points="644.8 598.67 650.4 608.37 639.2 608.37 644.8 598.67"/><rect class="cls-12" x="619.6" y="600.07" width="2.8" height="27.07" transform="translate(1242 1227.21) rotate(180)"/><polygon class="cls-12" points="621 636.24 626.6 626.54 615.4 626.54 621 636.24"/><rect class="cls-9" x="1162.15" y="562.8" width="25.2" height="106.4"/><rect class="cls-10" x="1136.9" y="562.97" width="25.2" height="106.4"/><rect class="cls-11" x="1148.85" y="607.6" width="2.8" height="27.07"/><polygon class="cls-11" points="1150.25 598.5 1144.65 608.2 1155.85 608.2 1150.25 598.5"/><rect class="cls-12" x="1172.65" y="599.9" width="2.8" height="27.07"/><polygon class="cls-12" points="1174.05 636.07 1168.45 626.37 1179.65 626.37 1174.05 636.07"/><rect class="cls-10" x="1701.8" y="668.06" width="47.6" height="25.2"/><rect class="cls-11" x="1725.14" y="675.41" width="1.4" height="13.53"/><polygon class="cls-11" points="1725.84 670.86 1723.04 675.71 1728.64 675.71 1725.84 670.86"/><rect class="cls-13" x="549.6" y="819.17" width="36.4" height="37.8"/><rect class="cls-14" x="1701.8" y="642.6" width="47.6" height="25.2"/><rect class="cls-15" x="1725.14" y="646.92" width="1.4" height="13.53"/><polygon class="cls-15" points="1725.84 665 1723.04 660.15 1728.64 660.15 1725.84 665"/><text class="cls-16" transform="translate(554.78 843.65)">Lift</text><rect class="cls-10" x="42.07" y="662.55" width="47.6" height="25.2"/><rect class="cls-11" x="65.41" y="669.9" width="1.4" height="13.53"/><polygon class="cls-11" points="66.11 665.35 63.31 670.2 68.91 670.2 66.11 665.35"/><rect class="cls-14" x="42.07" y="637.09" width="47.6" height="25.2"/><rect class="cls-15" x="65.41" y="641.4" width="1.4" height="13.53"/><polygon class="cls-15" points="66.11 659.49 63.31 654.64 68.91 654.64 66.11 659.49"/><g class="cls-17"><polyline class="cls-18" points="1760.5 1097.66 1760.5 1100.5 1757.66 1100.5"/><line class="cls-19" x1="1743.54" y1="1100.5" x2="10.4" y2="1100.5"/><polyline class="cls-18" points="3.33 1100.5 0.5 1100.5 0.5 1097.66"/><line class="cls-20" x1="0.5" y1="1083.38" x2="0.5" y2="10.48"/><polyline class="cls-18" points="0.5 3.33 0.5 0.5 3.33 0.5"/><line class="cls-19" x1="17.46" y1="0.5" x2="1750.6" y2="0.5"/><polyline class="cls-18" points="1757.66 0.5 1760.5 0.5 1760.5 3.33"/><line class="cls-20" x1="1760.5" y1="17.62" x2="1760.5" y2="1090.52"/></g></g><g id="Legend"><rect class="cls-1" x="1102" y="125" width="30" height="30"/><rect class="cls-21" x="1100" y="165" width="30" height="30"/><rect class="cls-22" x="1100" y="58.5" width="30" height="3" transform="translate(1055 1175) rotate(-90)"/><rect class="cls-8" x="1100" y="98.5" width="30" height="3" transform="translate(1015 1215) rotate(-90)"/><rect class="cls-9" x="1400" y="125" width="30" height="30"/><rect class="cls-12" x="1413.73" y="130.55" width="1.55" height="14.97"/><polygon class="cls-12" points="1414.5 150.55 1411.4 145.19 1417.6 145.19 1414.5 150.55"/><rect class="cls-10" x="1400" y="85" width="30" height="30"/><rect class="cls-11" x="1414.76" y="95.32" width="1.55" height="14.97"/><polygon class="cls-11" points="1415.54 90.29 1412.44 95.66 1418.63 95.66 1415.54 90.29"/><text class="cls-23" transform="translate(1155 65.87)">External Door</text><text class="cls-23" transform="translate(1155 105.87)">Internal Door</text><text class="cls-23" transform="translate(1155 185.87)">Corridor</text><text class="cls-23" transform="translate(1157 145.87)">Class<tspan class="cls-24" x="49.63" y="0">r</tspan><tspan x="56.31" y="0">oom/office </tspan></text><text class="cls-23" transform="translate(1455 105.87)">Stairs up one floor</text><text class="cls-23" transform="translate(1455 145.87)">Stairs down one floor</text><rect class="cls-3" x="800" y="85" width="30" height="30"/><rect class="cls-3" x="800" y="125" width="30" height="30"/><rect class="cls-3" x="800" y="45" width="30" height="30"/><text class="cls-23" transform="translate(854.93 65.87)"><tspan class="cls-25">F</tspan><tspan x="10.78" y="0">emale Bath</tspan><tspan class="cls-24" x="111.75" y="0">r</tspan><tspan x="118.43" y="0">oom</tspan></text><text class="cls-23" transform="translate(853.68 105.87)">Male Bath<tspan class="cls-24" x="90.34" y="0">r</tspan><tspan x="97.02" y="0">oom</tspan></text><text class="cls-23" transform="translate(854.68 145.87)">Gender Neut<tspan class="cls-26" x="112.2" y="0">r</tspan><tspan x="118.94" y="0">al Bath</tspan><tspan class="cls-24" x="181.04" y="0">r</tspan><tspan x="187.71" y="0">oom</tspan></text><rect class="cls-3" x="800" y="165" width="30" height="30"/><text class="cls-23" transform="translate(854.68 185.87)">Accessible Bath<tspan class="cls-24" x="144" y="0">r</tspan><tspan x="150.68" y="0">oom</tspan></text><polygon class="cls-4" points="830 165 825 165 800 190 800 195 805 195 830 170 830 165"/><text class="cls-27" transform="translate(810.13 65.87)">F</text><text class="cls-27" transform="translate(806.96 105.87)">M</text><text class="cls-27" transform="translate(808.42 145.87)">N</text><text class="cls-23" transform="translate(1455 65.87)">Lift</text><polygon class="cls-13" points="1429.47 75 1400 74.5 1400.53 45 1430 45.5 1429.47 75"/><text class="cls-28" transform="matrix(1.04, 0.02, -0.02, 1, 1404.13, 64.71)">Li<tspan class="cls-29" x="10.59" y="0">f</tspan><tspan x="15.13" y="0">t</tspan></text></g><g id="Labels"><text class="cls-16" transform="translate(510.4 771.57)">5020</text><text class="cls-16" transform="translate(446 770.06)">5012</text><text class="cls-16" transform="translate(716.78 816.37)">5025</text><text class="cls-16" transform="translate(797.99 807.97)">5038</text><text class="cls-16" transform="translate(708.4 753.37)">5024</text><text class="cls-16" transform="translate(865.19 827.57)">5037</text><text class="cls-16" transform="translate(909.99 880.77)">5038</text><text class="cls-16" transform="translate(979.86 884.86)">5039</text><text class="cls-16" transform="translate(1066.65 890.46)">5052</text><text class="cls-16" transform="translate(1054.06 770.06)">5051</text><text class="cls-16" transform="translate(965.86 768.8)">5040</text><text class="cls-30" transform="translate(1227.86 888.62) rotate(-60)">5077</text><text class="cls-30" transform="translate(1271.26 888.62) rotate(-60)">5076</text><text class="cls-30" transform="translate(1307.66 887.22) rotate(-60)">5075</text><text class="cls-30" transform="translate(1348.27 888.62) rotate(-60)">5074</text><text class="cls-16" transform="translate(1158.11 904.85) rotate(-90)">5054B</text><text class="cls-16" transform="translate(1223.6 955)">5078</text><text class="cls-16" transform="translate(1317.4 984.39)">5080</text><text class="cls-16" transform="translate(1243.2 1022.2)">5079</text><text class="cls-16" transform="translate(1390.2 963.39)">5081</text><text class="cls-16" transform="translate(1430.8 886.39)">5082</text><text class="cls-16" transform="translate(1533 885)">5083</text><text class="cls-16" transform="translate(1503.6 808)">5084</text><text class="cls-16" transform="translate(1576.4 808)">5087</text><text class="cls-16" transform="translate(1503.6 759)">5085</text><text class="cls-16" transform="translate(1576.4 759)">5086</text><text class="cls-31" transform="translate(1211.8 979.57)">5079A</text><text class="cls-31" transform="translate(1243.9 978.49)">5078A</text><text class="cls-16" transform="translate(1646.79 878.27)">5088</text><text class="cls-16" transform="translate(1677.63 832.75)">5089</text><text class="cls-16" transform="translate(1681.83 776.75)">5090</text><text class="cls-16" transform="translate(1585.23 677.97)">5072</text><text class="cls-30" transform="translate(1616.69 617.86) rotate(-60)">5071</text><text class="cls-16" transform="translate(1438.23 680.77)">5065</text><text class="cls-16" transform="translate(1386.43 677.97)">5064</text><text class="cls-16" transform="translate(1378.61 612.86)">5063</text><text class="cls-16" transform="translate(1434.61 611.46)">5066</text><text class="cls-30" transform="translate(1575.58 617.46) rotate(-60)">5070</text><text class="cls-30" transform="translate(1537.78 617.45) rotate(-60)">5069</text><text class="cls-30" transform="translate(1499.98 617.45) rotate(-60)">5068</text><text class="cls-30" transform="translate(1348.02 617.45) rotate(-60)">5061</text><text class="cls-30" transform="translate(1308.83 617.45) rotate(-60)">5060</text><text class="cls-30" transform="translate(1268.22 617.45) rotate(-60)">5059</text><text class="cls-30" transform="translate(1234.62 617.45) rotate(-60)">5058</text><text class="cls-30" transform="translate(1089.87 617.47) rotate(-60)">5047</text><text class="cls-16" transform="translate(907.87 674.75)">5042</text><text class="cls-16" transform="translate(854.67 674.75)">5034</text><text class="cls-16" transform="translate(852.45 608.23)">5033</text><text class="cls-16" transform="translate(909.85 608.23)">5043</text><text class="cls-30" transform="translate(1048.87 617.56) rotate(-60)">5046</text><text class="cls-30" transform="translate(1009.14 616.85) rotate(-60)">5045</text><text class="cls-30" transform="translate(973.6 616.15) rotate(-60)">5044</text><text class="cls-30" transform="translate(818.2 617.18) rotate(-60)">5032</text><text class="cls-30" transform="translate(775.86 617.18) rotate(-60)">5031</text><text class="cls-30" transform="translate(737.14 616.48) rotate(-60)">5030</text><text class="cls-30" transform="translate(701.42 617.88) rotate(-60)">5029</text><text class="cls-30" transform="translate(557.26 617.43) rotate(-60)">5017</text><text class="cls-16" transform="translate(384.27 672.06)">5010</text><text class="cls-16" transform="translate(332.47 672.06)">5009</text><text class="cls-16" transform="translate(330.25 611.03)">5008</text><text class="cls-16" transform="translate(387.65 611.03)">5011</text><text class="cls-30" transform="translate(521.62 617.03) rotate(-60)">5016</text><text class="cls-30" transform="translate(483.82 617.02) rotate(-60)">5015</text><text class="cls-30" transform="translate(446.02 617.02) rotate(-60)">5014</text><text class="cls-30" transform="translate(294.06 617.02) rotate(-60)">5007</text><text class="cls-30" transform="translate(254.86 617.02) rotate(-60)">5006</text><text class="cls-30" transform="translate(219.86 617.02) rotate(-60)">5005</text><text class="cls-30" transform="translate(183.46 617.02) rotate(-60)">5004</text><text class="cls-16" transform="translate(179.53 672.34)">5003</text><text class="cls-16" transform="translate(549.36 676.34)">F</text><text class="cls-16" transform="translate(705 677.74)">M</text><text class="cls-16" transform="translate(1080.27 677.74)">F</text><text class="cls-16" transform="translate(1241.2 676.34)">M</text><text class="cls-16" transform="translate(1027.05 792.09) rotate(-90)">5049</text></g></svg>