<svg xmlns="http://www.w3.org/2000/svg" width="1760" height="1100" viewBox="0 0 1760 1100"><defs><style>.cls-1{fill:#ffe594;}.cls-2{fill:#f0f;}.cls-3{fill:#a9a9a8;}.cls-4{fill:#fbb03b;}.cls-13,.cls-4,.cls-5,.cls-6,.cls-7,.cls-8,.cls-9{stroke:#fbb03b;}.cls-12,.cls-13,.cls-25,.cls-26,.cls-27,.cls-4,.cls-5,.cls-6,.cls-7,.cls-8,.cls-9{stroke-miterlimit:10;}.cls-25,.cls-26,.cls-27,.cls-5{fill:none;}.cls-15,.cls-6{fill:#fce588;}.cls-10,.cls-7{fill:blue;}.cls-8{fill:#b03b3f;}.cls-9{fill:#3fa9f5;}.cls-11{fill:#ff1d25;}.cls-12{fill:#8cc63f;stroke:#009245;}.cls-13{fill:#c1272d;}.cls-14{fill:red;}.cls-16,.cls-21{font-size:20px;}.cls-16{font-family:Roboto-Medium, Roboto;font-weight:500;}.cls-17{letter-spacing:-0.02em;}.cls-18{letter-spacing:-0.01em;}.cls-19{letter-spacing:-0.01em;}.cls-20{fill:#ff0;}.cls-21,.cls-22{font-family:MyriadPro-Regular, Myriad Pro;}.cls-22{font-size:15px;}.cls-23{letter-spacing:0.01em;}.cls-24{opacity:0.1;}.cls-25,.cls-26,.cls-27{stroke:#000;stroke-width:2.83px;}.cls-26{stroke-dasharray:5.65 14.13;}.cls-27{stroke-dasharray:5.71 14.29;}.cls-28{font-size:16.8px;}.cls-28,.cls-29,.cls-30{font-family:Roboto-Regular, Roboto;}.cls-29{font-size:16.8px;}.cls-30{font-size:8.87px;}</style></defs><g id="Colouring_in" data-name="Colouring in"><polygon class="cls-1" points="161.4 687.6 231.4 687.6 231.4 418.8 210.4 418.8 210.4 393.6 542.2 396.4 542.2 410.4 514.2 410.4 515.6 449.6 491.79 449.73 252.4 451 252.4 564.4 260.8 564.4 260.8 690.4 483.4 690.4 483.4 564.4 491.8 564.4 512.8 451 512.8 609.2 519.8 609.2 519.8 683.4 526.8 693.2 578.6 690.4 578.6 605 683.6 605 683.6 689 748 689 748 420.2 729.8 420.2 729.8 393.6 1061.6 393.6 1061.6 420.2 1043.4 420.2 1042 452.4 776 451 776 564.4 781.6 564.4 781.6 690.4 1014 690.4 1014 564.4 1019.6 564.4 1019.6 451 1040.6 451 1043.4 607.8 1049 607.8 1049 689 1109.2 689 1109.2 602.2 1212.8 602.2 1214.2 689 1277.2 689 1277.2 607.8 1284.2 607.8 1284.2 409 1267.4 409 1267.4 395 1582.4 393.6 1582.4 406.2 1565.6 406.2 1565.6 452.4 1306.6 452.4 1306.6 567.2 1310.8 567.2 1310.8 690.4 1537.6 690.4 1537.6 564.4 1543.2 564.4 1541.8 438.4 1564.2 438.4 1565.6 690.4 1673.4 690.4 1673.4 647 1680.4 642.8 1709.8 642.8 1709.8 717 1669.2 717 1669.2 848.6 1617.4 851.4 1616 824.8 1646.8 823.4 1644 743.6 1632.8 743.6 1631.4 714.2 1473.2 714.2 1473.2 775.8 1462 775.8 1462 801 1476 801 1476 823.4 1494.2 823.4 1494.2 848.6 1427 848.6 1413 862.6 1413 908.8 1371 910.2 1368.2 859.8 1383.6 859.8 1383.6 833.2 1368.2 831.8 1366.8 719.8 1217 719.8 1217 833.2 1197.4 831.8 1197.4 862.6 1217 862.6 1217 886.4 1208.6 886.4 1208.6 964.8 1194.6 964.8 1165.2 929.8 1135.8 928.4 1135.8 823.4 1120.4 823.4 1120.4 745 1109.2 745 1109.2 718.4 953.8 718.4 953.8 745 945.4 745 945.4 771.6 935.6 771.6 935.6 799.6 949.6 798.2 949.6 850 910.4 850 911.8 795.4 899.2 784.2 843.2 785.6 843.2 740.8 860 738 860 714.2 658.4 717 658.4 738 683.6 738 683.6 782.8 676.6 782.8 678 843 664 843 630.4 805.2 582.8 803.8 582.8 819.2 549.2 819.2 549.2 778.6 580 777.2 580 714.2 421.8 717 421.8 778.6 385.4 778.6 342 721.2 318.2 719.8 318.2 726.8 235.6 728.2 235.6 753.4 213.2 726.8 161.4 728.2 161.4 687.6"/><polygon class="cls-2" points="543.6 690.4 543.6 637.2 577.2 637.2 578.6 690.4 543.6 690.4"/><polygon class="cls-2" points="683.6 637.2 746.6 637.2 748 689 683.6 690.4 683.6 637.2"/><polygon class="cls-2" points="1109.2 640 1049 639.82 1049 689 1109.2 689 1109.2 640"/><polygon class="cls-2" points="1213.35 636.5 1277.2 635.8 1277.2 689 1214.2 689 1213.5 637.9 1213.35 636.5"/><polygon class="cls-1" points="490.4 445.4 491.8 568.6 512.8 568.6 512.8 446.8 490.4 445.4"/><polygon class="cls-3" points="1213.5 609.08 1282.8 607.8 1284.2 409 1267.4 409 1267.4 395 1366.8 394.56 1582.4 393.6 1582.4 406.2 1565.6 406.2 1565.6 690.4 1635.6 691.8 1634.2 325 1214.2 323.6 1213.5 609.08"/><polygon class="cls-3" points="1306.6 452.4 1373.1 452.4 1373.8 564.4 1471.8 564.4 1471.8 451 1541.8 451.7 1541.8 564.4 1537.6 564.4 1537.6 690.4 1310.8 690.4 1310.8 567.2 1306.6 567.2 1306.6 452.4"/><polygon class="cls-3" points="1109.2 610.6 1043.4 610.6 1043.4 418.8 1061.6 420.2 1061.6 393.6 729.8 393.6 729.8 420.2 748 420.2 748 609.9 683.6 609.2 683.6 605 680.5 605 680.8 323.6 1109.2 323.6 1109.2 610.6"/><polygon class="cls-3" points="1049 640 1109.2 640 1109.2 610.6 1048.3 609.08 1049 640"/><polygon class="cls-3" points="1019.6 451 949.6 452.4 949.6 561.6 841.8 561.6 841.8 452.4 774.6 452.4 776 563 781.6 563 781.6 690.4 1014 690.4 1014 564.4 1019.6 564.4 1019.6 451"/><polygon class="cls-3" points="577.2 637.2 543.21 639.3 543.6 690.4 525.3 691.1 519.8 683.4 519.8 609.2 512.8 609.2 514.2 407.6 539.4 407.6 542.2 396.4 210.4 393.6 210.4 418.8 230 418.82 231.4 687.6 161.4 687.6 161.4 322.2 585.6 322.2 582.1 605 578.6 605 577.2 637.2"/><polygon class="cls-3" points="489 451 418.01 450.3 420.4 564.4 323.8 563 323.8 448.2 252.4 451 252.4 564.4 260.8 564.4 260.8 690.4 482 690.4 483.4 564.4 491.8 564.4 489 451"/><polygon class="cls-3" points="421.8 717 421.8 778.6 414.8 778.6 442.8 808 501.6 808 501.6 778.6 528.2 810.8 549.2 811.5 549.2 778.6 580 777.2 580 714.2 421.8 717"/><polygon class="cls-3" points="682.2 738 690.6 738 690.6 714.2 767.92 715.48 767.6 764.6 683.6 764.6 682.2 738"/><polygon class="cls-3" points="843.2 714.78 843.2 764.6 767.6 764.6 767.6 714.2 843.2 714.78"/><polygon class="cls-3" points="843.2 880.8 790 880.8 767.6 855.6 769 883.6 707.4 883.6 676.6 855.6 676.6 782.8 683.6 782.8 683.6 764.6 843.2 764.6 843.2 880.8"/><polygon class="cls-3" points="953.8 717 953.8 798.2 949.6 799.6 949.6 850 910.4 850 907.6 795.4 897.8 785.6 843.2 785.6 843.2 850 876.8 847.2 876.8 880.8 918.8 922.8 949.6 922.8 949.6 929.8 974.8 955 1109.2 955 1109.2 929.8 1137.2 928.4 1137.2 823.4 1121.8 823.4 1121.8 798.2 1109.2 798.2 1109.2 718.4 953.8 717"/><polygon class="cls-3" points="1217 721.2 1368.2 721.2 1371 910.2 1413 908.8 1413 862.6 1427 848.6 1494.2 848.6 1494.2 823.4 1476 823.4 1473.2 715.6 1631.4 715.6 1633.6 824 1613.2 824.8 1616 851.4 1669.2 850 1669.2 718.4 1709.8 718.4 1709.8 736.6 1723.8 750.6 1723.8 850 1695.8 850 1695.8 894.8 1665 922.8 1632.8 922.8 1632.8 959.2 1499.8 959.2 1474.6 928.4 1448 928.4 1448 955 1407.4 999.8 1372.4 999.8 1372.4 1033.4 1313.6 1033.4 1289.8 1005.4 1289.8 1033.4 1228.2 1033.4 1208.6 1005.4 1208.6 886.4 1217 884.3 1217 721.2"/><polygon class="cls-4" points="657.7 716.3 690.6 716.55 689.9 738.7 657.7 738.7 657.7 716.3"/><polygon class="cls-3" points="682.9 608.5 747.3 609.9 745.9 636.5 682.9 636.5 682.9 608.5"/><polygon class="cls-4" points="843.9 714.9 843.9 738.7 859.3 738.7 859.3 713.5 843.9 714.9"/><polygon class="cls-4" points="944.7 745.7 953.8 745 955.9 798.9 934.9 798.9 935.6 773 945.4 773 944.7 745.7"/><polygon class="cls-4" points="1109.2 745 1121.1 744.3 1119.7 797.5 1109.9 798.9 1109.2 745"/><polygon class="cls-4" points="1196.7 831.1 1217 833.2 1217 862.6 1196.7 861.9 1196.7 831.1"/><polygon class="cls-4" points="1368.9 831.1 1368.9 859.1 1382.9 859.1 1382.9 832.5 1368.9 831.1"/><polygon class="cls-4" points="1461.54 778.07 1473.9 777.9 1476 801 1461.3 800.3 1461.54 778.07"/><polygon class="cls-4" points="1632.8 743.6 1643.3 742.9 1646.1 824.1 1633.5 824.1 1632.8 743.6"/><polygon class="cls-3" points="1213.5 608.5 1277.2 607.8 1276.5 636.5 1213.5 636.5 1213.5 608.5"/><polygon class="cls-3" points="1048.3 608.5 1107.1 611.3 1108.5 639.3 1048.3 639.3 1048.3 608.5"/><polygon class="cls-3" points="833.4 453.8 833.4 392.2 952.4 392.2 953.8 451.68 833.4 453.8"/><polygon class="cls-3" points="1366.8 452.88 1478.8 452.88 1478.8 394.06 1366.8 393.6 1366.8 452.88"/><rect class="cls-3" x="311.2" y="386.6" width="119" height="63"/><polyline class="cls-1" points="41.35 662.4 121.15 662.4 121.15 691.1 161.4 691.1 161.4 725.16 118.35 724.7 88.95 699.5 88.95 688.3 41.35 688.3"/></g><g id="Tracing"><polyline class="cls-5" points="832.7 391.5 832.7 430 832.7 452.4 775.3 451.7 775.3 563.7 782.3 563.7 782.3 689.7 1013.3 689.7 1013.3 563.7 1018.9 563.7 1018.9 450.3 953.1 451.7 953.1 431.4 951.7 393.6"/><polyline class="cls-5" points="428.1 392.9 503.7 392.9 505.1 397.1 541.5 397.1 541.5 408.3 513.5 408.3 512.1 608.5 519.1 608.5 519.1 684.1 523.3 691.1 577.9 689.7 577.9 605.7 682.9 605.7 682.9 689.7 747.3 689.7 747.3 418.8"/><polyline class="cls-5" points="275.48 322.9 238.88 322.9 201.3 322.9 201.3 392.9 230.7 392.9 238.24 392.9 313.3 392.9 313.3 322.9"/><polyline class="cls-5" points="582.1 605.7 584.9 322.9 160.7 322.9 160.7 686.9"/><polyline class="cls-5" points="415.44 779.3 442.1 808.7 500.9 808.7 500.9 779.3 530.3 811.5 549.2 811.5"/><line class="cls-5" x1="843.16" y1="763.93" x2="682.9" y2="763.93"/><polyline class="cls-5" points="767.92 714.78 767.92 763.93 768.3 884.3 708.1 884.3 675.9 854.9 675.9 843.7"/><polyline class="cls-5" points="842.5 786.3 842.5 851.27 842.5 881.5 790.7 881.5 768.22 857.17"/><polyline class="cls-5" points="909.7 845.49 873.14 848.32 842.5 850.7"/><path class="cls-5" d="M876.1,881.5v0Z"/><polyline class="cls-5" points="876.1 881.5 918.1 923.5 949.4 923.5 951.7 923.5 951.7 847.9"/><polyline class="cls-5" points="948.9 923.5 948.9 929.1 974.1 954.3 1108.5 954.3 1108.5 929.1 1136.5 929.1"/><polyline class="cls-5" points="954.5 745.7 954.5 798.9 951.7 798.9 1121.1 797.34"/><line class="cls-5" x1="1108.5" y1="745.7" x2="1108.5" y2="797.45"/><line class="cls-5" x1="1006.3" y1="797.5" x2="1006.3" y2="717.7"/><line class="cls-5" x1="1216.3" y1="885.7" x2="1369.62" y2="885.7"/><polyline class="cls-5" points="1207.9 964.1 1207.9 1004.7 1228.9 1032.7 1289.1 1032.7 1289.1 1004.7 1289.1 885.7"/><polyline class="cls-5" points="1289.1 1004.7 1312.9 1032.7 1371.7 1032.7 1371.31 998.94 1370.3 910.9"/><polyline class="cls-5" points="1475.23 849.3 1475.3 927.7 1447.3 927.7 1447.3 954.3 1406.7 999.1 1371.7 999.1"/><line class="cls-5" x1="1412.3" y1="909.05" x2="1475.28" y2="909.05"/><polyline class="cls-5" points="1475.3 927.7 1499.1 958.5 1632.1 958.5 1632.1 922.1 1664.3 922.1 1695.1 895.5 1695.1 849.3 1723.1 849.3 1723.1 749.9 1709.1 735.9 1709.1 717.7"/><line class="cls-5" x1="1669.16" y1="787.49" x2="1723.1" y2="787.49"/><line class="cls-5" x1="1668.5" y1="849.3" x2="1696.5" y2="849.3"/><line class="cls-5" x1="1633.6" y1="849.3" x2="1633.5" y2="922.1"/><polyline class="cls-5" points="1566.83 958.5 1566.3 864.7 1615.3 864.7 1615.3 849.3"/><polyline class="cls-5" points="1493.5 849.3 1493.5 863.3 1566.3 863.3"/><line class="cls-5" x1="1493.5" y1="824.1" x2="1612.5" y2="824.1"/><line class="cls-5" x1="1553" y1="863.3" x2="1553" y2="714.9"/><line class="cls-5" x1="1632.1" y1="776.5" x2="1553" y2="778.5"/><line class="cls-5" x1="1632.1" y1="744.3" x2="1632.1" y2="824.1"/><polyline class="cls-5" points="1240.1 787.7 1289.1 787.7 1340.9 787.7"/><line class="cls-5" x1="1289.1" y1="720.5" x2="1289.1" y2="787.7"/><line class="cls-5" x1="1213.5" y1="636.27" x2="1276.5" y2="636.27"/><polyline class="cls-5" points="1213.5 602.9 1213.5 322.9 1633.5 324.3 1635.32 689.7"/><line class="cls-5" x1="1564.9" y1="649.67" x2="1635.12" y2="649.67"/><line class="cls-5" x1="1564.9" y1="613.63" x2="1635.31" y2="611.57"/><line class="cls-5" x1="1564.9" y1="566.63" x2="1634.7" y2="566.63"/><line class="cls-5" x1="1564.9" y1="527.25" x2="1635.31" y2="527.25"/><line class="cls-5" x1="1564.9" y1="489.16" x2="1634.7" y2="489.16"/><line class="cls-5" x1="1564.9" y1="452.35" x2="1634.14" y2="452.35"/><line class="cls-5" x1="1564.9" y1="405.5" x2="1634.7" y2="405.5"/><line class="cls-5" x1="1283.5" y1="408.3" x2="1213.5" y2="408.3"/><polyline class="cls-5" points="1253.52 323.03 1254.1 395.7 1594.3 392.9 1592.51 324.16"/><polyline class="cls-5" points="1479.5 393.6 1479.5 450.3 1542.5 450.3 1542.5 563.7 1536.9 563.7 1536.9 689.7 1311.5 689.7 1311.5 566.5 1305.9 566.5 1305.9 453.1 1366.8 453.1 1366.8 395"/><polyline class="cls-5" points="1367.5 686.9 1367.5 563.7 1373.1 563.7 1373.1 451.7 1361.9 451.7"/><line class="cls-5" x1="1305.9" y1="489.16" x2="1373.1" y2="489.16"/><line class="cls-5" x1="1305.9" y1="527.25" x2="1373.1" y2="527.25"/><line class="cls-5" x1="1305.9" y1="563.17" x2="1367.5" y2="563.7"/><polyline class="cls-5" points="1367.5 636.27 1475.3 635.1 1475.3 563.7 1373.1 563.7"/><line class="cls-5" x1="1373.1" y1="451.7" x2="1481.23" y2="450.3"/><line class="cls-5" x1="1471.81" y1="563.7" x2="1471.81" y2="450.3"/><line class="cls-5" x1="1542.5" y1="489.16" x2="1471.81" y2="489.16"/><line class="cls-5" x1="1471.81" y1="527.25" x2="1542.5" y2="527.25"/><line class="cls-5" x1="1475.3" y1="563.7" x2="1536.9" y2="563.7"/><line class="cls-5" x1="1475.3" y1="621.33" x2="1536.9" y2="621.33"/><line class="cls-5" x1="1556.55" y1="393.21" x2="1556.55" y2="324.04"/><line class="cls-5" x1="1518.89" y1="393.52" x2="1518.7" y2="322.9"/><line class="cls-5" x1="1479.08" y1="393.85" x2="1479.5" y2="322.9"/><polyline class="cls-5" points="1424.2 323.6 1424.2 394.3 1424.41 451.7"/><line class="cls-5" x1="1367.5" y1="395.7" x2="1367.5" y2="322.9"/><line class="cls-5" x1="1326.9" y1="394.3" x2="1326.9" y2="324.3"/><line class="cls-5" x1="1290.33" y1="395.4" x2="1290.33" y2="324.04"/><line class="cls-5" x1="1213.5" y1="452.35" x2="1283.5" y2="452.35"/><line class="cls-5" x1="1213.5" y1="489.16" x2="1283.5" y2="489.16"/><line class="cls-5" x1="1213.5" y1="527.25" x2="1283.5" y2="527.25"/><line class="cls-5" x1="1213.5" y1="563.7" x2="1283.5" y2="563.7"/><line class="cls-5" x1="1213.5" y1="608.4" x2="1276.5" y2="608.5"/><line class="cls-5" x1="1423.91" y1="689.7" x2="1423.91" y2="563.7"/><line class="cls-5" x1="1048.3" y1="639.82" x2="1108.5" y2="639.82"/><polyline class="cls-5" points="1042.7 610.6 1108.5 610.72 1109.9 322.9 681.5 322.9 680.1 608.5"/><line class="cls-5" x1="747.3" y1="610.72" x2="682.9" y2="610.72"/><line class="cls-5" x1="682.9" y1="637.68" x2="747.3" y2="637.68"/><line class="cls-5" x1="680.1" y1="563" x2="747.3" y2="563.17"/><line class="cls-5" x1="680.5" y1="527.25" x2="747.3" y2="527.25"/><line class="cls-5" x1="680.5" y1="488.73" x2="747.3" y2="488.73"/><line class="cls-5" x1="680.87" y1="450.63" x2="747.3" y2="450.63"/><polyline class="cls-5" points="747.3 419.82 730.5 419.5 730.5 405.5 681.09 407.4"/><polyline class="cls-5" points="721.91 322.9 722.1 392.9 758.72 392.9 758.72 322.9 796.81 322.9 796.81 392.9"/><polyline class="cls-5" points="758.5 392.9 834.91 392.9 1043.4 392.9"/><line class="cls-5" x1="834.05" y1="322.9" x2="834.1" y2="392.9"/><polyline class="cls-5" points="956.04 322.9 956.04 392.9 995.85 392.9 995.85 322.9 1033.08 322.9 1033.08 392.9 1070.7 392.9 1070.7 322.9"/><polyline class="cls-5" points="1060.9 419.5 1042.7 418.8 1042.7 614.1 1048.3 614.1 1048.3 689.7 1108.5 689.7 1108.5 602.9 1213.5 602.9 1213.5 689.7 1276.5 689.7 1276.5 608.5 1283.5 608.5 1283.5 408.3"/><line class="cls-5" x1="1109.48" y1="408.3" x2="1059.5" y2="408.3"/><line class="cls-5" x1="1109.27" y1="451.71" x2="1044.1" y2="451.7"/><line class="cls-5" x1="1109.56" y1="489.16" x2="1042.7" y2="489.5"/><line class="cls-5" x1="1109.9" y1="527.3" x2="1042.7" y2="527.3"/><line class="cls-5" x1="1108.73" y1="563.17" x2="1042.7" y2="563"/><line class="cls-5" x1="775.3" y1="487.87" x2="841.1" y2="488.1"/><line class="cls-5" x1="954.11" y1="451.68" x2="832.7" y2="453.1"/><line class="cls-5" x1="841.1" y1="527.3" x2="775.3" y2="527.25"/><polyline class="cls-5" points="948.9 453.1 948.9 562.3 841.1 562.3 841.1 453"/><line class="cls-5" x1="1018.9" y1="488.73" x2="948.9" y2="488.73"/><line class="cls-5" x1="1018.9" y1="527.3" x2="948.9" y2="527.25"/><line class="cls-5" x1="1013.3" y1="563.7" x2="780.76" y2="563.7"/><line class="cls-5" x1="839.4" y1="689.7" x2="839.7" y2="563.7"/><line class="cls-5" x1="897.1" y1="562.3" x2="897.1" y2="689.7"/><line class="cls-5" x1="953.68" y1="563.7" x2="953.68" y2="689.7"/><line class="cls-5" x1="839.4" y1="634.69" x2="953.68" y2="634.69"/><line class="cls-5" x1="311.9" y1="448.9" x2="429.5" y2="448.9"/><line class="cls-5" x1="482.7" y1="563.7" x2="260.1" y2="563.7"/><line class="cls-5" x1="317.42" y1="563.7" x2="317.5" y2="691.1"/><line class="cls-5" x1="370.7" y1="563.7" x2="370.7" y2="688.3"/><line class="cls-5" x1="427" y1="563.7" x2="427" y2="690.05"/><line class="cls-5" x1="317.5" y1="636.4" x2="370.7" y2="636.4"/><line class="cls-5" x1="260.1" y1="623.13" x2="317.5" y2="622.5"/><line class="cls-5" x1="323.42" y1="448.9" x2="323.42" y2="563.7"/><line class="cls-5" x1="419.72" y1="563.7" x2="418.01" y2="448.9"/><line class="cls-5" x1="252.64" y1="488.72" x2="323.42" y2="488.72"/><line class="cls-5" x1="252.16" y1="527.68" x2="323.42" y2="527.68"/><line class="cls-5" x1="418.3" y1="527.3" x2="490.21" y2="527.68"/><line class="cls-5" x1="418.3" y1="488.72" x2="489.25" y2="488.72"/><line class="cls-5" x1="230.7" y1="563.7" x2="160.7" y2="563.7"/><line class="cls-5" x1="230.7" y1="611.14" x2="160.7" y2="611.14"/><line class="cls-5" x1="230.7" y1="649.67" x2="160.7" y2="649.67"/><line class="cls-5" x1="160.7" y1="527.3" x2="230.7" y2="527.3"/><line class="cls-5" x1="160.7" y1="488.72" x2="230.7" y2="488.72"/><line class="cls-5" x1="160.7" y1="450.63" x2="230.7" y2="450.63"/><polyline class="cls-5" points="160.7 407.62 209.7 408.3 209.7 419.5 230.7 418.8 230.7 686.9 160.7 686.9 160.7 728.9 212.5 727.5 234.9 752.7 234.9 728.9 317.5 727.5 317.5 719.1 341.3 720.5 384.7 779.3 422.5 779.3 422.5 716.3 580.7 714.9 579.3 777.9 548.5 777.9 548.5 819.9 581.73 819.37 582.1 804.5 629.7 804.5 663.3 842.3 677.3 843.7 675.9 782.1 682.9 783.5 682.9 738.7 657.7 738.7 657.7 716.3 860.7 713.5 860.7 738.7 843.9 738.7 842.5 786.3 898.5 784.9 909.7 794.7 909.7 849.3 950.3 849.3 950.3 798.9 934.9 798.9 934.9 772.3 944.7 772.3 944.7 744.3 954.5 745.7 954.5 717.7 1108.5 717.7 1108.5 745.7 1121.1 744.3 1121.1 822.7 1136.5 822.7 1136.5 927.7 1165.9 929.1 1193.9 964.1 1207.9 964.1 1207.9 885.7 1216.3 884.3 1216.3 861.9 1196.7 861.9 1198.1 831.1 1217.7 832.5 1217.7 747.1 1217.7 720.5 1367.5 720.5 1367.5 832.5 1384.3 832.5 1384.3 859.1 1368.9 859.1 1370.3 910.9 1412.3 910.9 1412.3 863.3 1426.3 849.3 1493.5 849.3 1493.5 824.1 1475.3 822.7 1475.3 801.7 1461.3 801.7 1461.3 776.5 1473.9 776.5 1473.9 747.1 1473.9 714.9 1632.1 714.9 1632.1 744.3 1644.7 744.3 1646.1 824.1 1612.5 824.1 1615.3 849.3 1668.5 849.3 1669.9 717.7 1709.1 717.7 1709.15 693.46 1702.1 643.5 1679.7 643.5 1672.7 647.7 1672.7 689.7 1564.9 689.7 1564.9 405.5"/><line class="cls-5" x1="370.7" y1="392.9" x2="371.4" y2="322.9"/><line class="cls-5" x1="237.7" y1="392.9" x2="238.88" y2="322.9"/><line class="cls-5" x1="275.8" y1="392.9" x2="275.48" y2="322.9"/><polyline class="cls-5" points="428.1 322.9 428.1 392.9 313.3 392.9"/><line class="cls-5" x1="467.13" y1="392.9" x2="467.13" y2="322.9"/><line class="cls-5" x1="503.7" y1="392.9" x2="503.7" y2="322.9"/><line class="cls-5" x1="541.5" y1="397.1" x2="540" y2="322.9"/><polyline class="cls-5" points="429.5 394.3 429.5 430.7 429.5 450.3 488.3 450.3 491.1 563.7 482.7 563.7 482.7 689.7 317.01 690.74 260.1 691.1 260.1 563.7 251.7 564.4 253.1 451.7 311.9 448.9 311.9 430.7 311.9 394.3"/><line class="cls-5" x1="513.2" y1="450.63" x2="583.64" y2="450.63"/><line class="cls-5" x1="513.2" y1="488.72" x2="583.26" y2="488.72"/><line class="cls-5" x1="512.67" y1="527.3" x2="582.87" y2="527.68"/><line class="cls-5" x1="513.2" y1="563.7" x2="582.52" y2="563.7"/><line class="cls-5" x1="519.1" y1="608.5" x2="577.9" y2="608.5"/><line class="cls-5" x1="519.1" y1="637.79" x2="577.9" y2="637.79"/><line class="cls-5" x1="543.53" y1="608.5" x2="542.9" y2="688.3"/><line class="cls-5" x1="1476.95" y1="689.7" x2="1475.3" y2="635.1"/><line class="cls-5" x1="1646.1" y1="800.87" x2="1632.1" y2="800.87"/><line class="cls-5" x1="370.7" y1="392.9" x2="370.7" y2="448.9"/><polyline class="cls-5" points="897.83 453.1 897.83 392.9 897.83 322.9"/><polyline class="cls-5" points="160 691.14 120.45 691.8 120.45 662.4 42.05 662.4 42.05 687.6 89.65 687.6 89.65 698.8 117.65 725.4 160 725.4"/><line class="cls-5" x1="715.1" y1="637.68" x2="715.1" y2="609.9"/><line class="cls-5" x1="1078.4" y1="640" x2="1079.1" y2="611.04"/><line class="cls-5" x1="1245.35" y1="636.5" x2="1245.6" y2="608.15"/></g><g id="Doors"><rect class="cls-6" x="650.7" y="646.3" width="18.2" height="4.2" transform="translate(11.4 1308.2) rotate(-90)"/><rect class="cls-6" x="596.1" y="646.3" width="18.2" height="4.2" transform="translate(-43.2 1253.6) rotate(-90)"/><rect class="cls-6" x="676.6" y="630.2" width="14" height="4.2" transform="translate(51.3 1315.9) rotate(-90)"/><rect class="cls-6" x="675.2" y="677.8" width="14" height="4.2" transform="translate(2.3 1362.1) rotate(-90)"/><rect class="cls-6" x="570.2" y="677.8" width="14" height="4.2" transform="translate(-102.7 1257.1) rotate(-90)"/><rect class="cls-6" x="570.2" y="628.8" width="14" height="4.2" transform="translate(-53.7 1208.1) rotate(-90)"/><rect class="cls-6" x="774.6" y="630.2" width="14" height="4.2" transform="translate(149.3 1413.9) rotate(-90)"/><rect class="cls-6" x="741" y="614.8" width="14" height="4.2" transform="translate(131.1 1364.9) rotate(-90)"/><rect class="cls-6" x="741" y="574.2" width="14" height="4.2" transform="translate(171.7 1324.3) rotate(-90)"/><rect class="cls-6" x="774.6" y="574.2" width="14" height="4.2" transform="translate(205.3 1357.9) rotate(-90)"/><rect class="cls-6" x="741" y="532.2" width="14" height="4.2" transform="translate(213.7 1282.3) rotate(-90)"/><rect class="cls-6" x="769" y="533.6" width="14" height="4.2" transform="translate(240.3 1311.7) rotate(-90)"/><rect class="cls-6" x="741" y="518.2" width="14" height="4.2" transform="translate(227.7 1268.3) rotate(-90)"/><rect class="cls-6" x="769" y="519.6" width="14" height="4.2" transform="translate(254.3 1297.7) rotate(-90)"/><rect class="cls-6" x="739.6" y="456.6" width="14" height="4.2" transform="translate(287.9 1205.3) rotate(-90)"/><rect class="cls-6" x="767.6" y="456.6" width="14" height="4.2" transform="translate(315.9 1233.3) rotate(-90)"/><rect class="cls-6" x="722.8" y="410.4" width="14" height="4.2" transform="translate(317.3 1142.3) rotate(-90)"/><rect class="cls-6" x="722.8" y="397.8" width="14" height="4.2" transform="translate(329.9 1129.7) rotate(-90)"/><rect class="cls-6" x="744.5" y="392.9" width="14" height="4.2"/><rect class="cls-6" x="758.5" y="391.5" width="14" height="4.2"/><rect class="cls-6" x="821.5" y="391.5" width="14" height="4.2"/><rect class="cls-6" x="842.5" y="391.5" width="14" height="4.2"/><rect class="cls-6" x="934.9" y="391.5" width="14" height="4.2"/><rect class="cls-6" x="955.9" y="391.5" width="14" height="4.2"/><rect class="cls-6" x="1018.9" y="391.5" width="14" height="4.2"/><rect class="cls-6" x="1031.5" y="391.5" width="14" height="4.2"/><rect class="cls-6" x="1054.6" y="396.4" width="14" height="4.2" transform="translate(663.1 1460.1) rotate(-90)"/><rect class="cls-6" x="1054.6" y="410.4" width="14" height="4.2" transform="translate(649.1 1474.1) rotate(-90)"/><rect class="cls-6" x="1036.4" y="456.6" width="14" height="4.2" transform="translate(584.7 1502.1) rotate(-90)"/><rect class="cls-6" x="1012.6" y="456.6" width="14" height="4.2" transform="translate(560.9 1478.3) rotate(-90)"/><rect class="cls-6" x="1011.2" y="518.2" width="14" height="4.2" transform="translate(497.9 1538.5) rotate(-90)"/><rect class="cls-6" x="1011.2" y="530.8" width="14" height="4.2" transform="translate(485.3 1551.1) rotate(-90)"/><rect class="cls-6" x="1035" y="518.2" width="14" height="4.2" transform="translate(521.7 1562.3) rotate(-90)"/><rect class="cls-6" x="1035" y="532.2" width="14" height="4.2" transform="translate(507.7 1576.3) rotate(-90)"/><rect class="cls-6" x="1007" y="575.6" width="14" height="4.2" transform="translate(436.3 1591.7) rotate(-90)"/><rect class="cls-6" x="1035" y="575.6" width="14" height="4.2" transform="translate(464.3 1619.7) rotate(-90)"/><rect class="cls-6" x="1039.2" y="616.2" width="14" height="4.2" transform="translate(427.9 1664.5) rotate(-90)"/><rect class="cls-6" x="1102.2" y="676.4" width="14" height="4.2" transform="translate(430.7 1787.7) rotate(-90)"/><rect class="cls-6" x="1100.8" y="628.8" width="14" height="4.2" transform="translate(476.9 1738.7) rotate(-90)"/><rect class="cls-6" x="903.4" y="838.8" width="14" height="4.2" transform="translate(69.5 1751.3) rotate(-90)"/><rect class="cls-6" x="942.6" y="809.4" width="14" height="4.2" transform="translate(138.1 1761.1) rotate(-90)"/><rect class="cls-6" x="1114.8" y="806.6" width="14" height="4.2" transform="translate(313.1 1930.5) rotate(-90)"/><rect class="cls-6" x="1102.2" y="728.2" width="14" height="4.2" transform="translate(378.9 1839.5) rotate(-90)"/><rect class="cls-6" x="946.8" y="731" width="14" height="4.2" transform="translate(220.7 1686.9) rotate(-90)"/><rect class="cls-6" x="836.2" y="773" width="14" height="4.2" transform="translate(68.1 1618.3) rotate(-90)"/><rect class="cls-6" x="836.2" y="749.2" width="14" height="4.2" transform="translate(91.9 1594.5) rotate(-90)"/><rect class="cls-6" x="675.2" y="770.2" width="14" height="4.2" transform="translate(-90.1 1454.5) rotate(-90)"/><rect class="cls-6" x="675.2" y="747.8" width="14" height="4.2" transform="translate(-67.7 1432.1) rotate(-90)"/><rect class="cls-6" x="573" y="726.8" width="14" height="4.2" transform="translate(-148.9 1308.9) rotate(-90)"/><rect class="cls-6" x="414.8" y="756.2" width="14" height="4.2" transform="translate(-336.5 1180.1) rotate(-90)"/><rect class="cls-6" x="475" y="631.6" width="14" height="4.2" transform="translate(-151.7 1115.7) rotate(-90)"/><rect class="cls-6" x="511.4" y="614.8" width="14" height="4.2" transform="translate(-98.5 1135.3) rotate(-90)"/><rect class="cls-6" x="511.4" y="645.6" width="14" height="4.2" transform="translate(-129.3 1166.1) rotate(-90)"/><rect class="cls-6" x="476.4" y="575.6" width="14" height="4.2" transform="translate(-94.3 1061.1) rotate(-90)"/><rect class="cls-6" x="505.8" y="575.6" width="14" height="4.2" transform="translate(-64.9 1090.5) rotate(-90)"/><rect class="cls-6" x="482" y="532.2" width="14" height="4.2" transform="translate(-45.3 1023.3) rotate(-90)"/><rect class="cls-6" x="505.8" y="532.2" width="14" height="4.2" transform="translate(-21.5 1047.1) rotate(-90)"/><rect class="cls-6" x="482" y="518.2" width="14" height="4.2" transform="translate(-31.3 1009.3) rotate(-90)"/><rect class="cls-6" x="505.8" y="518.2" width="14" height="4.2" transform="translate(-7.5 1033.1) rotate(-90)"/><rect class="cls-6" x="482" y="455.2" width="14" height="4.2" transform="translate(31.7 946.3) rotate(-90)"/><rect class="cls-6" x="505.8" y="455.2" width="14" height="4.2" transform="translate(55.5 970.1) rotate(-90)"/><rect class="cls-6" x="533.8" y="400.6" width="14" height="4.2" transform="translate(138.1 943.5) rotate(-90)"/><rect class="cls-6" x="507.2" y="411.8" width="14" height="4.2" transform="translate(100.3 928.1) rotate(-90)"/><rect class="cls-6" x="245.4" y="453.8" width="14" height="4.2" transform="translate(-203.5 708.3) rotate(-90)"/><rect class="cls-6" x="245.4" y="518.2" width="14" height="4.2" transform="translate(-267.9 772.7) rotate(-90)"/><rect class="cls-6" x="245.4" y="532.2" width="14" height="4.2" transform="translate(-281.9 786.7) rotate(-90)"/><rect class="cls-6" x="223" y="518.2" width="14" height="4.2" transform="translate(-290.3 750.3) rotate(-90)"/><rect class="cls-6" x="223" y="532.2" width="14" height="4.2" transform="translate(-304.3 764.3) rotate(-90)"/><rect class="cls-6" x="223" y="455.2" width="14" height="4.2" transform="translate(-227.3 687.3) rotate(-90)"/><rect class="cls-6" x="203.4" y="411.8" width="14" height="4.2" transform="translate(-203.5 624.3) rotate(-90)"/><rect class="cls-6" x="203.4" y="397.8" width="14" height="4.2" transform="translate(-189.5 610.3) rotate(-90)"/><rect class="cls-6" x="252.4" y="575.6" width="14" height="4.2" transform="translate(-318.3 837.1) rotate(-90)"/><rect class="cls-6" x="223" y="574.2" width="14" height="4.2" transform="translate(-346.3 806.3) rotate(-90)"/><rect class="cls-6" x="252.4" y="633" width="14" height="4.2" transform="translate(-375.7 894.5) rotate(-90)"/><rect class="cls-6" x="223" y="640" width="14" height="4.2" transform="translate(-412.1 872.1) rotate(-90)"/><rect class="cls-6" x="177.5" y="684.1" width="14" height="4.2"/><rect class="cls-6" x="223.7" y="390.1" width="14" height="4.2"/><rect class="cls-6" x="237.7" y="390.1" width="14" height="4.2"/><rect class="cls-6" x="297.9" y="390.1" width="14" height="4.2"/><rect class="cls-6" x="321.7" y="390.1" width="14" height="4.2"/><rect class="cls-6" x="405.7" y="390.1" width="14" height="4.2"/><rect class="cls-6" x="429.5" y="390.1" width="14" height="4.2"/><rect class="cls-6" x="489.7" y="391.5" width="14" height="4.2"/><rect class="cls-6" x="503.7" y="391.5" width="14" height="4.2"/><rect class="cls-6" x="383.3" y="688.3" width="14" height="4.2"/><rect class="cls-6" x="348.3" y="688.3" width="14" height="4.2"/><rect class="cls-6" x="323.1" y="633.7" width="14" height="4.2"/><rect class="cls-6" x="845.3" y="632.3" width="14" height="4.2"/><rect class="cls-6" x="933.5" y="632.3" width="14" height="4.2"/><rect class="cls-6" x="1458.5" y="632.3" width="14" height="4.2"/><rect class="cls-6" x="1375.9" y="632.3" width="14" height="4.2"/><rect class="cls-6" x="1395.5" y="686.9" width="14" height="4.2"/><rect class="cls-6" x="1443.1" y="686.9" width="14" height="4.2"/><rect class="cls-6" x="1275.1" y="391.5" width="14" height="4.2"/><rect class="cls-6" x="1290.5" y="391.5" width="14" height="4.2"/><rect class="cls-6" x="1350.7" y="391.5" width="14" height="4.2"/><rect class="cls-6" x="1373.1" y="391.5" width="14" height="4.2"/><rect class="cls-6" x="1458.5" y="391.5" width="14" height="4.2"/><rect class="cls-6" x="1479.5" y="391.5" width="14" height="4.2"/><rect class="cls-6" x="1542.5" y="391.5" width="14" height="4.2"/><rect class="cls-6" x="1556.5" y="391.5" width="14" height="4.2"/><rect class="cls-6" x="1391.3" y="908.1" width="14" height="4.2"/><rect class="cls-6" x="1478.1" y="846.5" width="14" height="4.2"/><rect class="cls-6" x="1616.7" y="847.9" width="14" height="4.2"/><rect class="cls-6" x="1646.1" y="846.5" width="14" height="4.2"/><rect class="cls-6" x="1466.2" y="731" width="14" height="4.2" transform="translate(740.1 2206.3) rotate(-90)"/><rect class="cls-6" x="1624.4" y="731" width="14" height="4.2" transform="translate(898.3 2364.5) rotate(-90)"/><rect class="cls-6" x="1638.4" y="809.4" width="14" height="4.2" transform="translate(833.9 2456.9) rotate(-90)"/><rect class="cls-6" x="1662.2" y="760.4" width="14" height="4.2" transform="translate(906.7 2431.7) rotate(-90)"/><rect class="cls-6" x="1662.2" y="829" width="14" height="4.2" transform="translate(838.1 2500.3) rotate(-90)"/><rect class="cls-6" x="1607.6" y="829" width="14" height="4.2" transform="translate(783.5 2445.7) rotate(-90)"/><rect class="cls-6" x="1485.8" y="829" width="14" height="4.2" transform="translate(661.7 2323.9) rotate(-90)"/><rect class="cls-6" x="1557.2" y="679.2" width="14" height="4.2" transform="translate(882.9 2245.5) rotate(-90)"/><rect class="cls-6" x="1557.2" y="638.6" width="14" height="4.2" transform="translate(923.5 2204.9) rotate(-90)"/><rect class="cls-6" x="1529.2" y="630.2" width="14" height="4.2" transform="translate(903.9 2168.5) rotate(-90)"/><rect class="cls-6" x="1558.6" y="572.8" width="14" height="4.2" transform="translate(990.7 2140.5) rotate(-90)"/><rect class="cls-6" x="1529.2" y="575.6" width="14" height="4.2" transform="translate(958.5 2113.9) rotate(-90)"/><rect class="cls-6" x="1534.8" y="533.6" width="14" height="4.2" transform="translate(1006.1 2077.5) rotate(-90)"/><rect class="cls-6" x="1558.6" y="533.6" width="14" height="4.2" transform="translate(1029.9 2101.3) rotate(-90)"/><rect class="cls-6" x="1534.8" y="515.4" width="14" height="4.2" transform="translate(1024.3 2059.3) rotate(-90)"/><rect class="cls-6" x="1558.6" y="515.4" width="14" height="4.2" transform="translate(1048.1 2083.1) rotate(-90)"/><rect class="cls-6" x="1558.6" y="458" width="14" height="4.2" transform="translate(1105.5 2025.7) rotate(-90)"/><rect class="cls-6" x="1534.8" y="456.6" width="14" height="4.2" transform="translate(1083.1 2000.5) rotate(-90)"/><rect class="cls-6" x="1558.6" y="409" width="14" height="4.2" transform="translate(1154.5 1976.7) rotate(-90)"/><rect class="cls-6" x="1575.4" y="397.8" width="14" height="4.2" transform="translate(1182.5 1982.3) rotate(-90)"/><rect class="cls-6" x="1275.8" y="413.2" width="14" height="4.2" transform="translate(867.5 1698.1) rotate(-90)"/><rect class="cls-6" x="1260.4" y="400.6" width="14" height="4.2" transform="translate(864.7 1670.1) rotate(-90)"/><rect class="cls-6" x="1275.8" y="456.6" width="14" height="4.2" transform="translate(824.1 1741.5) rotate(-90)"/><rect class="cls-6" x="1299.6" y="456.6" width="14" height="4.2" transform="translate(847.9 1765.3) rotate(-90)"/><rect class="cls-6" x="1275.8" y="518.2" width="14" height="4.2" transform="translate(762.5 1803.1) rotate(-90)"/><rect class="cls-6" x="1298.2" y="519.6" width="14" height="4.2" transform="translate(783.5 1826.9) rotate(-90)"/><rect class="cls-6" x="1298.2" y="533.6" width="14" height="4.2" transform="translate(769.5 1840.9) rotate(-90)"/><rect class="cls-6" x="1275.8" y="532.2" width="14" height="4.2" transform="translate(748.5 1817.1) rotate(-90)"/><rect class="cls-6" x="1303.8" y="574.2" width="14" height="4.2" transform="translate(734.5 1887.1) rotate(-90)"/><rect class="cls-6" x="1275.8" y="574.2" width="14" height="4.2" transform="translate(706.5 1859.1) rotate(-90)"/><rect class="cls-6" x="1204.4" y="677.8" width="14" height="4.2" transform="translate(531.5 1891.3) rotate(-90)"/><rect class="cls-6" x="1204.4" y="630.2" width="14" height="4.2" transform="translate(579.1 1843.7) rotate(-90)"/><rect class="cls-6" x="1270.2" y="614.8" width="14" height="4.2" transform="translate(660.3 1894.1) rotate(-90)"/><rect class="cls-6" x="1361.2" y="729.6" width="14" height="4.2" transform="translate(636.5 2099.9) rotate(-90)"/><rect class="cls-6" x="1210" y="731" width="14" height="4.2" transform="translate(483.9 1950.1) rotate(-90)"/><rect class="cls-6" x="1210" y="872.4" width="14" height="4.2" transform="translate(342.5 2091.5) rotate(-90)"/><rect class="cls-6" x="1362.6" y="872.4" width="14" height="4.2" transform="translate(495.1 2244.1) rotate(-90)"/><rect class="cls-6" x="1362.6" y="896.2" width="14" height="4.2" transform="translate(471.3 2267.9) rotate(-90)"/><rect class="cls-6" x="1201.6" y="896.2" width="14" height="4.2" transform="translate(310.3 2106.9) rotate(-90)"/><rect class="cls-6" x="1404.6" y="889.2" width="14" height="4.2" transform="translate(520.3 2302.9) rotate(-90)"/><rect class="cls-6" x="885.9" y="843.7" width="14" height="4.2"/><rect class="cls-6" x="871.9" y="685.5" width="14" height="4.2"/><rect class="cls-6" x="911.1" y="685.5" width="14" height="4.2"/><rect class="cls-6" x="1126" y="643.5" width="18.2" height="4.2" transform="translate(489.5 1780.7) rotate(-90)"/><rect class="cls-6" x="1179.2" y="643.5" width="18.2" height="4.2" transform="translate(542.7 1833.9) rotate(-90)"/><rect class="cls-6" x="825" y="434.2" width="14" height="4.2" transform="translate(395.7 1268.3) rotate(-90)"/><rect class="cls-6" x="946.8" y="434.2" width="14" height="4.2" transform="translate(517.5 1390.1) rotate(-90)"/><rect class="cls-6" x="304.2" y="432.8" width="14" height="4.2" transform="translate(-123.7 746.1) rotate(-90)"/><rect class="cls-6" x="421.8" y="434.2" width="14" height="4.2" transform="translate(-7.5 865.1) rotate(-90)"/><rect class="cls-6" x="1359.8" y="435.6" width="14" height="4.2" transform="translate(929.1 1804.5) rotate(-90)"/><rect class="cls-6" x="1473.9" y="435.6" width="14" height="4.2" transform="translate(1043.2 1918.6) rotate(-90)"/><rect class="cls-6" x="146.7" y="708.6" width="28" height="4.2" transform="translate(-550 871.4) rotate(-90)"/><rect class="cls-7" x="92.1" y="660.3" width="23.8" height="4.2"/></g><g id="Clickable"><rect class="cls-8" x="607.3" y="563.17" width="25.2" height="106.4" transform="translate(1239.8 1232.75) rotate(180)"/><rect class="cls-9" x="632.5" y="563.17" width="25.2" height="106.4" transform="translate(1290.2 1232.75) rotate(180)"/><rect class="cls-10" x="643" y="607.97" width="2.8" height="27.07" transform="translate(1288.8 1243.01) rotate(180)"/><polygon class="cls-10" points="644.4 598.87 650 608.57 638.8 608.57 644.4 598.87"/><rect class="cls-11" x="619.2" y="600.27" width="2.8" height="27.07" transform="translate(1241.2 1227.61) rotate(180)"/><polygon class="cls-11" points="620.6 636.44 626.2 626.74 615 626.74 620.6 636.44"/><rect class="cls-8" x="1161.75" y="563" width="25.2" height="106.4"/><rect class="cls-9" x="1136.5" y="563.17" width="25.2" height="106.4"/><rect class="cls-10" x="1148.45" y="607.8" width="2.8" height="27.07"/><polygon class="cls-10" points="1149.85 598.7 1144.25 608.4 1155.45 608.4 1149.85 598.7"/><rect class="cls-11" x="1172.25" y="600.1" width="2.8" height="27.07"/><polygon class="cls-11" points="1173.65 636.27 1168.05 626.57 1179.25 626.57 1173.65 636.27"/><rect class="cls-9" x="1701.4" y="668.26" width="47.6" height="25.2"/><rect class="cls-10" x="1724.74" y="675.61" width="1.4" height="13.53"/><polygon class="cls-10" points="1725.44 671.06 1722.64 675.91 1728.24 675.91 1725.44 671.06"/><rect class="cls-12" x="549.2" y="819.37" width="36.4" height="37.8"/><rect class="cls-13" x="1701.4" y="642.8" width="47.6" height="25.2"/><rect class="cls-14" x="1724.74" y="647.12" width="1.4" height="13.53"/><polygon class="cls-14" points="1725.44 665.2 1722.64 660.35 1728.24 660.35 1725.44 665.2"/><rect class="cls-9" x="41.67" y="662.75" width="47.6" height="25.2"/><rect class="cls-10" x="65.01" y="670.1" width="1.4" height="13.53"/><polygon class="cls-10" points="65.71 665.55 62.91 670.4 68.51 670.4 65.71 665.55"/></g><g id="Legend"><rect class="cls-3" x="1102" y="125" width="30" height="30"/><rect class="cls-15" x="1100" y="165" width="30" height="30"/><rect class="cls-7" x="1100" y="58.5" width="30" height="3" transform="translate(1055 1175) rotate(-90)"/><rect class="cls-6" x="1100" y="98.5" width="30" height="3" transform="translate(1015 1215) rotate(-90)"/><rect class="cls-8" x="1400" y="125" width="30" height="30"/><rect class="cls-11" x="1413.73" y="130.55" width="1.55" height="14.97"/><polygon class="cls-11" points="1414.5 150.55 1411.4 145.19 1417.6 145.19 1414.5 150.55"/><rect class="cls-9" x="1400" y="85" width="30" height="30"/><rect class="cls-10" x="1414.76" y="95.32" width="1.55" height="14.97"/><polygon class="cls-10" points="1415.54 90.29 1412.44 95.66 1418.63 95.66 1415.54 90.29"/><text class="cls-16" transform="translate(1155 65.87)">External Door</text><text class="cls-16" transform="translate(1155 105.87)">Internal Door</text><text class="cls-16" transform="translate(1155 185.87)">Corridor</text><text class="cls-16" transform="translate(1157 145.87)">Class<tspan class="cls-17" x="49.63" y="0">r</tspan><tspan x="56.31" y="0">oom/office </tspan></text><text class="cls-16" transform="translate(1455 105.87)">Stairs up one floor</text><text class="cls-16" transform="translate(1455 145.87)">Stairs down one floor</text><rect class="cls-2" x="800" y="85" width="30" height="30"/><rect class="cls-2" x="800" y="125" width="30" height="30"/><rect class="cls-2" x="800" y="45" width="30" height="30"/><text class="cls-16" transform="translate(854.93 65.87)"><tspan class="cls-18">F</tspan><tspan x="10.78" y="0">emale Bath</tspan><tspan class="cls-17" x="111.75" y="0">r</tspan><tspan x="118.43" y="0">oom</tspan></text><text class="cls-16" transform="translate(853.68 105.87)">Male Bath<tspan class="cls-17" x="90.34" y="0">r</tspan><tspan x="97.02" y="0">oom</tspan></text><text class="cls-16" transform="translate(854.68 145.87)">Gender Neut<tspan class="cls-19" x="112.2" y="0">r</tspan><tspan x="118.94" y="0">al Bath</tspan><tspan class="cls-17" x="181.04" y="0">r</tspan><tspan x="187.71" y="0">oom</tspan></text><rect class="cls-2" x="800" y="165" width="30" height="30"/><text class="cls-16" transform="translate(854.68 185.87)">Accessible Bath<tspan class="cls-17" x="144" y="0">r</tspan><tspan x="150.68" y="0">oom</tspan></text><polygon class="cls-20" points="830 165 825 165 800 190 800 195 805 195 830 170 830 165"/><text class="cls-21" transform="translate(810.13 65.87)">F</text><text class="cls-21" transform="translate(806.96 105.87)">M</text><text class="cls-21" transform="translate(808.42 145.87)">N</text><text class="cls-16" transform="translate(1455 65.87)">Lift</text><polygon class="cls-12" points="1429.47 75 1400 74.5 1400.53 45 1430 45.5 1429.47 75"/><text class="cls-22" transform="matrix(1.04, 0.02, -0.02, 1, 1404.13, 64.71)">Li<tspan class="cls-23" x="10.59" y="0">f</tspan><tspan x="15.13" y="0">t</tspan></text><g class="cls-24"><polyline class="cls-25" points="1760.5 1097.66 1760.5 1100.5 1757.66 1100.5"/><line class="cls-26" x1="1743.54" y1="1100.5" x2="10.4" y2="1100.5"/><polyline class="cls-25" points="3.33 1100.5 0.5 1100.5 0.5 1097.66"/><line class="cls-27" x1="0.5" y1="1083.38" x2="0.5" y2="10.48"/><polyline class="cls-25" points="0.5 3.33 0.5 0.5 3.33 0.5"/><line class="cls-26" x1="17.46" y1="0.5" x2="1750.6" y2="0.5"/><polyline class="cls-25" points="1757.66 0.5 1760.5 0.5 1760.5 3.33"/><line class="cls-27" x1="1760.5" y1="17.62" x2="1760.5" y2="1090.52"/></g></g><g id="Labels"><text class="cls-28" transform="translate(1279.07 843.51)">3105</text><text class="cls-28" transform="translate(1235.67 772.11)">3104</text><text class="cls-28" transform="translate(1305.67 772.11)">3125</text><text class="cls-28" transform="translate(1228.67 958.83)">3106</text><text class="cls-28" transform="translate(1307.07 958.83)">3126</text><text class="cls-28" transform="translate(1010.27 877.63)">3074</text><text class="cls-28" transform="translate(1045.27 768.43)">3098</text><text class="cls-28" transform="translate(961.27 751.63)">3075</text><text class="cls-28" transform="translate(1395.27 949.03)">3127</text><text class="cls-28" transform="translate(1427.47 891.63)">3128</text><text class="cls-28" transform="translate(1506.02 922.43)">3129</text><text class="cls-28" transform="translate(1581.62 905.63)">3130</text><text class="cls-28" transform="translate(1653.02 886.03)">3158</text><text class="cls-28" transform="translate(1500.42 849.63)">3157a</text><text class="cls-28" transform="translate(1563.42 848.23)">3157b</text><text class="cls-28" transform="translate(1569.02 810.43)">3161</text><text class="cls-28" transform="translate(1494.82 781.03)">3131</text><text class="cls-28" transform="translate(1574.62 747.83)">3162</text><text class="cls-28" transform="translate(1678.22 768.83)">3160</text><text class="cls-28" transform="translate(1682.42 823.43)">3159</text><text class="cls-28" transform="translate(1485.02 658.64)">3137</text><text class="cls-28" transform="translate(1581.62 671.24)">3155</text><text class="cls-28" transform="translate(1574.62 634.84)">3154</text><text class="cls-28" transform="translate(1433.22 674.04)">3135</text><text class="cls-28" transform="translate(1436.02 611.04)">3136</text><text class="cls-28" transform="translate(1485.02 605.44)">3138</text><text class="cls-28" transform="translate(1581.62 595.6)">3153</text><text class="cls-28" transform="translate(1493.42 552.16)">3139</text><text class="cls-28" transform="translate(1574.62 549.36)">3152</text><text class="cls-28" transform="translate(1489.22 512.97)">3140</text><text class="cls-28" transform="translate(1489.22 475.16)">3141</text><text class="cls-28" transform="translate(1577.42 510.16)">3151</text><text class="cls-28" transform="translate(1577.42 474.67)">3150</text><text class="cls-28" transform="translate(1577.42 436.87)">3149</text><text class="cls-28" transform="translate(1228.82 435.47)">3112</text><text class="cls-28" transform="translate(1319.82 474.67)">3120</text><text class="cls-28" transform="translate(1319.82 512.47)">3121</text><text class="cls-28" transform="translate(1319.82 547.47)">3122</text><text class="cls-28" transform="translate(1228.82 474.67)">3111</text><text class="cls-28" transform="translate(1228.82 509.67)">3110</text><text class="cls-28" transform="translate(1227.42 548.87)">3109</text><text class="cls-28" transform="translate(1231.62 592.27)">3108</text><text class="cls-28" transform="translate(1318.42 617.47)">3123</text><text class="cls-28" transform="translate(1318.42 673.47)">3124</text><text class="cls-28" transform="translate(1378.62 609.07)">3134</text><text class="cls-28" transform="translate(1378.62 669.27)">3133</text><text class="cls-28" transform="translate(966.78 639.44)">3081</text><text class="cls-28" transform="translate(1059.18 591.84)">3097</text><text class="cls-28" transform="translate(1061.98 549.84)">3096</text><text class="cls-28" transform="translate(1063.38 514.84)">3095</text><text class="cls-28" transform="translate(1061.98 474.24)">3094</text><text class="cls-28" transform="translate(963.02 515.27)">3084</text><text class="cls-28" transform="translate(963.02 474.67)">3085</text><text class="cls-28" transform="translate(963.02 551.67)">3083</text><text class="cls-28" transform="translate(1059.62 436.87)">3093</text><text class="cls-28" transform="translate(905.62 426.11)">3087</text><text class="cls-28" transform="translate(852.42 430.31)">3063</text><text class="cls-28" transform="translate(792.22 475.11)">3065</text><text class="cls-28" transform="translate(792.22 510.11)">3066</text><text class="cls-28" transform="translate(789.42 549.31)">3067</text><text class="cls-28" transform="translate(911.22 605.35)">3080</text><text class="cls-28" transform="translate(852.42 602.55)">3078</text><text class="cls-28" transform="translate(852.42 666.95)">3077</text><text class="cls-28" transform="translate(905.62 666.95)">3079</text><text class="cls-28" transform="translate(789.42 661.35)">3069</text><text class="cls-28" transform="translate(792.22 608.15)">3068</text><text class="cls-28" transform="translate(700.62 591.35)">3053</text><text class="cls-28" transform="translate(696.42 547.95)">3054</text><text class="cls-28" transform="translate(704.82 515.75)">3055</text><text class="cls-28" transform="translate(697.82 437.35)">3057</text><text class="cls-28" transform="translate(534.02 435.95)">3038</text><text class="cls-28" transform="translate(697.82 473.75)">3056</text><text class="cls-28" transform="translate(526.52 477.47)">3039</text><text class="cls-28" transform="translate(533.52 509.67)">3040</text><text class="cls-28" transform="translate(531.59 550.27)">3041</text><text class="cls-28" transform="translate(528.79 592.27)">3042</text><text class="cls-28" transform="translate(434.99 474.67)">3030</text><text class="cls-28" transform="translate(434.99 512.47)">3029</text><text class="cls-28" transform="translate(434.99 551.67)">3028</text><text class="cls-28" transform="translate(434.99 592.27)">3027</text><text class="cls-28" transform="translate(436.39 670.67)">3026</text><text class="cls-28" transform="translate(381.79 666.47)">3023</text><text class="cls-28" transform="translate(323.37 666.47)">3021</text><text class="cls-28" transform="translate(326.61 602.07)">3022</text><text class="cls-28" transform="translate(270.61 595.07)">3019</text><text class="cls-28" transform="translate(270.61 658.07)">3020</text><text class="cls-28" transform="translate(270.61 550.27)">3018</text><text class="cls-28" transform="translate(270.61 513.87)">3017</text><text class="cls-28" transform="translate(270.61 474.67)">3016</text><text class="cls-28" transform="translate(167.01 435.47)">3008</text><text class="cls-28" transform="translate(169.81 474.67)">3007</text><text class="cls-28" transform="translate(169.81 509.67)">3006</text><text class="cls-28" transform="translate(169.81 550.27)">3005</text><text class="cls-28" transform="translate(169.81 592.27)">3004</text><text class="cls-28" transform="translate(175.41 634.27)">3003</text><text class="cls-28" transform="translate(174.9 669.27)">3002</text><text class="cls-28" transform="translate(443.35 765.51)">3025</text><text class="cls-28" transform="translate(523.15 765.51)">3044</text><text class="cls-28" transform="translate(714.13 828.54)">3051</text><text class="cls-28" transform="translate(704.33 752.94)">3050</text><text class="cls-28" transform="translate(775.73 750.14)">3070</text><text class="cls-28" transform="translate(781.33 831.34)">3071</text><text class="cls-28" transform="translate(859.8 822.94)">3072</text><text class="cls-28" transform="translate(896.2 881.74)">3072</text><text class="cls-28" transform="translate(1071.2 666.14)">F</text><text class="cls-28" transform="translate(1238.86 670.34)">M</text><text class="cls-28" transform="translate(708.02 667.02)">M</text><text class="cls-28" transform="translate(554.8 672.62)">F</text><text class="cls-28" transform="translate(553.4 843.06)">Lift</text><text class="cls-29" transform="translate(557.94 377.18) rotate(-60)">3037</text><text class="cls-29" transform="translate(517.59 373.73) rotate(-60)">3036</text><text class="cls-29" transform="translate(482.59 373.73) rotate(-60)">3035</text><text class="cls-29" transform="translate(444.79 373.73) rotate(-60)">3034</text><text class="cls-29" transform="translate(394.39 373.73) rotate(-60)">3033</text><text class="cls-29" transform="translate(338.72 373.25) rotate(-60)">3013</text><text class="cls-29" transform="translate(292.52 377.45) rotate(-60)">3012</text><text class="cls-29" transform="translate(254.72 373.25) rotate(-60)">3011</text><text class="cls-29" transform="translate(214.12 373.25) rotate(-60)">3010</text><text class="cls-29" transform="translate(177.72 373.26) rotate(-60)">3009</text><text class="cls-29" transform="translate(699.19 373.27) rotate(-60)">3058</text><text class="cls-29" transform="translate(736.99 373.27) rotate(-60)">3059</text><text class="cls-29" transform="translate(774.79 373.27) rotate(-60)">3060</text><text class="cls-29" transform="translate(812.59 373.27) rotate(-60)">3061</text><text class="cls-29" transform="translate(860.19 373.27) rotate(-60)">3062</text><text class="cls-29" transform="translate(925.62 371.87) rotate(-60)">3088</text><text class="cls-29" transform="translate(970.43 371.87) rotate(-60)">3089</text><text class="cls-29" transform="translate(1009.63 371.87) rotate(-60)">3090</text><text class="cls-29" transform="translate(1044.63 371.87) rotate(-60)">3091</text><text class="cls-29" transform="translate(1085.23 371.87) rotate(-60)">3092</text><text class="cls-29" transform="translate(1230.13 378.87) rotate(-60)">3113</text><text class="cls-29" transform="translate(1267.93 373.27) rotate(-60)">3114</text><text class="cls-29" transform="translate(1305.73 373.27) rotate(-60)">3115</text><text class="cls-29" transform="translate(1342.13 373.27) rotate(-60)">3116</text><text class="cls-29" transform="translate(1391.13 371.87) rotate(-60)">3117</text><text class="cls-29" transform="translate(1445.73 373.27) rotate(-60)">3144</text><text class="cls-29" transform="translate(1494.73 373.27) rotate(-60)">3145</text><text class="cls-29" transform="translate(1535.33 373.27) rotate(-60)">3146</text><text class="cls-29" transform="translate(1571.73 373.27) rotate(-60)">3147</text><text class="cls-29" transform="translate(1610.34 373.27) rotate(-60)">3148</text><text class="cls-30" transform="translate(522.6 624.39)">3034</text><text class="cls-30" transform="translate(548.51 623.1)">3046</text><text class="cls-30" transform="translate(535.62 672.03) rotate(-90)">3045A</text><text class="cls-28" transform="translate(378.67 421.66)">3032</text><text class="cls-28" transform="translate(328.27 420.26)">3014</text><text class="cls-28" transform="translate(1382.2 425.86)">3118</text><text class="cls-28" transform="translate(1435.97 425.86)">3143</text></g></svg>