<?xml version="1.0" encoding="UTF-8"?><svg id="Layer_2" xmlns="http://www.w3.org/2000/svg" width="349.21" height="359.03" viewBox="0 0 349.21 359.03"><defs><style>.cls-1{fill:#fff;}</style></defs><g id="Layer_1-2"><path class="cls-1" d="M280.93,68.43c12.51,0,25.13-.02,37.75,.01,4.49,.01,8.99-.06,13.45,.28,10.03,.78,17.01,8.43,17.02,18.55,.04,28.76,.12,57.53-.05,86.29-.05,9.14-2.65,17.18-9.34,24.33-17.59,18.82-34.47,38.29-51.63,57.5-.44,.5-.79,1.17-1.34,1.47-7.01,3.83-6.76,10.25-6.56,17,.32,10.47-.07,20.95,.22,31.42,.06,2.07,1.33,4.71,2.92,6.03,8.61,7.17,12.29,18.62,8.93,29.19-3.33,10.48-12.48,17.82-23.76,17.99-26.43,.4-52.86,.54-79.29,.54-40.9,0-81.8-.27-122.69-.3-7.91,0-15.07-1.41-21.02-7.2-11.48-11.16-10.76-30.2,1.96-39.93,2.64-2.02,3.28-4.02,3.28-7.04-.07-46.39-.01-92.78-.14-139.16,0-2.85-.74-5.96-2.04-8.49-10.03-19.48-20.07-38.97-30.58-58.19-3.88-7.1-8.94-13.57-13.66-20.18C-4.35,66.34,.35,55.62,15.26,53.97c12.34-1.37,24.69-2.63,37.01-4.15,1.48-.18,3.06-1.47,4.15-2.66,5.01-5.47,9.9-11.04,14.72-16.68,1.09-1.27,2.18-2.89,2.41-4.48,1.15-7.68,6.73-12.95,14.52-12.93,2.93,.01,4.68-.53,6.14-3.47C97.43,3.13,102.92-.01,110.33,0c36.74,.07,73.49,.07,110.23,0,7.41-.01,12.87,3.15,16.1,9.64,1.34,2.69,2.86,3.43,5.68,3.43,8.42-.01,13.89,5.08,15.08,13.45,.17,1.2,.67,2.59,1.5,3.41q16.94,16.65,22,38.5Zm-65.41,120.64c0-28.42,.03-56.84-.02-85.26-.02-9.52-6.52-15.96-15.89-15.97-9.41-.01-16.1,6.44-16.11,15.8-.03,56.84-.04,113.67,.06,170.51,0,2.39,.62,4.99,1.69,7.12,3.53,6.98,11.23,10.01,19.15,7.9,6.56-1.74,11.09-7.89,11.1-15.35,.04-28.25,.01-56.5,.01-84.76Zm95.06-81.91h-29.82v98.8c9.35-10.48,18.19-20.16,26.69-30.14,1.73-2.03,2.96-5.17,3-7.83,.27-16.43,.14-32.88,.14-49.31,0-3.78,0-7.56,0-11.52Z"/></g></svg>