<?xml version="1.0" encoding="UTF-8"?><svg id="Layer_2" xmlns="http://www.w3.org/2000/svg" width="1228.35" height="1228.35" viewBox="0 0 1228.35 1228.35"><defs><style>.cls-1,.cls-2,.cls-3{stroke-width:0px;}.cls-2{fill:#fff;}.cls-3{fill:#7ac943;}</style></defs><g id="Layer_1-2"><path class="cls-3" d="m164.17,1214.17c-82.84,0-150-67.16-150-150V164.17C14.17,81.33,81.33,14.17,164.17,14.17h900c82.84,0,150,67.16,150,150v900c0,82.84-67.16,150-150,150H164.17Z"/><path class="cls-2" d="m564.17,964.17h-100v-373.71c0-13.22-12.6-22.8-25.34-19.28l-155.27,42.99c-17.07,0-26.3-20.01-15.21-32.99l252.54-270.63c15.48-16.59,43.28-5.64,43.28,17.06v636.57Z"/><path class="cls-1" d="m1064.17,42.52c32.49,0,63.04,12.65,86.02,35.63s35.63,53.53,35.63,86.02v900c0,32.49-12.65,63.04-35.63,86.02-22.98,22.98-53.53,35.63-86.02,35.63H164.17c-32.49,0-63.04-12.65-86.02-35.63-22.98-22.98-35.63-53.53-35.63-86.02V164.17c0-32.49,12.65-63.04,35.63-86.02,22.98-22.98,53.53-35.63,86.02-35.63h900m0-28.35H164.17C81.33,14.17,14.17,81.33,14.17,164.17v900c0,82.84,67.16,150,150,150h900c82.84,0,150-67.16,150-150V164.17c0-82.84-67.16-150-150-150h0Z"/><path class="cls-2" d="m664.17,302.17h100v373.71c0,13.22,12.6,22.8,25.34,19.28l155.27-42.99c17.07,0,26.3,20.01,15.21,32.99l-252.54,270.63c-15.48,16.59-43.28,5.64-43.28-17.06V302.17Z"/></g></svg>