<?xml version="1.0" encoding="UTF-8"?><svg id="Layer_2" xmlns="http://www.w3.org/2000/svg" width="345.41" height="210.52" viewBox="0 0 345.41 210.52"><defs><style>.cls-1{fill:#fff;}</style></defs><g id="Layer_1-2"><g><path class="cls-1" d="M304.01,193.54c-.52,3.76-.4,6.9-1.46,9.58-1.85,4.66-5.57,7.34-10.81,7.38-5.15,.04-10.31,.02-15.47,0-9.1-.02-13.64-4.55-13.8-13.74-.01-.83-.08-1.66-.13-2.85H90.53c-.77,2.76-1.13,5.77-2.41,8.31-2.08,4.12-5.67,6.36-10.49,6.32-5.15-.04-10.31,.03-15.46,0-8.68-.05-12.68-3.74-13.54-12.43-.06-.64-.19-1.28-.38-2.57-5.12,0-10.2,.02-15.29,0C14.51,193.44,.04,179.04,.02,160.65-.01,118.42,0,76.18,.02,33.94,.03,15.12,13.27,1.16,32.08,.07,33.41,0,34.74,0,36.07,0,127.2,0,218.33,0,309.46,.01c18.17,0,31.2,9.48,35.22,25.62,.55,2.22,.69,4.6,.69,6.9,.04,42.74,.07,85.47,.01,128.21-.03,18.43-14.47,32.7-32.97,32.8-2.79,.01-5.58,0-8.4,0Zm-171.91-25.95c30.25,0,60.5,0,90.75,0,8.37,0,12.46-3.74,12.47-11.94,.07-39.06,.07-78.12,0-117.18-.01-8.16-3.77-11.94-11.89-11.95-61-.05-122-.05-183,0-8.07,0-11.48,3.62-11.48,11.6-.01,39.23-.01,78.45,0,117.68,0,8.12,3.7,11.78,11.89,11.78,30.42,.01,60.83,0,91.25,0Zm159.53-103.45v-.04c10.96,0,21.92,.1,32.87-.04,6.22-.08,10.12-3.54,10.48-9.61,.37-6.12,.38-12.3-.02-18.41-.38-5.87-4.22-9.41-10.15-9.44-22.24-.13-44.49-.14-66.74,.02-6.28,.05-9.64,3.73-9.83,10.09-.16,5.31-.11,10.62-.03,15.94,.12,8.2,3.28,11.39,11.54,11.47,10.62,.1,21.25,.02,31.88,.02Zm20.88,54.94c11.67-.05,20.76-8.91,20.74-20.22-.02-11.67-9.2-21-20.71-21.08-11.73-.07-21.16,9.5-20.96,21.29,.19,11.46,9.18,20.06,20.93,20.01Zm.09,48.51c11.45-.03,20.55-9.05,20.65-20.48,.1-11.76-8.84-20.17-20.8-20.74-10.52-.5-20.89,8.31-20.87,20.64,.02,11.68,9.17,20.61,21.01,20.58Z"/><path class="cls-1" d="M210.43,98.22c0-12.62-.03-25.24,.02-37.86,.02-5.41,2.86-8.54,7.47-8.51,4.54,.04,7.63,3.37,7.64,8.54,.04,25.4,.04,50.81,0,76.21,0,5.46-2.74,8.29-7.68,8.3-5.05,.01-7.42-2.54-7.44-8.33-.05-12.79-.02-25.57-.01-38.36Z"/></g></g></svg>