<?xml version="1.0" encoding="UTF-8"?><svg id="Layer_2" xmlns="http://www.w3.org/2000/svg" width="1228.35" height="1228.35" viewBox="0 0 1228.35 1228.35"><defs><style>.cls-1,.cls-2,.cls-3{stroke-width:0px;}.cls-2{fill:#ff1d25;}.cls-3{fill:#fff;}</style></defs><g id="Layer_1-2"><g id="Down"><path class="cls-2" d="m1064.17,14.17c82.84,0,150,67.16,150,150v900c0,82.84-67.16,150-150,150H164.17c-82.84,0-150-67.16-150-150V164.17C14.17,81.33,81.33,14.17,164.17,14.17h900Z"/><path class="cls-3" d="m357.65,614.17h170.55c5.51,0,9.98-4.46,10-9.97l.97-340.03h150v340c0,5.52,4.48,10,10,10h170.61c17.07,0,26.3,20.01,15.21,32.99l-270.82,317.01-271.7-316.98c-11.12-12.98-1.9-33.02,15.18-33.02Z"/><path class="cls-1" d="m1064.17,42.52c32.49,0,63.04,12.65,86.02,35.63,22.98,22.98,35.63,53.53,35.63,86.02v900c0,32.49-12.65,63.04-35.63,86.02-22.98,22.98-53.53,35.63-86.02,35.63H164.17c-32.49,0-63.04-12.65-86.02-35.63s-35.63-53.53-35.63-86.02V164.17c0-32.49,12.65-63.04,35.63-86.02,22.98-22.98,53.53-35.63,86.02-35.63h900m0-28.35H164.17C81.33,14.17,14.17,81.33,14.17,164.17v900c0,82.84,67.16,150,150,150h900c82.84,0,150-67.16,150-150V164.17c0-82.84-67.16-150-150-150h0Z"/></g></g></svg>