<?xml version="1.0" encoding="UTF-8"?><svg id="LowRes" xmlns="http://www.w3.org/2000/svg" width="10000" height="4878" viewBox="0 0 10000 4878"><defs><style>.cls-1{fill:#396;}.cls-2{fill:#fff0ad;}.cls-3{fill:#c2f4fe;stroke:#000;}.cls-3,.cls-4{stroke-miterlimit:10;stroke-width:1.42px;}.cls-4{fill:#0087a2;stroke:#fff0ad;}</style></defs><g id="Grounds"><path id="Path" class="cls-2" d="m5975,4547l27-79v-49l171-7,8-53,385-248,290,85s206.96,55.16,247,69c61.07,21.12,251,81,251,81l23-65,22-53,834-1751-1004-757-249-108-284-91-54-24-1331-388-162,192-176.62,43.47-146.38-40.47,101-308-380-126-602-259-109-39-81-20-744.8,67.82-121.55-3.29v30.1l120.55,5.88-5.19,78.5-569-13-2,117,69,3-20,503-537.69-20.41-12.18,271.79-297.51-12.29-6.3,89.36,297.56,8.99-15.86,308.04,417.98,17.14,263.9,221.29-11.58,337.51,251.17,667.58-73.19,121.87,3216.68,1195.13Z"/><g id="Grass"><rect id="Tennis3" class="cls-1" x="3062.89" y="817.46" width="345.35" height="165.17" transform="translate(2141.79 4075.35) rotate(-86.54)"/><rect id="Tennis2" class="cls-1" x="3227.75" y="827.43" width="345.35" height="165.17" transform="translate(2286.74 4249.28) rotate(-86.54)"/><rect id="Tennis1" class="cls-1" x="3392.62" y="837.4" width="345.35" height="165.17" transform="translate(2431.69 4423.22) rotate(-86.54)"/><rect id="NewSquare" class="cls-1" x="4054.99" y="1451.18" width="630.63" height="795.8" transform="translate(2260.7 6099.76) rotate(-86.54)"/><rect id="RubricsLawn" class="cls-1" x="3529.01" y="1744.95" width="623.13" height="138.89" transform="translate(1797.57 5538.4) rotate(-86.54)"/><polygon id="FellowsSquare" class="cls-1" points="3669.63 2454.95 3656.25 2709.85 3604.77 2759.77 3038.72 2730.06 2989 2674.83 3002.38 2419.92 3056.63 2388.94 3622.67 2418.65 3669.63 2454.95"/><path id="RoseGarden" class="cls-1" d="m4986.03,2320.56l-18.9,312.41-170.25-10.3c-12.57-.76-22.18-11.52-21.5-24.1l17.62-329.57,76,5-2,29,119.03,17.56Z"/><path id="MuseumGreen" class="cls-1" d="m4733,2384l-11.66,209.07c-.74,13.2-12.06,23.28-25.26,22.48l-409.05-24.78c-18.74-1.15-36.46-8.9-50.01-21.89l-27.01-25.88,438,23,11-187,74,5Z"/><path id="RugbyPitch" class="cls-1" d="m6333.8,2107.6l-72.45,578.48c-1.71,13.62-13.7,23.58-27.4,22.75l-1211.81-73.31,49.41-816.83s757.45,76.31,782.45,75.31c29.09-1.16,81.07-24.28,110-21,80.32,9.1,304.71,120.55,304.71,120.55,44.35,17.61,71.24,64.74,65.1,114.05Z"/><path id="CricketPitch" class="cls-1" d="m5934,3453s-130.65,519.09-131,520c-13,34-41.58,11.26-97,45-46,28-63,71-93,66-7.89-1.32-1309.12-341.14-1319.8-347.51-35.59-21.22-108.71-68.06-116-118.39-4.86-33.59-9.79-101.36-12.69-135.17-7.02-81.8,35.3-471.63,66.03-536.69,3.51-7.44,9.15-22.95,12.73-30.36,59.72-123.65,147.66-239.64,284.96-237.81l878.38,49.79c239.09-6.91,714.06,177.7,598.69,726.55-1.24,5.91-6.96,9.78-12.91,8.74l-58.38-10.15Z"/><path id="FitzgeraldLawn" class="cls-1" d="m6711.96,2788.84l-19.45,277.19c-3.36,55.53-18.45,84.34-73.97,80.98l-172.59-3.14c-62.69-3.79-138.93-53.89-135.14-116.58l19.35-256.1c.81-13.45,12.38-23.7,25.83-22.88l326.23,6.95c17.05,1.03,30.78,16.53,29.75,33.58Z"/><path id="STEMTriangle" class="cls-1" d="m6234.93,2760.43l-36.84,226.89c-.95,6.22-8.09,9.28-13.24,5.68l-366.29-259.31c-7.03-4.9-3.19-15.95,5.37-15.43l403.14,32.42c4.98.3,8.63,4.82,7.88,9.75Z"/><path id="PavGreen" class="cls-1" d="m6189.29,3067.65l-60.98,419.13c-.48,4.22-4.6,6.98-8.7,5.87l-47.85-10.49c-3.73-1.05-6.19-4.62-5.8-8.51l15.65-162.42c11.09-114.89-24.37-229.44-98.4-317.97l-165.77-198.25c-1.09-1.31-1.63-2.96-1.52-4.64.13-2.17,2.03-3.64,3.94-3.52.67.04,1.34.27,1.95.72l356.83,256.05c7.64,5.46,11.75,14.66,10.66,24.04Z"/><path id="ChemistryLawnNorth" class="cls-1" d="m6386.99,3233.64l-20.6,114.72c-1.1,5.98-9.01,7.35-12.01,2.09l-93.06-163.03c-3.04-5.3-.5-12.01,5.2-14.02l29.84-10.37c10.05-3.52,21.16-1.62,29.45,5.04l52.47,42.16c6.96,5.61,10.33,14.56,8.71,23.4Z"/><path id="ChemistryLawnSouth" class="cls-1" d="m6343.32,3449.8l-39.02,202.7c-3.02,15.72-18.33,25.73-33.62,22.02l-59.63-14.47c-14.28-3.47-23.57-17.4-21.46-32.12l48.96-344.05c1.05-7.4,10.7-9.39,14.49-2.96l86.4,146.5c3.98,6.72,5.35,14.7,3.89,22.4Z"/><polygon id="PhysicsGarden" class="cls-1" points="7675.46 2333.28 7644.44 2421.89 7552.9 2388.39 7585.16 2300.24 7675.46 2333.28"/><path id="BerkeleyTriangle" class="cls-1" d="m4287.86,2697.76l-101.31,135.46c-5.44,7.27-17,2.54-15.74-6.44l20.18-144.62c.93-6.64,6.82-11.47,13.53-11.06l73.03,4.42c11.05.67,16.94,13.36,10.31,22.25Z"/><polygon class="cls-1" points="2383.29 1509.32 2375.85 1632.36 2059.57 1613.22 2072.5 1399.52 2273.77 1411.7 2383.29 1509.32"/><polygon class="cls-1" points="2367.75 1703.99 2360.4 1825.53 2243.53 1921.17 2044.3 1909.12 2057.84 1685.24 2367.75 1703.99"/><path id="FrontGateSouth" class="cls-1" d="m1800.89,1798.51l-12.92,213.57s-37.05-1.52-37.05-2.24c-.13-58.87-58.17-135.31-83.62-181.07-23.98-43.1-41.94-110.1-38.97-159.33l127.52,3.41-2.65,43.79,22.48,1.36-4.76,78.69,29.98,1.81Z"/><polygon id="MuseumGreen-2" class="cls-1" points="4741 2263 4736 2346 4659.34 2342.03 4664.41 2258.25 4741 2263"/><polygon id="MuseumGreen-3" class="cls-1" points="6514.76 2291.12 6511.58 2343.6 6373 2335 6381 2283 6514.76 2291.12"/><rect id="MuseumGreen-4" class="cls-1" x="6531.74" y="2339.31" width="138.89" height="134.48" transform="translate(3800.41 8850.37) rotate(-86.54)"/><polygon class="cls-1" points="6773.51 2384.46 6769.01 2458.94 6746.65 2457.59 6745.03 2484.37 6696 2481.41 6702.12 2380.24 6773.51 2384.46"/><rect id="MuseumGreen-5" class="cls-1" x="6731.24" y="2309.63" width="17.56" height="68.35" transform="translate(3993.43 8929.97) rotate(-86.54)"/><polyline class="cls-1" points="6833.61 3775.14 6818.03 3857.46 6663.83 3821.28 6681.71 3740.37 6833.61 3775.14"/><polygon class="cls-1" points="6426.01 3713.25 6413.29 3760.05 6620.08 3810.13 6639.13 3733.74 6522.9 3708.05 6517.44 3732.99 6426.01 3713.25"/><polygon id="PhysicsGarden-2" class="cls-1" points="7621.71 2468.33 7544.58 2688.66 7556.49 2446.43 7621.71 2468.33"/><path id="MuseumGreen-6" class="cls-1" d="m5719.62,1775.37c5.13,1.57,7.29,7.69,4.21,12.08-3.49,4.98-11.1,10.08-14.52,10.06-75.65-.37-307.24-62.79-307.24-62.79-5.06-1.17-15.12-10.1-15.06-20.93.03-5.52,4.05-16.25,6.98-20.93,4.59-7.34,20.2-10.62,27.54-8.45l298.09,90.95Z"/><path id="MuseumGreen-7" class="cls-1" d="m6504,2498l-2,45-126-7-7,116,119,6-3.31,40.49c-.39,4.76-4.46,8.36-9.23,8.17l-107.85-4.29c-20.17-1.03-35.59-18.36-34.29-38.51l11.96-128.42c1.39-21.46,20.21-41.87,41.71-41.44l117,4Z"/><path id="FrontGateSouth-2" class="cls-1" d="m1817.78,1476.88l10.94-200.86s-40.23-2.18-40.3-1.46c-5.71,58.59-58.26,92-87.94,135.14-27.95,40.63-64.16,121.1-65.85,170.39l128.48,7.6,1.55-29.52,22.49,1.18,4.32-82.47h26.32Z"/><rect id="Library_Square_North" class="cls-1" x="2962.65" y="1423.49" width="653.84" height="282.24" transform="translate(103.14 -200.6) rotate(3.55)"/><rect id="Library_Square_South" class="cls-1" x="2939.19" y="1765.98" width="657.37" height="305.07" transform="translate(125.01 -198.58) rotate(3.55)"/><rect id="MuseumGreen-8" class="cls-1" x="6406.02" y="2366.64" width="88.98" height="109.34" transform="translate(3644.1 8713.83) rotate(-86.54)"/><rect id="MuseumGreen-9" class="cls-1" x="6701.94" y="2217.88" width="35.7" height="95.6" transform="translate(4052.44 8836.38) rotate(-86.54)"/><path id="Botany_flowerbed" class="cls-1" d="m6529.95,2237.78l-1.04,15.12-142.91-8.9,18.11-129.22c2.2-15.7,16.07-27.08,31.89-26.16l76,4.38,1.68,13.47-73.2-3.84-27.39,39.56-2.53,48.33,23.1,42.21,96.29,5.05Z"/><path id="MuseumGreen-10" class="cls-1" d="m6767.1,2672.12c-.45,9.9-8.84,17.56-18.74,17.11l-77.3-4.36.81-17.93,95.23,5.17Z"/></g><g id="Construction"><polygon class="cls-3" points="7260.5 3426.5 6992.5 3368.5 7006.5 3097.5 6932.5 3094.5 6948.5 2825.5 7277.5 2843.5 7282.5 2737.5 7433.5 2760.5 7451.5 2883.5 7260.5 3426.5"/></g></g><g id="Buildings"><rect id="_158" class="cls-4" x="4798.34" y="2103.34" width="279.18" height="126.56" transform="translate(2515.83 6984.38) rotate(-87)"/><rect id="_159" class="cls-4" x="4803.95" y="1803.88" width="290.35" height="156.34" transform="translate(2810.61 6725.88) rotate(-87)"/><rect id="_160" class="cls-4" x="4831.68" y="1538.31" width="271.73" height="126.56" transform="translate(3108.15 6478.5) rotate(-87)"/><rect id="_161" class="cls-4" x="4749.2" y="1313.14" width="100.5" height="171.23" transform="translate(3151.41 6118.41) rotate(-87)"/><rect id="_162" class="cls-4" x="4585.64" y="1312.01" width="100.5" height="156.34" transform="translate(3004.97 5946.95) rotate(-87)"/><rect id="_163" class="cls-4" x="4403.49" y="1276.41" width="100.5" height="208.45" transform="translate(2841.89 5756.01) rotate(-87)"/><rect id="_164" class="cls-4" x="4219.48" y="1290.96" width="100.5" height="160.06" transform="translate(2677.15 5563.11) rotate(-87)"/><rect id="_165" class="cls-4" x="4050.35" y="1272.79" width="100.5" height="178.67" transform="translate(2525.72 5385.81) rotate(-87)"/><rect id="_99" class="cls-4" x="6745.62" y="2990.92" width="219.62" height="156.34" transform="translate(3431.73 9754.49) rotate(-87)"/><polygon class="cls-4" points="8047.81 2960.8 7807.5 3626.44 7700.65 3922.44 7576.99 4264.99 7480.65 4230.2 7604.3 3887.65 7697.4 3629.76 7711.15 3591.65 7804.33 3333.62 7951.31 2926.45 8047.81 2960.8"/><polygon id="_109" class="cls-4" points="7803.66 3334.05 7710.72 3591.5 7696.96 3629.62 7611.06 3598.61 7606.67 3597.01 7514.28 3563.64 7308.11 3489.21 7414.8 3193.65 7620.98 3268.08 7803.66 3334.05"/><polygon id="_77" class="cls-4" points="4081.02 3137.82 4061.38 3512.53 4034.89 3520.01 3883.55 3562.84 3885.89 3518.24 3856.15 3516.68 3851.47 3605.89 3743.67 3600.24 3763.15 3228.52 3870.96 3234.17 3868.81 3275.06 3917.14 3277.59 3922.79 3169.79 4054.65 3143.15 4081.02 3137.82"/><polygon id="_95" class="cls-4" points="8233.09 2476.9 8308.34 2213.55 8310 2199.83 8309.47 2183.66 8306.91 2168.74 8301.97 2153.49 8295.3 2139.53 8286.09 2126.04 8274.52 2113.38 8259.01 2101.34 8243.22 2092.93 7807.74 1923.35 7703.52 2206.25 8233.09 2476.9"/><rect id="_78" class="cls-4" x="2691.05" y="2432.39" width="119.12" height="379.68" transform="translate(-12 5231.82) rotate(-87)"/><polygon id="_88" class="cls-4" points="7362.61 2068.96 7054.07 2052.79 7024.4 2017.24 6518.5 1996.5 6603.28 1928.78 6602.66 1927.89 6476.5 1761.5 6591.5 1672.5 6623.5 1568.5 6671.22 1584.79 6695.49 1521.54 6980.22 1612.8 7362.61 2068.96"/><rect id="_96" class="cls-4" x="6873.41" y="3554.15" width="149.16" height="313.09" transform="translate(1885.76 9745.4) rotate(-78.11)"/><polygon id="_89" class="cls-4" points="7481.2 2227.99 7458.41 2662.92 7131.29 2645.77 7158.56 2125.35 7359.3 2135.87 7357.15 2176.76 7424.06 2180.27 7421.73 2224.88 7481.2 2227.99"/><rect id="_90" class="cls-4" x="6705.93" y="2245.93" width="521.13" height="260.57" transform="translate(4228.91 9208.78) rotate(-87)"/><polygon id="_111" class="cls-4" points="7558.39 4012.09 7472.59 4249.81 7471.18 4253.66 7444.97 4244.18 7399 4227.51 7376.51 4281.15 7063.37 4168.11 7170.26 3871.96 7170.44 3872.02 7170.39 3872.16 7376.1 3946.41 7558.06 4012.1 7558.1 4011.99 7558.39 4012.09"/><polygon id="_117" class="cls-4" points="6529.97 1881.11 6489.23 1998.04 6172.67 1881.22 6172.71 1881.12 6213.4 1764.29 6216.61 1765.42 6529.97 1881.11"/><polygon id="_93" class="cls-4" points="4967.05 1012.43 4903.65 1237.69 4901.57 1250.34 4904.41 1262.43 4911.66 1271.4 4920.93 1277.05 4960.39 1288.25 4938.17 1367.23 5116.73 1417.52 5149.38 1301.55 5251.26 1330.4 5312.9 1109.77 4967.05 1012.43"/><polygon class="cls-4" points="1989.41 1570.51 1981.18 1727.41 1951.3 1725.84 1947.18 1804.29 1889.55 1801.27 1771.61 1795.09 1775.72 1716.64 1753.3 1715.47 1761.53 1558.57 1783.94 1559.74 1788.25 1477.56 1814.3 1478.92 1906.19 1483.74 1941.31 1485.58 1963.83 1486.76 1959.52 1568.94 1989.41 1570.51"/><rect id="_142" class="cls-4" x="3831.86" y="1106.86" width="268.01" height="104.23" transform="translate(2600.9 5058.75) rotate(-87)"/><rect id="_100" class="cls-4" x="6745.65" y="2759.52" width="243.82" height="156.34" transform="translate(3674.3 9547.31) rotate(-87)"/><polygon id="_106" class="cls-4" points="6141.27 3538.9 6075.33 3840.14 5965.16 3813.79 6034.26 3514.8 6141.27 3538.9"/><polygon id="_104" class="cls-4" points="6563.79 4196.37 6180.23 4359.14 6105.09 4181.98 6156.33 4160.22 6168.58 4104.95 6233.92 4077.21 6258.55 4066.76 6322.43 4089.75 6388.11 4061.88 6401.11 4000.31 6297.91 3978.62 6325.2 3849.02 6325.26 3848.69 6343.77 3852.61 6514.69 3888.59 6502.8 3948.31 6488.64 4019.22 6499.56 4044.98 6563.79 4196.37"/><polygon id="_110" class="cls-4" points="7697.4 3629.76 7604.3 3887.65 7603.14 3887.25 7558.1 4011.99 7376.15 3946.3 7170.44 3872.02 7277.29 3576.02 7483.03 3650.31 7575.39 3683.64 7606.67 3597.01 7611.06 3598.61 7696.96 3629.62 7697.4 3629.76"/><polygon id="_107" class="cls-4" points="8096.88 2824.86 8047.81 2960.8 7951.31 2926.45 7962.58 2892.58 7961.75 2894.9 7779.47 2829.11 7542.8 2743.65 7640.7 2472.42 8059.66 2623.63 7999.4 2790.65 8096.88 2824.86"/><polygon class="cls-4" points="2670.19 1164.36 2667.35 1218.6 2655.31 1448.27 2576.86 1444.16 2575.49 1470.31 2429.79 1462.67 2431.16 1436.52 2363.92 1433 2368.23 1350.81 2375.08 1220.06 2442.32 1223.59 2443.2 1206.85 2450.55 1066.69 2492.66 1028.64 2554.3 1031.87 2592.5 1074.32 2591.74 1160.24 2670.19 1164.36"/><polygon id="_116" class="cls-4" points="6216.66 1765.28 6216.61 1765.42 6175.96 1882.25 6172.71 1881.12 5743.81 1731.84 5784.51 1614.87 6216.66 1765.28"/><polygon id="_94" class="cls-4" points="7807.74 1923.35 7703.52 2206.25 7606.76 2123.51 7358.18 1887.88 7229.08 1719.78 7807.74 1923.35"/><rect id="_87" class="cls-4" x="4238.31" y="2134.07" width="308.96" height="528.58" transform="translate(1767.8 6659.6) rotate(-87)"/><polygon id="_118" class="cls-4" points="7601.42 2170.91 7558.89 2216.39 7186.63 1825.85 7235.3 1787.62 7601.42 2170.91"/><rect id="_101" class="cls-4" x="7062.53" y="2617.02" width="106.09" height="329.43" transform="translate(3965.22 9741.95) rotate(-87)"/><rect id="_119" class="cls-4" x="2423.46" y="845.23" width="85.61" height="68.29" transform="translate(1514.25 3318.52) rotate(-88.3)"/><rect class="cls-4" x="2083.92" y="1208.33" width="130.93" height="130.93" transform="translate(764.88 3353.59) rotate(-87)"/><rect class="cls-4" x="1953.17" y="1201.47" width="130.93" height="130.93" transform="translate(647.82 3216.52) rotate(-87)"/><polygon class="cls-4" points="1956.68 1198.13 1949.83 1328.88 1945.91 1403.6 1945.61 1403.58 1910.49 1401.74 1818.9 1396.94 1819.1 1393.22 1829.67 1191.48 1921.25 1196.28 1956.68 1198.13"/><polygon class="cls-4" points="1945.81 1399.86 1945.61 1403.58 1941.31 1485.58 1941.3 1485.78 1906.18 1483.94 1814.29 1479.12 1814.3 1478.92 1818.79 1393.2 1819.1 1393.22 1910.68 1398.02 1945.81 1399.86"/><polygon class="cls-4" points="1924.77 1803.32 1917.32 1945.27 1882.1 1943.43 1790.31 1938.62 1797.75 1796.66 1889.54 1801.47 1924.77 1803.32"/><polygon class="cls-4" points="1917.32 1945.27 1908.71 2109.65 1873.49 2107.8 1781.7 2102.99 1790.31 1938.62 1882.1 1943.43 1917.32 1945.27"/><rect class="cls-4" x="1910.27" y="1980.37" width="134.67" height="130.93" transform="translate(-168.94 3913.63) rotate(-87)"/><polygon id="_137" class="cls-4" points="3654.94 1153.94 3643.84 1365.82 3532.32 1359.98 3533.68 1333.96 3503.94 1332.4 3512.71 1165.12 3542.45 1166.68 3543.42 1148.09 3654.94 1153.94"/><rect id="_149" class="cls-4" x="3727.21" y="1244.31" width="111.67" height="123.83" transform="translate(2280.6 5015.71) rotate(-87)"/><rect id="_148" class="cls-4" x="3679.12" y="1414.26" width="119.12" height="100.5" transform="translate(2080.49 5121.41) rotate(-87)"/><rect id="_147" class="cls-4" x="3647.42" y="1557.37" width="167.51" height="100.5" transform="translate(1930.47 5249.54) rotate(-87)"/><rect id="_146" class="cls-4" x="3640.62" y="1722.79" width="163.78" height="100.5" transform="translate(1757.06 5397.65) rotate(-87)"/><rect id="_145" class="cls-4" x="3632.04" y="1886.35" width="163.78" height="100.5" transform="translate(1585.6 5544.09) rotate(-87)"/><rect id="_144" class="cls-4" x="3646.97" y="2027.61" width="119.12" height="100.5" transform="translate(1437.52 5670.56) rotate(-87)"/><rect id="_130" class="cls-4" x="2869.98" y="509.04" width="119.12" height="119.12" transform="translate(2208.39 3464.35) rotate(-87)"/><rect class="cls-4" x="2041.02" y="1987.22" width="134.67" height="130.93" transform="translate(-51.88 4050.69) rotate(-87)"/><rect id="_131" class="cls-4" x="3018.68" y="497.63" width="96.78" height="156.34" transform="translate(2331.53 3608.53) rotate(-87)"/><rect id="_132" class="cls-4" x="3178.53" y="502.29" width="96.78" height="163.78" transform="translate(2474.64 3776.1) rotate(-87)"/><rect id="_133" class="cls-4" x="3340.23" y="512.62" width="96.78" height="160.06" transform="translate(2619.42 3945.61) rotate(-87)"/><rect id="_134" class="cls-4" x="3500.07" y="521" width="96.78" height="160.06" transform="translate(2762.53 4113.17) rotate(-87)"/><rect id="_135" class="cls-4" x="3628.2" y="548.88" width="122.84" height="122.84" transform="translate(2887.05 4262.92) rotate(-87)"/><rect id="_136" class="cls-4" x="3764.55" y="651.91" width="100.5" height="100.5" transform="translate(2913.93 4474.99) rotate(-87)"/><rect id="_141" class="cls-4" x="3724.03" y="785.74" width="167.51" height="100.5" transform="translate(2773.64 4594.8) rotate(-87)"/><rect id="_140" class="cls-4" x="3717.22" y="951.16" width="163.78" height="100.5" transform="translate(2600.23 4742.9) rotate(-87)"/><rect id="_139" class="cls-4" x="3706.69" y="1116.58" width="167.51" height="100.5" transform="translate(2426.83 4891.01) rotate(-87)"/><rect class="cls-4" x="2227.74" y="1202.77" width="130.93" height="157.12" transform="translate(893.66 3504.35) rotate(-87)"/><rect class="cls-4" x="2179.24" y="1986.98" width="134.67" height="145.89" transform="translate(71.87 4195.59) rotate(-87)"/><polygon id="_138" class="cls-4" points="3167 1147 3158.24 1314.28 3135.93 1313.11 3134.18 1346.45 3022.67 1340.61 3034.15 1121.4 3145.67 1127.24 3144.7 1145.83 3167 1147"/><polygon id="_108" class="cls-4" points="7961.75 2894.9 7803.9 3333.48 7621.22 3267.5 7415 3193.06 7414.8 3193.65 7414.22 3193.45 7543.62 2834.97 7750.41 2909.61 7779.47 2829.11 7961.75 2894.9"/><polygon id="_1" class="cls-4" points="3512.71 1165.12 3503.94 1332.4 3411.01 1327.53 3409.65 1353.55 3238.65 1344.59 3240.02 1318.56 3158.24 1314.28 3167 1147 3248.78 1151.29 3249.76 1132.7 3420.75 1141.66 3419.78 1160.25 3512.71 1165.12"/><polygon id="_102" class="cls-4" points="6788.37 2557.55 6782.33 2672.78 6655.94 2666.16 6654.5 2688.5 6494.5 2681.5 6496.1 2657.78 6369.71 2651.16 6375.75 2535.92 6502.14 2542.55 6504.48 2497.94 6664.32 2506.32 6661.98 2550.92 6788.37 2557.55"/><polygon class="cls-4" points="2629.63 1934.4 2614.39 2225.3 2539.57 2221.86 2539.39 2225.37 2537.26 2233.25 2532.53 2243.8 2524.21 2254.63 2523.25 2255.45 2514.17 2263.25 2504.02 2269.2 2492.7 2273.54 2479.97 2276.63 2467.83 2277.64 2455.36 2276.54 2443.31 2274.32 2431.42 2270.19 2420.55 2264.71 2411.33 2257.8 2403.56 2249.57 2403.3 2249.17 2397.64 2240.48 2393.08 2229.89 2390.24 2213.55 2390.83 2202.34 2394.35 2135.1 2315.9 2130.99 2322.95 1996.5 2327.06 1918.05 2405.51 1922.16 2407.08 1892.28 2556.48 1900.6 2554.92 1930.48 2629.63 1934.4"/><rect id="_84" class="cls-4" x="2678.58" y="917.91" width="305.24" height="152.62" transform="translate(1757.96 3796.42) rotate(-88.39)"/><polygon id="_103" class="cls-4" points="6910.39 4115.61 6906.55 4126.07 6901.74 4143.15 6891.54 4162.81 6881.35 4180.7 6860.96 4214.71 6851.49 4226.9 6836.19 4242.2 6673.79 4364.39 6501.02 4469.4 6370.62 4540.81 6370.54 4540.84 6332.75 4408.4 6655.91 4216.59 6621.08 4170.04 6563.79 4196.37 6499.56 4044.98 6488.64 4019.22 6502.8 3948.31 6515.36 3888.59 6871.69 3963.59 6854.36 4045.95 6914.2 4042.86 6914.19 4079.33 6912.78 4102.36 6910.39 4115.61 6910.39 4115.61"/><polygon id="_115" class="cls-4" points="5751.36 1425.09 5665.88 1712.55 5603.56 1694.04 5603.46 1694.37 5538.87 1675.18 5538.69 1675.76 5446.38 1648.3 5531.86 1360.84 5624.17 1388.27 5561.13 1600.34 5595.74 1610.61 5659.05 1397.63 5751.36 1425.09"/><polygon id="_97" class="cls-4" points="6817.56 3566.18 6778.74 3750.6 6478.83 3688.77 6473.61 3713.55 6351.47 3687.84 6356.68 3663.06 6356.24 3662.96 6437.53 3276.84 6648.79 3321.31 6648.78 3321.42 6817.05 3356.86 6775 3556.72 6775.41 3556.82 6775.31 3557.3 6817.56 3566.18"/><rect id="_143" class="cls-4" x="2943.04" y="1651.13" width="111.67" height="134.01" transform="translate(1099.43 4605.58) rotate(-86.47)"/><polygon id="_85" class="cls-4" points="3066.82 758.78 3057.64 1086.22 2994.38 1084.45 2993.34 1121.66 2904.03 1119.15 2911.76 843.8 2759.2 839.52 2762.44 724.17 3004.3 730.96 3003.57 757.01 3066.82 758.78"/><polygon class="cls-4" points="6806.21 2162.8 6803.68 2211.12 6769.08 2250.31 6529.95 2237.78 6433.66 2232.73 6410.56 2190.52 6413.09 2142.19 6440.48 2102.63 6513.68 2106.47 6775.9 2120.21 6806.21 2162.8"/><rect id="_3" class="cls-4" x="3660.75" y="2595.64" width="513.69" height="327.57" transform="translate(956.91 6527.22) rotate(-87)"/><polygon id="_86" class="cls-4" points="2762.44 724.17 2751.48 1114.87 2643.57 1111.84 2646.18 1018.82 2545.72 1016 2551.85 793.5 2466.35 793.24 2468.45 718.33 2762.44 724.17"/><polygon id="_2" class="cls-4" points="3777.51 3142.09 3775.28 3184.75 3740.37 3182.93 3735.6 3315.82 3702.4 3314.07 3700.98 3336.37 3670.09 3357.14 3656.98 3393.69 3509.99 3385.98 3480.13 3425.44 3356.55 3418.96 3290.92 3337.26 3274.88 3358.77 3166.6 3355.09 3146.12 3325.94 3120.1 3324.57 3095.46 3297.17 2879.64 3289.61 2881.2 3259.87 2836.61 3257.53 2825.29 3237.5 2825.25 3237.42 2812.75 3215.28 2768.12 3212.93 2757.95 3193.76 2549.76 3182.85 2551.4 3151.73 2521.58 3151.55 2500.85 3120.65 2463.66 3118.68 2465.78 3078.22 2555.05 3082.5 2557.58 3034.14 2591.04 3035.89 2602.51 2674.93 2918.2 2691.5 2909.19 2863.21 2975.15 2866.67 2977.39 2824.02 3101.42 2827.81 3099.04 2873.19 3178.81 2877.36 3168.27 3114.47 3777.51 3142.09"/><polygon id="Lecky" class="cls-4" points="3697.89 2826.06 3692.05 2954.63 3683.79 3137.18 3683.75 3137.85 3168.27 3114.47 3180.18 2851.08 3182.38 2802.69 3182.75 2802.69 3697.89 2826.06"/><polygon id="_92" class="cls-4" points="4927.24 995.49 4825.4 1303.48 4657.3 1247.89 4649.47 1262.76 4640.74 1275.05 4628.15 1279.09 4612.99 1278.26 4603.37 1276.82 4587.22 1272.7 4571.35 1267.69 4556.93 1263.88 4548.2 1262.75 4540 1263.29 4531.37 1265.07 4515.44 1269.75 4495.95 1275.37 4484.03 1278.02 4471.03 1276.41 4447.24 1268.64 4456.04 1243.01 4432.01 1235.64 4426.69 1234.01 4547.9 870.04 4927.24 995.49"/><polygon id="_98" class="cls-4" points="7167.5 3405.31 7141.24 3530.22 7140.68 3530.11 7115.43 3649.86 7001.51 3625.85 7026.72 3506.1 6912.36 3482.03 6891.47 3581.24 6775.41 3556.82 6817.49 3356.96 6817.05 3356.86 6817.44 3355.09 6901.39 3372.76 6911.39 3181.99 6927.74 3182.85 6932.42 3093.63 7006.76 3097.53 6992.56 3368.48 7167.5 3405.31"/><polygon class="cls-4" points="2882.85 2260.29 2870.78 2490.76 2640.3 2478.68 2651.65 2262.18 2652.38 2248.21 2678.4 2249.57 2683.51 2152.17 2869.53 2158.92 2864.27 2259.32 2879.74 2260.13 2882.85 2260.29"/><polygon id="OldLibrary" class="cls-4" points="3784.54 2180.15 3773.76 2385.87 3668.91 2380.37 3670.48 2350.32 3030.56 2316.79 3029.37 2339.48 2914.53 2333.46 2925.24 2129.13 3040.08 2135.15 3038.49 2165.54 3678.4 2199.07 3679.68 2174.66 3784.54 2180.15"/><polygon class="cls-4" points="4547.13 869.6 4409.28 1268.44 4039.64 1246.46 4048.11 1104.08 4304.31 1119.31 4360.1 960.61 4075.94 843.23 4070.74 945.59 3928.3 938.13 3945.5 611.5 4547.13 869.6"/><polygon class="cls-4" points="5832.41 1255.74 5791.82 1392.22 5654.01 1351.23 5677.98 1270.61 5694.56 1214.79 5832.41 1255.74"/><polygon class="cls-4" points="5693.81 1214.42 5677.09 1270.71 5653.26 1350.87 5516.39 1310.19 5515.42 1309.91 5522.66 1285.58 5555.83 1174.02 5556 1173.44 5693.81 1214.42"/><polygon class="cls-4" points="5522.66 1285.58 5515.42 1309.91 5516.39 1310.19 5516.22 1310.73 5475.83 1298.72 5463.28 1294.99 5466.18 1285.22 5468.71 1276.71 5503.87 1158.55 5555.83 1174.02 5522.66 1285.58"/><polygon class="cls-4" points="5475.83 1298.72 5440.71 1416.92 5240.95 1357.53 5267.89 1266.99 5274.38 1245.21 5332.81 1261.53 5339.41 1238.29 5468.71 1276.71 5466.18 1285.22 5463.28 1294.99 5475.83 1298.72"/><polygon class="cls-4" points="5373.29 1125.01 5339.41 1238.29 5332.81 1261.53 5274.38 1245.21 5272.72 1244.76 5310.96 1109 5373.29 1125.01"/><polygon class="cls-4" points="6242.69 1378.98 6225.8 1435.73 6210.15 1488.45 6144.88 1469.06 6144.02 1468.8 6162.24 1407.5 6176.24 1360.45 6176.56 1359.33 6242.69 1378.98"/><polygon class="cls-4" points="6309.53 1398.3 6309.49 1398.41 6289.93 1464.21 6276.95 1507.88 6276.94 1507.95 6210.81 1488.26 6226.37 1435.98 6243.4 1378.65 6309.53 1398.3"/><polygon class="cls-4" points="6370.39 1416.54 6348.47 1490.24 6337.93 1525.72 6337.85 1525.97 6297.71 1514.06 6276.95 1507.88 6275.47 1507.44 6288.49 1463.59 6308.01 1397.97 6309.49 1398.41 6370.39 1416.54"/><polygon class="cls-4" points="6433.58 1434.94 6409.13 1517.15 6401.13 1544.05 6401.04 1544.41 6338.62 1525.83 6349.12 1490.5 6371.16 1416.4 6432.39 1434.59 6433.58 1434.94"/><polygon class="cls-4" points="6503.26 1455.29 6476.05 1546.88 6470.72 1564.76 6401.13 1544.05 6399.94 1543.69 6407.98 1516.65 6432.39 1434.59 6432.48 1434.26 6503.26 1455.29"/><polygon class="cls-4" points="6563.72 1473.44 6534.2 1572.7 6531.27 1582.58 6472.38 1565.1 6477.59 1547.58 6504.87 1455.93 6563.72 1473.44"/><polygon class="cls-4" points="6644.13 1497.67 6611.68 1606.78 6611.54 1607.28 6531.53 1583.5 6531.67 1582.99 6534.74 1572.61 6564.12 1473.85 6644.13 1497.67"/><polygon class="cls-4" points="6332.24 4406.58 6001.83 4419.11 6001.83 4468.04 5975.49 4468.04 5975.49 4547.07 6092.15 4554.6 6211.42 4554.76 6370.52 4540.45 6332.24 4406.58"/><polygon class="cls-4" points="5468.5 1276.5 5339.5 1238.5 5373.56 1124.09 5503.5 1157.5 5468.5 1276.5"/><polygon class="cls-4" points="6331.49 1525.63 6279.6 1700.19 6271.11 1697.67 6164.01 1665.83 6215.9 1491.27 6322.99 1523.12 6331.49 1525.63"/><polygon class="cls-4" points="5912.54 1282.36 5908.81 1294.94 5829.37 1562.05 5829.32 1562.27 5756.02 1540.48 5838.34 1263.68 5839.27 1260.58 5911.75 1282.13 5912.54 1282.36"/><polygon class="cls-4" points="5976.41 1301.12 5970.14 1322.18 5893.19 1581.03 5829.37 1562.05 5828.57 1561.83 5908.02 1294.61 5911.75 1282.13 5911.8 1281.92 5976.41 1301.12"/><polygon class="cls-4" points="6045.1 1322.19 6036.35 1351.61 5961.93 1601.88 5961.88 1602.1 5893.84 1581.87 5970.93 1322.55 5977.06 1301.96 6045.1 1322.19"/><polygon class="cls-4" points="6110.59 1341.44 6099.26 1379.55 6027.5 1620.92 6027.37 1621.35 5961.93 1601.88 6036.35 1351.61 6045.1 1322.19 6045.15 1321.97 6109.76 1341.18 6110.59 1341.44"/><polygon class="cls-4" points="6177.11 1360.71 6163.07 1407.87 6144.88 1469.06 6093.89 1640.62 6027.5 1620.92 6026.68 1620.66 6098.47 1379.18 6109.76 1341.18 6109.9 1340.75 6176.24 1360.45 6177.11 1360.71"/><path class="cls-4" d="m5936.05,4308.37l-98.79,57.23-30.79-55.79-42.03,24.6-.59,2.26-376.07-98.33,36.91-141.17,287.98,75.3c14.35-54.89,70.48-87.75,125.37-73.4l72.56-274.02,158.11,41.34-90.28,341.78-73.17,44.4,30.79,55.79Z"/><polygon id="_77-2" class="cls-4" points="3730.62 3448.37 3718.5 3663.5 3573.5 3620.5 3637.5 3446.5 3730.62 3448.37"/></g></svg>