<?xml version="1.0" encoding="UTF-8"?><svg id="Layer_2" xmlns="http://www.w3.org/2000/svg" width="1200" height="1200" viewBox="0 0 1200 1200"><defs><style>.cls-1{fill:#3fa9f5;}.cls-1,.cls-2,.cls-3{stroke:#7ac943;stroke-miterlimit:10;stroke-width:1.42px;}.cls-2{fill:#0087a2;}.cls-4{fill:#396;}.cls-4,.cls-5,.cls-6,.cls-7{stroke-width:0px;}.cls-3{fill:#23d2d0;}.cls-8{opacity:.02;}.cls-5{fill:#daffd1;}.cls-6{fill:#fff0ad;}.cls-7{fill:#fff;}</style></defs><g id="Ground_stuff"><polygon id="Grass" class="cls-4" points="48.63 309.72 104.5 983.5 361.5 964.5 349.5 774.5 386.5 769.5 386.5 838.31 589.5 831.5 599.5 940.5 875.5 921.5 838.31 427.69 695.47 381.38 570.82 322.97 510.5 289.5 48.63 309.72"/><polygon id="Lake" class="cls-3" points="118 597 278 582 282 640 124 657 118 597"/><polygon class="cls-6" points="69.4 560.2 303.09 537.53 282.07 350.48 198.52 359.19 201.74 390.03 243.51 385.67 250.67 454.3 164.14 463.32 148.69 322.97 409.5 307.5 414.88 396.57 463.92 394 467.98 471.49 471.44 537.45 574.86 733.54 574.86 758.95 429.22 759.29 412.13 759.29 412.13 837.45 391.98 838.31 394.5 733.5 376.5 733.5 377.5 770.72 354.84 773.78 350.5 727.5 314.89 734.42 231.21 741.74 283 783 291 866 204 875 187 701 222 696 230.55 695.47 234.5 717.5 371.08 699.04 360.5 556.5 71.21 582 69.4 560.2"/><polygon class="cls-6" points="117.5 596.5 277.21 582.5 278.01 594.08 118.93 609.31 117.5 596.5"/><polygon class="cls-6" points="254.11 718.5 232.93 515.51 250.45 514.5 273.5 716.68 254.11 718.5"/><polygon class="cls-6" points="311.5 523.5 68.5 546.5 67.5 536.5 305.5 511.5 311.5 523.5"/><rect id="NewSquare" class="cls-4" x="430.74" y="407.25" width="42.88" height="66.18" transform="translate(-22.42 24.27) rotate(-3)"/><rect id="NewSquare-2" class="cls-4" x="440.27" y="549.48" width="32.72" height="78.43" transform="translate(-30.18 24.7) rotate(-3)"/><polygon class="cls-6" points="692.24 379.87 659.5 382.5 612 364.98 563.34 341.44 515.5 316.5 481.5 307.5 409.5 307.5 411.2 335.72 456.63 327.98 490.5 330.5 532.37 345 574.86 364.98 622.5 384.5 654.69 396.57 686.69 396.57 704.5 393.5 708.12 385.48 692.24 379.87"/><polygon class="cls-6" points="708.12 417.27 708.12 385.48 632.09 388.09 641.86 423.28 708.12 417.27"/><polygon class="cls-5" points="848.5 562.5 838.5 427.5 791.5 413.5 561.5 427.5 569.5 572.5 848.5 562.5"/><polyline class="cls-6" points="566.76 582.28 556.11 423.28 569.17 410.56 580.62 367.34 540.73 348.93 539.69 364.98 542 409 523.23 409.98 532.35 584.08 566.76 582.28"/></g><g id="Layer_2-2"><polygon class="cls-2" points="282.07 350.48 298.97 512.6 109 532.41 87.03 329.4 148.69 322.97 164.14 463.32 250.67 454.3 243.51 385.67 201.74 390.03 198.52 359.19 282.07 350.48"/><polygon class="cls-2" points="314.89 734.42 337.09 912.8 150 929 124 657 217 647 222 696 187 701 204 875 291 866 283 783 235 786 231.21 741.74 314.89 734.42"/><polygon class="cls-2" points="464 394 463.92 394 414.88 396.57 412.13 344.01 461.25 341.44 462.68 368.76 464 394"/><polygon class="cls-2" points="500.17 632.04 500.19 632.36 478.2 633.51 477.29 616.1 474.02 616.27 472.49 587.22 474.04 587.14 471.44 537.45 420.84 540.1 417.39 474.15 467.98 471.49 463.92 394 464 394 462.68 368.76 520.91 365.71 520.92 365.96 539.69 364.98 542 409 523.23 409.98 532.35 584.08 566.76 582.28 569.17 628.42 500.17 632.04"/><polygon class="cls-2" points="574.86 733.54 505.68 737.16 502.62 678.86 480.64 680.02 480.36 680.03 477.92 633.57 478.21 633.56 500.19 632.4 569.37 628.78 571.8 675.23 574.86 733.54"/><polygon class="cls-2" points="481.5 696.41 431.26 699.04 428.6 648.28 425 648 421 642 412.29 639.33 411.74 628.82 420 627 420 619 461.48 616.64 461.49 616.93 474.02 616.27 477.29 616.1 478.2 633.51 478.21 633.56 477.92 633.57 480.36 680.03 480.64 680.02 481.5 696.41"/><rect class="cls-1" x="325.51" y="686.65" width="11.72" height="13.58" transform="translate(-35.84 18.29) rotate(-3)"/><rect class="cls-2" x="431.18" y="758.04" width="45.98" height="76.37" transform="translate(-41.05 24.86) rotate(-3)"/><rect class="cls-2" x="718.03" y="718.83" width="45.98" height="132.19" transform="translate(-40.06 39.86) rotate(-3)"/><rect class="cls-2" x="613.15" y="817.25" width="153.23" height="42.12" transform="translate(-42.93 37.25) rotate(-3)"/><rect class="cls-1" x="645.86" y="531.6" width="57.53" height="24.92" transform="translate(-27.55 36.05) rotate(-3)"/><rect class="cls-1" x="644.09" y="499.3" width="57.53" height="24.92" transform="translate(-25.86 35.92) rotate(-3)"/><rect class="cls-1" x="642.09" y="464.3" width="57.53" height="24.92" transform="translate(-24.03 35.76) rotate(-3)"/><rect id="_Path_" class="cls-1" x="562.09" y="425.1" width="91.06" height="25.79" transform="translate(-22.09 32.4) rotate(-3)"/><rect class="cls-1" x="712.89" y="461.82" width="35.89" height="93.18" transform="translate(-25.61 38.95) rotate(-3)"/><rect class="cls-2" x="656.77" y="408" width="49.18" height="33.96" transform="translate(-21.31 36.24) rotate(-3)"/><polygon class="cls-6" points="308.31 561.1 290 638 302 711 315 709 302.5 638.44 322.13 557.66 308.89 557.66 308.31 561.1"/></g><g id="Alignment"><g id="Outer_Rectangle" class="cls-8"><path class="cls-7" d="m1199,1v1198H1V1h1198m1-1H0v1200h1200V0h0Z"/></g></g></svg>